TEMPOOOOOOOooo 168.99980283356336
NOTE ON CHANNEL 0 DURATION: 6.103357ms NOTE B  OCTAVE 2
NOTE OFF CHANNEL 0 DURATION: 6.177294ms NOTE B  OCTAVE 2
NOTE ON CHANNEL 0 DURATION: 6.425513ms NOTE B  OCTAVE 1
NOTE OFF CHANNEL 0 DURATION: 6.502971ms NOTE B  OCTAVE 1
NOTE ON CHANNEL 0 DURATION: 6.596273ms NOTE B  OCTAVE 1
NOTE OFF CHANNEL 0 DURATION: 6.645565ms NOTE B  OCTAVE 1
NOTE ON CHANNEL 0 DURATION: 6.679013ms NOTE B  OCTAVE 1
NOTE OFF CHANNEL 0 DURATION: 6.735346ms NOTE B  OCTAVE 1
NOTE ON CHANNEL 0 DURATION: 6.765273ms NOTE B  OCTAVE 2
NOTE OFF CHANNEL 0 DURATION: 6.833929ms NOTE B  OCTAVE 2
NOTE ON CHANNEL 0 DURATION: 6.863856ms NOTE B  OCTAVE 2
NOTE OFF CHANNEL 0 DURATION: 6.950116ms NOTE B  OCTAVE 2
NOTE ON CHANNEL 0 DURATION: 7.018773ms NOTE B  OCTAVE 1
NOTE OFF CHANNEL 0 DURATION: 7.089189ms NOTE B  OCTAVE 1
NOTE ON CHANNEL 0 DURATION: 7.274033ms NOTE B  OCTAVE 1
NOTE OFF CHANNEL 0 DURATION: 7.326845ms NOTE B  OCTAVE 1
NOTE ON CHANNEL 0 DURATION: 7.342689ms NOTE B  OCTAVE 1
NOTE OFF CHANNEL 0 DURATION: 7.400783ms NOTE B  OCTAVE 1
NOTE ON CHANNEL 0 DURATION: 7.443032ms NOTE B  OCTAVE 2
NOTE OFF CHANNEL 0 DURATION: 7.529293ms NOTE B  OCTAVE 2
NOTE ON CHANNEL 0 DURATION: 7.782793ms NOTE B  OCTAVE 1
NOTE OFF CHANNEL 0 DURATION: 7.85673ms NOTE B  OCTAVE 1
NOTE ON CHANNEL 0 DURATION: 7.969396ms NOTE B  OCTAVE 1
NOTE OFF CHANNEL 0 DURATION: 8.020448ms NOTE B  OCTAVE 1
NOTE ON CHANNEL 0 DURATION: 8.050376ms NOTE B  OCTAVE 1
NOTE OFF CHANNEL 0 DURATION: 8.106709ms NOTE B  OCTAVE 1
NOTE ON CHANNEL 0 DURATION: 8.120792ms NOTE B  OCTAVE 2
NOTE OFF CHANNEL 0 DURATION: 8.191209ms NOTE B  OCTAVE 2
NOTE ON CHANNEL 0 DURATION: 8.205292ms NOTE B  OCTAVE 2
NOTE OFF CHANNEL 0 DURATION: 8.286271ms NOTE B  OCTAVE 2
NOTE ON CHANNEL 0 DURATION: 8.374292ms NOTE B  OCTAVE 1
NOTE OFF CHANNEL 0 DURATION: 8.465833ms NOTE B  OCTAVE 1
NOTE ON CHANNEL 0 DURATION: 8.817916ms NOTE B  OCTAVE 1
NOTE OFF CHANNEL 0 DURATION: 8.87425ms NOTE B  OCTAVE 1
NOTE ON CHANNEL 0 DURATION: 8.898895ms NOTE B  OCTAVE 1
NOTE OFF CHANNEL 0 DURATION: 8.955229ms NOTE B  OCTAVE 1
NOTE ON CHANNEL 0 DURATION: 8.985156ms NOTE B  OCTAVE 1
NOTE OFF CHANNEL 0 DURATION: 9.037968ms NOTE B  OCTAVE 1
NOTE ON CHANNEL 0 DURATION: 9.407655ms NOTE E  OCTAVE 2
NOTE OFF CHANNEL 0 DURATION: 9.47103ms NOTE E  OCTAVE 2
NOTE ON CHANNEL 0 DURATION: 9.576655ms NOTE E  OCTAVE 2
NOTE OFF CHANNEL 0 DURATION: 9.63827ms NOTE E  OCTAVE 2
NOTE ON CHANNEL 0 DURATION: 9.747415ms NOTE E  OCTAVE 2
NOTE OFF CHANNEL 0 DURATION: 9.794946ms NOTE E  OCTAVE 2
NOTE ON CHANNEL 0 DURATION: 9.833676ms NOTE E  OCTAVE 2
NOTE OFF CHANNEL 0 DURATION: 10.062529ms NOTE E  OCTAVE 2
NOTE ON CHANNEL 0 DURATION: 10.173436ms NOTE A  OCTAVE 1
NOTE OFF CHANNEL 0 DURATION: 10.231529ms NOTE A  OCTAVE 1
NOTE ON CHANNEL 0 DURATION: 10.256175ms NOTE A  OCTAVE 1
NOTE OFF CHANNEL 0 DURATION: 10.312508ms NOTE A  OCTAVE 1
NOTE ON CHANNEL 0 DURATION: 10.342435ms NOTE A  OCTAVE 1
NOTE OFF CHANNEL 0 DURATION: 10.402289ms NOTE A  OCTAVE 1
NOTE ON CHANNEL 0 DURATION: 10.763174ms NOTE D  OCTAVE 2
NOTE OFF CHANNEL 0 DURATION: 10.826549ms NOTE D  OCTAVE 2
NOTE ON CHANNEL 0 DURATION: 10.933935ms NOTE D  OCTAVE 2
NOTE OFF CHANNEL 0 DURATION: 10.993789ms NOTE D  OCTAVE 2
NOTE ON CHANNEL 0 DURATION: 11.102934ms NOTE D  OCTAVE 2
NOTE OFF CHANNEL 0 DURATION: 11.159268ms NOTE D  OCTAVE 2
NOTE ON CHANNEL 0 DURATION: 11.190955ms NOTE C# OCTAVE 2
NOTE OFF CHANNEL 0 DURATION: 11.449736ms NOTE C# OCTAVE 2
NOTE ON CHANNEL 0 DURATION: 11.530715ms NOTE B  OCTAVE 1
NOTE OFF CHANNEL 0 DURATION: 11.585288ms NOTE B  OCTAVE 1
NOTE ON CHANNEL 0 DURATION: 11.611694ms NOTE B  OCTAVE 1
NOTE OFF CHANNEL 0 DURATION: 11.666267ms NOTE B  OCTAVE 1
NOTE ON CHANNEL 0 DURATION: 11.697955ms NOTE B  OCTAVE 1
NOTE OFF CHANNEL 0 DURATION: 11.750767ms NOTE B  OCTAVE 1
NOTE ON CHANNEL 0 DURATION: 12.120454ms NOTE E  OCTAVE 2
NOTE OFF CHANNEL 0 DURATION: 12.182069ms NOTE E  OCTAVE 2
NOTE ON CHANNEL 0 DURATION: 12.289454ms NOTE E  OCTAVE 2
NOTE OFF CHANNEL 0 DURATION: 12.349308ms NOTE E  OCTAVE 2
NOTE ON CHANNEL 0 DURATION: 12.458454ms NOTE E  OCTAVE 2
NOTE OFF CHANNEL 0 DURATION: 12.507745ms NOTE E  OCTAVE 2
NOTE ON CHANNEL 0 DURATION: 12.546474ms NOTE E  OCTAVE 2
NOTE OFF CHANNEL 0 DURATION: 12.775328ms NOTE E  OCTAVE 2
NOTE ON CHANNEL 0 DURATION: 12.886234ms NOTE A  OCTAVE 1
NOTE OFF CHANNEL 0 DURATION: 12.944328ms NOTE A  OCTAVE 1
NOTE ON CHANNEL 0 DURATION: 12.967214ms NOTE A  OCTAVE 1
NOTE OFF CHANNEL 0 DURATION: 13.025307ms NOTE A  OCTAVE 1
NOTE ON CHANNEL 0 DURATION: 13.053474ms NOTE A  OCTAVE 1
NOTE OFF CHANNEL 0 DURATION: 13.113328ms NOTE A  OCTAVE 1
NOTE ON CHANNEL 0 DURATION: 13.475973ms NOTE D  OCTAVE 2
NOTE OFF CHANNEL 0 DURATION: 13.539348ms NOTE D  OCTAVE 2
NOTE ON CHANNEL 0 DURATION: 13.644973ms NOTE D  OCTAVE 2
NOTE OFF CHANNEL 0 DURATION: 13.706588ms NOTE D  OCTAVE 2
NOTE ON CHANNEL 0 DURATION: 13.815733ms NOTE D  OCTAVE 2
NOTE OFF CHANNEL 0 DURATION: 13.870306ms NOTE D  OCTAVE 2
NOTE ON CHANNEL 0 DURATION: 13.901994ms NOTE C# OCTAVE 2
NOTE OFF CHANNEL 0 DURATION: 14.162535ms NOTE C# OCTAVE 2
NOTE ON CHANNEL 0 DURATION: 14.243514ms NOTE B  OCTAVE 1
NOTE OFF CHANNEL 0 DURATION: 14.298087ms NOTE B  OCTAVE 1
NOTE ON CHANNEL 0 DURATION: 14.324493ms NOTE B  OCTAVE 1
NOTE OFF CHANNEL 0 DURATION: 14.379066ms NOTE B  OCTAVE 1
NOTE ON CHANNEL 0 DURATION: 14.410754ms NOTE B  OCTAVE 1
NOTE OFF CHANNEL 0 DURATION: 14.465326ms NOTE B  OCTAVE 1
NOTE ON CHANNEL 0 DURATION: 14.833253ms NOTE E  OCTAVE 2
NOTE OFF CHANNEL 0 DURATION: 14.894868ms NOTE E  OCTAVE 2
NOTE ON CHANNEL 0 DURATION: 15.002253ms NOTE E  OCTAVE 2
NOTE OFF CHANNEL 0 DURATION: 15.062107ms NOTE E  OCTAVE 2
NOTE ON CHANNEL 0 DURATION: 15.171253ms NOTE E  OCTAVE 2
NOTE OFF CHANNEL 0 DURATION: 15.218784ms NOTE E  OCTAVE 2
NOTE ON CHANNEL 0 DURATION: 15.259273ms NOTE E  OCTAVE 2
NOTE OFF CHANNEL 0 DURATION: 15.486367ms NOTE E  OCTAVE 2
NOTE ON CHANNEL 0 DURATION: 15.599033ms NOTE B  OCTAVE 1
NOTE OFF CHANNEL 0 DURATION: 15.657127ms NOTE B  OCTAVE 1
NOTE ON CHANNEL 0 DURATION: 15.680012ms NOTE B  OCTAVE 1
NOTE OFF CHANNEL 0 DURATION: 15.739867ms NOTE B  OCTAVE 1
NOTE ON CHANNEL 0 DURATION: 15.766273ms NOTE B  OCTAVE 1
NOTE OFF CHANNEL 0 DURATION: 15.826127ms NOTE B  OCTAVE 1
NOTE ON CHANNEL 0 DURATION: 16.188772ms NOTE E  OCTAVE 2
NOTE OFF CHANNEL 0 DURATION: 16.250387ms NOTE E  OCTAVE 2
NOTE ON CHANNEL 0 DURATION: 16.357772ms NOTE E  OCTAVE 2
NOTE OFF CHANNEL 0 DURATION: 16.417626ms NOTE E  OCTAVE 2
NOTE ON CHANNEL 0 DURATION: 16.526772ms NOTE E  OCTAVE 2
NOTE OFF CHANNEL 0 DURATION: 16.583105ms NOTE E  OCTAVE 2
NOTE ON CHANNEL 0 DURATION: 16.614793ms NOTE E  OCTAVE 2
NOTE OFF CHANNEL 0 DURATION: 16.873574ms NOTE E  OCTAVE 2
NOTE ON CHANNEL 0 DURATION: 16.954553ms NOTE B  OCTAVE 1
NOTE OFF CHANNEL 0 DURATION: 17.010886ms NOTE B  OCTAVE 1
NOTE ON CHANNEL 0 DURATION: 17.035532ms NOTE B  OCTAVE 1
NOTE OFF CHANNEL 0 DURATION: 17.091865ms NOTE B  OCTAVE 1
NOTE ON CHANNEL 0 DURATION: 17.121792ms NOTE B  OCTAVE 1
NOTE OFF CHANNEL 0 DURATION: 17.178125ms NOTE B  OCTAVE 1
NOTE ON CHANNEL 0 DURATION: 17.544292ms NOTE E  OCTAVE 2
NOTE OFF CHANNEL 0 DURATION: 17.607666ms NOTE E  OCTAVE 2
NOTE ON CHANNEL 0 DURATION: 17.713291ms NOTE E  OCTAVE 2
NOTE OFF CHANNEL 0 DURATION: 17.774906ms NOTE E  OCTAVE 2
NOTE ON CHANNEL 0 DURATION: 17.882291ms NOTE E  OCTAVE 2
NOTE OFF CHANNEL 0 DURATION: 17.931583ms NOTE E  OCTAVE 2
NOTE ON CHANNEL 0 DURATION: 17.970312ms NOTE E  OCTAVE 2
NOTE OFF CHANNEL 0 DURATION: 18.199166ms NOTE E  OCTAVE 2
NOTE ON CHANNEL 0 DURATION: 18.310072ms NOTE A  OCTAVE 1
NOTE OFF CHANNEL 0 DURATION: 18.368166ms NOTE A  OCTAVE 1
NOTE ON CHANNEL 0 DURATION: 18.392811ms NOTE A  OCTAVE 1
NOTE OFF CHANNEL 0 DURATION: 18.452665ms NOTE A  OCTAVE 1
NOTE ON CHANNEL 0 DURATION: 18.477311ms NOTE A  OCTAVE 1
NOTE OFF CHANNEL 0 DURATION: 18.538926ms NOTE A  OCTAVE 1
NOTE ON CHANNEL 0 DURATION: 18.899811ms NOTE D  OCTAVE 2
NOTE OFF CHANNEL 0 DURATION: 18.963186ms NOTE D  OCTAVE 2
NOTE ON CHANNEL 0 DURATION: 19.070571ms NOTE D  OCTAVE 2
NOTE OFF CHANNEL 0 DURATION: 19.130425ms NOTE D  OCTAVE 2
NOTE ON CHANNEL 0 DURATION: 19.239571ms NOTE D  OCTAVE 2
NOTE OFF CHANNEL 0 DURATION: 19.295904ms NOTE D  OCTAVE 2
NOTE ON CHANNEL 0 DURATION: 19.327592ms NOTE C# OCTAVE 2
NOTE OFF CHANNEL 0 DURATION: 19.586372ms NOTE C# OCTAVE 2
NOTE ON CHANNEL 0 DURATION: 19.667352ms NOTE B  OCTAVE 1
NOTE OFF CHANNEL 0 DURATION: 19.721924ms NOTE B  OCTAVE 1
NOTE ON CHANNEL 0 DURATION: 19.748331ms NOTE B  OCTAVE 1
NOTE OFF CHANNEL 0 DURATION: 19.804664ms NOTE B  OCTAVE 1
NOTE ON CHANNEL 0 DURATION: 19.834591ms NOTE B  OCTAVE 1
NOTE OFF CHANNEL 0 DURATION: 19.889164ms NOTE B  OCTAVE 1
NOTE ON CHANNEL 0 DURATION: 20.25709ms NOTE E  OCTAVE 2
NOTE OFF CHANNEL 0 DURATION: 20.318705ms NOTE E  OCTAVE 2
NOTE ON CHANNEL 0 DURATION: 20.42609ms NOTE E  OCTAVE 2
NOTE OFF CHANNEL 0 DURATION: 20.485944ms NOTE E  OCTAVE 2
NOTE ON CHANNEL 0 DURATION: 20.59509ms NOTE E  OCTAVE 2
NOTE OFF CHANNEL 0 DURATION: 20.644382ms NOTE E  OCTAVE 2
NOTE ON CHANNEL 0 DURATION: 20.683111ms NOTE E  OCTAVE 2
NOTE OFF CHANNEL 0 DURATION: 20.911965ms NOTE E  OCTAVE 2
NOTE ON CHANNEL 0 DURATION: 21.022871ms NOTE A  OCTAVE 1
NOTE OFF CHANNEL 0 DURATION: 21.080964ms NOTE A  OCTAVE 1
NOTE ON CHANNEL 0 DURATION: 21.10385ms NOTE A  OCTAVE 1
NOTE OFF CHANNEL 0 DURATION: 21.165464ms NOTE A  OCTAVE 1
NOTE ON CHANNEL 0 DURATION: 21.19011ms NOTE A  OCTAVE 1
NOTE OFF CHANNEL 0 DURATION: 21.249964ms NOTE A  OCTAVE 1
NOTE ON CHANNEL 0 DURATION: 21.61261ms NOTE D  OCTAVE 2
NOTE OFF CHANNEL 0 DURATION: 21.675985ms NOTE D  OCTAVE 2
NOTE ON CHANNEL 0 DURATION: 21.78161ms NOTE D  OCTAVE 2
NOTE OFF CHANNEL 0 DURATION: 21.843224ms NOTE D  OCTAVE 2
NOTE ON CHANNEL 0 DURATION: 21.95237ms NOTE D  OCTAVE 2
NOTE OFF CHANNEL 0 DURATION: 22.006943ms NOTE D  OCTAVE 2
NOTE ON CHANNEL 0 DURATION: 22.03863ms NOTE C# OCTAVE 2
NOTE OFF CHANNEL 0 DURATION: 22.299171ms NOTE C# OCTAVE 2
NOTE ON CHANNEL 0 DURATION: 22.37839ms NOTE B  OCTAVE 1
NOTE OFF CHANNEL 0 DURATION: 22.434723ms NOTE B  OCTAVE 1
NOTE ON CHANNEL 0 DURATION: 22.459369ms NOTE B  OCTAVE 1
NOTE OFF CHANNEL 0 DURATION: 22.515702ms NOTE B  OCTAVE 1
NOTE ON CHANNEL 0 DURATION: 22.54739ms NOTE B  OCTAVE 1
NOTE OFF CHANNEL 0 DURATION: 22.601963ms NOTE B  OCTAVE 1
NOTE ON CHANNEL 0 DURATION: 22.968129ms NOTE E  OCTAVE 2
NOTE OFF CHANNEL 0 DURATION: 23.031504ms NOTE E  OCTAVE 2
NOTE ON CHANNEL 0 DURATION: 23.138889ms NOTE E  OCTAVE 2
NOTE OFF CHANNEL 0 DURATION: 23.198743ms NOTE E  OCTAVE 2
NOTE ON CHANNEL 0 DURATION: 23.307889ms NOTE E  OCTAVE 2
NOTE OFF CHANNEL 0 DURATION: 23.357181ms NOTE E  OCTAVE 2
NOTE ON CHANNEL 0 DURATION: 23.394149ms NOTE E  OCTAVE 2
NOTE OFF CHANNEL 0 DURATION: 23.624764ms NOTE E  OCTAVE 2
NOTE ON CHANNEL 0 DURATION: 23.733909ms NOTE F# OCTAVE 2
NOTE OFF CHANNEL 0 DURATION: 23.793763ms NOTE F# OCTAVE 2
NOTE ON CHANNEL 0 DURATION: 23.816649ms NOTE F# OCTAVE 2
NOTE OFF CHANNEL 0 DURATION: 23.876503ms NOTE F# OCTAVE 2
NOTE ON CHANNEL 0 DURATION: 23.902909ms NOTE F# OCTAVE 2
NOTE OFF CHANNEL 0 DURATION: 23.962763ms NOTE F# OCTAVE 2
NOTE ON CHANNEL 0 DURATION: 24.325409ms NOTE D  OCTAVE 2
NOTE OFF CHANNEL 0 DURATION: 24.388784ms NOTE D  OCTAVE 2
NOTE ON CHANNEL 0 DURATION: 24.494408ms NOTE D  OCTAVE 2
NOTE OFF CHANNEL 0 DURATION: 24.554263ms NOTE D  OCTAVE 2
NOTE ON CHANNEL 0 DURATION: 24.663408ms NOTE F# OCTAVE 3
NOTE OFF CHANNEL 0 DURATION: 24.740866ms NOTE F# OCTAVE 3
NOTE ON CHANNEL 0 DURATION: 24.751429ms NOTE E  OCTAVE 3
NOTE OFF CHANNEL 0 DURATION: 24.825366ms NOTE E  OCTAVE 3
NOTE ON CHANNEL 0 DURATION: 24.834168ms NOTE D  OCTAVE 3
NOTE OFF CHANNEL 0 DURATION: 24.911627ms NOTE D  OCTAVE 3
NOTE ON CHANNEL 0 DURATION: 24.920429ms NOTE C# OCTAVE 3
NOTE OFF CHANNEL 0 DURATION: 24.994366ms NOTE C# OCTAVE 3
NOTE ON CHANNEL 0 DURATION: 25.003168ms NOTE B  OCTAVE 2
NOTE OFF CHANNEL 0 DURATION: 25.080626ms NOTE B  OCTAVE 2
NOTE ON CHANNEL 0 DURATION: 25.091189ms NOTE A  OCTAVE 1
NOTE OFF CHANNEL 0 DURATION: 25.149283ms NOTE A  OCTAVE 1
NOTE ON CHANNEL 0 DURATION: 25.172168ms NOTE A  OCTAVE 1
NOTE OFF CHANNEL 0 DURATION: 25.226741ms NOTE A  OCTAVE 1
NOTE ON CHANNEL 0 DURATION: 25.258428ms NOTE A  OCTAVE 1
NOTE OFF CHANNEL 0 DURATION: 25.381657ms NOTE A  OCTAVE 1
NOTE ON CHANNEL 0 DURATION: 25.427428ms NOTE A  OCTAVE 1
NOTE OFF CHANNEL 0 DURATION: 25.545376ms NOTE A  OCTAVE 1
NOTE ON CHANNEL 0 DURATION: 25.596428ms NOTE A  OCTAVE 1
NOTE OFF CHANNEL 0 DURATION: 25.716136ms NOTE A  OCTAVE 1
NOTE ON CHANNEL 0 DURATION: 25.768949ms NOTE G# OCTAVE 1
NOTE OFF CHANNEL 0 DURATION: 25.885136ms NOTE G# OCTAVE 1
NOTE ON CHANNEL 0 DURATION: 25.936188ms NOTE G# OCTAVE 1
NOTE OFF CHANNEL 0 DURATION: 26.066459ms NOTE G# OCTAVE 1
NOTE ON CHANNEL 0 DURATION: 26.105188ms NOTE G# OCTAVE 1
NOTE OFF CHANNEL 0 DURATION: 26.224896ms NOTE G# OCTAVE 1
NOTE ON CHANNEL 0 DURATION: 26.275948ms NOTE G# OCTAVE 1
NOTE OFF CHANNEL 0 DURATION: 26.407979ms NOTE G# OCTAVE 1
NOTE ON CHANNEL 0 DURATION: 26.446708ms NOTE F# OCTAVE 1
NOTE OFF CHANNEL 0 DURATION: 26.573458ms NOTE F# OCTAVE 1
NOTE ON CHANNEL 0 DURATION: 26.613948ms NOTE F# OCTAVE 1
NOTE OFF CHANNEL 0 DURATION: 26.737177ms NOTE F# OCTAVE 1
NOTE ON CHANNEL 0 DURATION: 26.782947ms NOTE F# OCTAVE 1
NOTE OFF CHANNEL 0 DURATION: 26.916739ms NOTE F# OCTAVE 1
NOTE ON CHANNEL 0 DURATION: 26.953708ms NOTE F# OCTAVE 1
NOTE OFF CHANNEL 0 DURATION: 27.110385ms NOTE F# OCTAVE 1
NOTE ON CHANNEL 0 DURATION: 27.122707ms NOTE D  OCTAVE 2
NOTE OFF CHANNEL 0 DURATION: 27.171999ms NOTE D  OCTAVE 2
NOTE ON CHANNEL 0 DURATION: 27.205447ms NOTE D  OCTAVE 2
NOTE OFF CHANNEL 0 DURATION: 27.247697ms NOTE D  OCTAVE 2
NOTE ON CHANNEL 0 DURATION: 27.291707ms NOTE D  OCTAVE 2
NOTE OFF CHANNEL 0 DURATION: 27.335718ms NOTE D  OCTAVE 2
NOTE ON CHANNEL 0 DURATION: 27.376207ms NOTE D  OCTAVE 2
NOTE OFF CHANNEL 0 DURATION: 27.421978ms NOTE D  OCTAVE 2
NOTE ON CHANNEL 0 DURATION: 27.462467ms NOTE D  OCTAVE 2
NOTE OFF CHANNEL 0 DURATION: 27.513519ms NOTE D  OCTAVE 2
NOTE ON CHANNEL 0 DURATION: 27.545207ms NOTE D  OCTAVE 2
NOTE OFF CHANNEL 0 DURATION: 27.594499ms NOTE D  OCTAVE 2
NOTE ON CHANNEL 0 DURATION: 27.631467ms NOTE D  OCTAVE 2
NOTE OFF CHANNEL 0 DURATION: 27.68604ms NOTE D  OCTAVE 2
NOTE ON CHANNEL 0 DURATION: 27.714207ms NOTE D  OCTAVE 2
NOTE OFF CHANNEL 0 DURATION: 27.76878ms NOTE D  OCTAVE 2
NOTE ON CHANNEL 0 DURATION: 27.803988ms NOTE A  OCTAVE 1
NOTE OFF CHANNEL 0 DURATION: 27.860321ms NOTE A  OCTAVE 1
NOTE ON CHANNEL 0 DURATION: 27.883207ms NOTE A  OCTAVE 1
NOTE OFF CHANNEL 0 DURATION: 27.943061ms NOTE A  OCTAVE 1
NOTE ON CHANNEL 0 DURATION: 27.971227ms NOTE A  OCTAVE 1
NOTE OFF CHANNEL 0 DURATION: 28.092696ms NOTE A  OCTAVE 1
NOTE ON CHANNEL 0 DURATION: 28.140227ms NOTE A  OCTAVE 1
NOTE OFF CHANNEL 0 DURATION: 28.270498ms NOTE A  OCTAVE 1
NOTE ON CHANNEL 0 DURATION: 28.309227ms NOTE A  OCTAVE 1
NOTE OFF CHANNEL 0 DURATION: 28.444779ms NOTE A  OCTAVE 1
NOTE ON CHANNEL 0 DURATION: 28.481748ms NOTE G# OCTAVE 1
NOTE OFF CHANNEL 0 DURATION: 28.601456ms NOTE G# OCTAVE 1
NOTE ON CHANNEL 0 DURATION: 28.648987ms NOTE G# OCTAVE 1
NOTE OFF CHANNEL 0 DURATION: 28.786299ms NOTE G# OCTAVE 1
NOTE ON CHANNEL 0 DURATION: 28.817987ms NOTE G# OCTAVE 1
NOTE OFF CHANNEL 0 DURATION: 28.948257ms NOTE G# OCTAVE 1
NOTE ON CHANNEL 0 DURATION: 28.986987ms NOTE G# OCTAVE 1
NOTE OFF CHANNEL 0 DURATION: 29.124299ms NOTE G# OCTAVE 1
NOTE ON CHANNEL 0 DURATION: 29.159507ms NOTE F# OCTAVE 1
NOTE OFF CHANNEL 0 DURATION: 29.277455ms NOTE F# OCTAVE 1
NOTE ON CHANNEL 0 DURATION: 29.326747ms NOTE F# OCTAVE 1
NOTE OFF CHANNEL 0 DURATION: 29.457017ms NOTE F# OCTAVE 1
NOTE ON CHANNEL 0 DURATION: 29.495746ms NOTE F# OCTAVE 1
NOTE OFF CHANNEL 0 DURATION: 29.633059ms NOTE F# OCTAVE 1
NOTE ON CHANNEL 0 DURATION: 29.666507ms NOTE F# OCTAVE 1
NOTE OFF CHANNEL 0 DURATION: 29.798538ms NOTE F# OCTAVE 1
NOTE ON CHANNEL 0 DURATION: 29.835506ms NOTE D  OCTAVE 2
NOTE OFF CHANNEL 0 DURATION: 29.888319ms NOTE D  OCTAVE 2
NOTE ON CHANNEL 0 DURATION: 29.920006ms NOTE D  OCTAVE 2
NOTE OFF CHANNEL 0 DURATION: 29.965777ms NOTE D  OCTAVE 2
NOTE ON CHANNEL 0 DURATION: 30.004506ms NOTE D  OCTAVE 2
NOTE OFF CHANNEL 0 DURATION: 30.046756ms NOTE D  OCTAVE 2
NOTE ON CHANNEL 0 DURATION: 30.090766ms NOTE D  OCTAVE 2
NOTE OFF CHANNEL 0 DURATION: 30.133016ms NOTE D  OCTAVE 2
NOTE ON CHANNEL 0 DURATION: 30.173506ms NOTE D  OCTAVE 2
NOTE OFF CHANNEL 0 DURATION: 30.222798ms NOTE D  OCTAVE 2
NOTE ON CHANNEL 0 DURATION: 30.259766ms NOTE D  OCTAVE 2
NOTE OFF CHANNEL 0 DURATION: 30.309058ms NOTE D  OCTAVE 2
NOTE ON CHANNEL 0 DURATION: 30.344266ms NOTE D  OCTAVE 2
NOTE OFF CHANNEL 0 DURATION: 30.386516ms NOTE D  OCTAVE 2
NOTE ON CHANNEL 0 DURATION: 30.428766ms NOTE D  OCTAVE 2
NOTE OFF CHANNEL 0 DURATION: 30.472776ms NOTE D  OCTAVE 2
NOTE ON CHANNEL 0 DURATION: 30.515026ms NOTE A  OCTAVE 1
NOTE OFF CHANNEL 0 DURATION: 30.57136ms NOTE A  OCTAVE 1
NOTE ON CHANNEL 0 DURATION: 30.599526ms NOTE A  OCTAVE 1
NOTE OFF CHANNEL 0 DURATION: 30.650578ms NOTE A  OCTAVE 1
NOTE ON CHANNEL 0 DURATION: 30.682266ms NOTE A  OCTAVE 1
NOTE OFF CHANNEL 0 DURATION: 30.74388ms NOTE A  OCTAVE 1
NOTE ON CHANNEL 0 DURATION: 31.106526ms NOTE A  OCTAVE 1
NOTE OFF CHANNEL 0 DURATION: 31.171661ms NOTE A  OCTAVE 1
NOTE ON CHANNEL 0 DURATION: 31.192786ms NOTE G# OCTAVE 1
NOTE OFF CHANNEL 0 DURATION: 31.247359ms NOTE G# OCTAVE 1
NOTE ON CHANNEL 0 DURATION: 31.277286ms NOTE G# OCTAVE 1
NOTE OFF CHANNEL 0 DURATION: 31.33538ms NOTE G# OCTAVE 1
NOTE ON CHANNEL 0 DURATION: 31.360025ms NOTE G# OCTAVE 1
NOTE OFF CHANNEL 0 DURATION: 31.435723ms NOTE G# OCTAVE 1
NOTE ON CHANNEL 0 DURATION: 31.784285ms NOTE G# OCTAVE 1
NOTE OFF CHANNEL 0 DURATION: 31.840619ms NOTE G# OCTAVE 1
NOTE ON CHANNEL 0 DURATION: 31.870546ms NOTE F# OCTAVE 1
NOTE OFF CHANNEL 0 DURATION: 31.925119ms NOTE F# OCTAVE 1
NOTE ON CHANNEL 0 DURATION: 31.955046ms NOTE F# OCTAVE 1
NOTE OFF CHANNEL 0 DURATION: 32.006098ms NOTE F# OCTAVE 1
NOTE ON CHANNEL 0 DURATION: 32.037785ms NOTE F# OCTAVE 1
NOTE OFF CHANNEL 0 DURATION: 32.106441ms NOTE F# OCTAVE 1
NOTE ON CHANNEL 0 DURATION: 32.463805ms NOTE D  OCTAVE 2
NOTE OFF CHANNEL 0 DURATION: 32.518378ms NOTE D  OCTAVE 2
NOTE ON CHANNEL 0 DURATION: 32.546545ms NOTE D  OCTAVE 2
NOTE OFF CHANNEL 0 DURATION: 32.608159ms NOTE D  OCTAVE 2
NOTE ON CHANNEL 0 DURATION: 32.632805ms NOTE D  OCTAVE 2
NOTE OFF CHANNEL 0 DURATION: 32.685618ms NOTE D  OCTAVE 2
NOTE ON CHANNEL 0 DURATION: 32.717305ms NOTE D  OCTAVE 2
NOTE OFF CHANNEL 0 DURATION: 32.768357ms NOTE D  OCTAVE 2
NOTE ON CHANNEL 0 DURATION: 32.801805ms NOTE D  OCTAVE 2
NOTE OFF CHANNEL 0 DURATION: 32.854617ms NOTE D  OCTAVE 2
NOTE ON CHANNEL 0 DURATION: 32.886305ms NOTE D  OCTAVE 2
NOTE OFF CHANNEL 0 DURATION: 32.935596ms NOTE D  OCTAVE 2
NOTE ON CHANNEL 0 DURATION: 32.972565ms NOTE F# OCTAVE 2
NOTE OFF CHANNEL 0 DURATION: 33.030659ms NOTE F# OCTAVE 2
NOTE ON CHANNEL 0 DURATION: 33.055305ms NOTE E  OCTAVE 2
NOTE OFF CHANNEL 0 DURATION: 33.115159ms NOTE E  OCTAVE 2
NOTE ON CHANNEL 0 DURATION: 33.141565ms NOTE D  OCTAVE 2
NOTE OFF CHANNEL 0 DURATION: 33.201419ms NOTE D  OCTAVE 2
NOTE ON CHANNEL 0 DURATION: 33.229586ms NOTE A  OCTAVE 1
NOTE OFF CHANNEL 0 DURATION: 33.329929ms NOTE A  OCTAVE 1
NOTE ON CHANNEL 0 DURATION: 33.395065ms NOTE A  OCTAVE 1
NOTE OFF CHANNEL 0 DURATION: 33.505971ms NOTE A  OCTAVE 1
NOTE ON CHANNEL 0 DURATION: 33.565825ms NOTE A  OCTAVE 1
NOTE OFF CHANNEL 0 DURATION: 33.653846ms NOTE A  OCTAVE 1
NOTE ON CHANNEL 0 DURATION: 33.734825ms NOTE A  OCTAVE 1
NOTE OFF CHANNEL 0 DURATION: 33.859814ms NOTE A  OCTAVE 1
NOTE ON CHANNEL 0 DURATION: 33.903825ms NOTE G# OCTAVE 1
NOTE OFF CHANNEL 0 DURATION: 34.032335ms NOTE G# OCTAVE 1
NOTE ON CHANNEL 0 DURATION: 34.072824ms NOTE G# OCTAVE 1
NOTE OFF CHANNEL 0 DURATION: 34.194293ms NOTE G# OCTAVE 1
NOTE ON CHANNEL 0 DURATION: 34.243585ms NOTE G# OCTAVE 1
NOTE OFF CHANNEL 0 DURATION: 34.377376ms NOTE G# OCTAVE 1
NOTE ON CHANNEL 0 DURATION: 34.412584ms NOTE G# OCTAVE 1
NOTE OFF CHANNEL 0 DURATION: 34.541095ms NOTE G# OCTAVE 1
NOTE ON CHANNEL 0 DURATION: 34.581584ms NOTE D  OCTAVE 2
NOTE OFF CHANNEL 0 DURATION: 34.637917ms NOTE D  OCTAVE 2
NOTE ON CHANNEL 0 DURATION: 34.667844ms NOTE D  OCTAVE 2
NOTE OFF CHANNEL 0 DURATION: 34.713615ms NOTE D  OCTAVE 2
NOTE ON CHANNEL 0 DURATION: 34.750584ms NOTE D  OCTAVE 2
NOTE OFF CHANNEL 0 DURATION: 34.798115ms NOTE D  OCTAVE 2
NOTE ON CHANNEL 0 DURATION: 34.836844ms NOTE D  OCTAVE 2
NOTE OFF CHANNEL 0 DURATION: 34.884375ms NOTE D  OCTAVE 2
NOTE ON CHANNEL 0 DURATION: 34.921344ms NOTE D  OCTAVE 2
NOTE OFF CHANNEL 0 DURATION: 34.970636ms NOTE D  OCTAVE 2
NOTE ON CHANNEL 0 DURATION: 35.007604ms NOTE D  OCTAVE 2
NOTE OFF CHANNEL 0 DURATION: 35.053375ms NOTE D  OCTAVE 2
NOTE ON CHANNEL 0 DURATION: 35.090344ms NOTE D  OCTAVE 2
NOTE OFF CHANNEL 0 DURATION: 35.137875ms NOTE D  OCTAVE 2
NOTE ON CHANNEL 0 DURATION: 35.176604ms NOTE D  OCTAVE 2
NOTE OFF CHANNEL 0 DURATION: 35.229417ms NOTE D  OCTAVE 2
NOTE ON CHANNEL 0 DURATION: 35.261104ms NOTE E  OCTAVE 2
NOTE OFF CHANNEL 0 DURATION: 35.315677ms NOTE E  OCTAVE 2
NOTE ON CHANNEL 0 DURATION: 35.345604ms NOTE E  OCTAVE 2
NOTE OFF CHANNEL 0 DURATION: 35.386094ms NOTE E  OCTAVE 2
NOTE ON CHANNEL 0 DURATION: 35.430104ms NOTE E  OCTAVE 2
NOTE OFF CHANNEL 0 DURATION: 35.477635ms NOTE E  OCTAVE 2
NOTE ON CHANNEL 0 DURATION: 35.514604ms NOTE E  OCTAVE 2
NOTE OFF CHANNEL 0 DURATION: 35.562135ms NOTE E  OCTAVE 2
NOTE ON CHANNEL 0 DURATION: 35.599104ms NOTE E  OCTAVE 2
NOTE OFF CHANNEL 0 DURATION: 35.655437ms NOTE E  OCTAVE 2
NOTE ON CHANNEL 0 DURATION: 35.685364ms NOTE E  OCTAVE 2
NOTE OFF CHANNEL 0 DURATION: 35.743458ms NOTE E  OCTAVE 2
NOTE ON CHANNEL 0 DURATION: 35.768104ms NOTE E  OCTAVE 2
NOTE OFF CHANNEL 0 DURATION: 35.822676ms NOTE E  OCTAVE 2
NOTE ON CHANNEL 0 DURATION: 35.854364ms NOTE E  OCTAVE 2
NOTE OFF CHANNEL 0 DURATION: 35.900135ms NOTE E  OCTAVE 2
NOTE ON CHANNEL 0 DURATION: 35.940624ms NOTE B  OCTAVE 1
NOTE OFF CHANNEL 0 DURATION: 35.996958ms NOTE B  OCTAVE 1
NOTE ON CHANNEL 0 DURATION: 36.023364ms NOTE B  OCTAVE 1
NOTE OFF CHANNEL 0 DURATION: 36.077937ms NOTE B  OCTAVE 1
NOTE ON CHANNEL 0 DURATION: 36.107864ms NOTE B  OCTAVE 1
NOTE OFF CHANNEL 0 DURATION: 36.164197ms NOTE B  OCTAVE 1
NOTE ON CHANNEL 0 DURATION: 36.532124ms NOTE E  OCTAVE 2
NOTE OFF CHANNEL 0 DURATION: 36.593738ms NOTE E  OCTAVE 2
NOTE ON CHANNEL 0 DURATION: 36.701123ms NOTE E  OCTAVE 2
NOTE OFF CHANNEL 0 DURATION: 36.760977ms NOTE E  OCTAVE 2
NOTE ON CHANNEL 0 DURATION: 36.871884ms NOTE E  OCTAVE 2
NOTE OFF CHANNEL 0 DURATION: 36.917654ms NOTE E  OCTAVE 2
NOTE ON CHANNEL 0 DURATION: 36.956383ms NOTE E  OCTAVE 2
NOTE OFF CHANNEL 0 DURATION: 37.185237ms NOTE E  OCTAVE 2
NOTE ON CHANNEL 0 DURATION: 37.296143ms NOTE A  OCTAVE 1
NOTE OFF CHANNEL 0 DURATION: 37.354237ms NOTE A  OCTAVE 1
NOTE ON CHANNEL 0 DURATION: 37.380643ms NOTE A  OCTAVE 1
NOTE OFF CHANNEL 0 DURATION: 37.438737ms NOTE A  OCTAVE 1
NOTE ON CHANNEL 0 DURATION: 37.463383ms NOTE A  OCTAVE 1
NOTE OFF CHANNEL 0 DURATION: 37.524997ms NOTE A  OCTAVE 1
NOTE ON CHANNEL 0 DURATION: 37.889403ms NOTE D  OCTAVE 2
NOTE OFF CHANNEL 0 DURATION: 37.949257ms NOTE D  OCTAVE 2
NOTE ON CHANNEL 0 DURATION: 38.058403ms NOTE D  OCTAVE 2
NOTE OFF CHANNEL 0 DURATION: 38.116497ms NOTE D  OCTAVE 2
NOTE ON CHANNEL 0 DURATION: 38.227403ms NOTE D  OCTAVE 2
NOTE OFF CHANNEL 0 DURATION: 38.281976ms NOTE D  OCTAVE 2
NOTE ON CHANNEL 0 DURATION: 38.313663ms NOTE C# OCTAVE 2
NOTE OFF CHANNEL 0 DURATION: 38.572444ms NOTE C# OCTAVE 2
NOTE ON CHANNEL 0 DURATION: 38.653423ms NOTE B  OCTAVE 1
NOTE OFF CHANNEL 0 DURATION: 38.707996ms NOTE B  OCTAVE 1
NOTE ON CHANNEL 0 DURATION: 38.736163ms NOTE B  OCTAVE 1
NOTE OFF CHANNEL 0 DURATION: 38.790735ms NOTE B  OCTAVE 1
NOTE ON CHANNEL 0 DURATION: 38.820663ms NOTE B  OCTAVE 1
NOTE OFF CHANNEL 0 DURATION: 38.875235ms NOTE B  OCTAVE 1
NOTE ON CHANNEL 0 DURATION: 39.244922ms NOTE E  OCTAVE 2
NOTE OFF CHANNEL 0 DURATION: 39.304777ms NOTE E  OCTAVE 2
NOTE ON CHANNEL 0 DURATION: 39.413922ms NOTE E  OCTAVE 2
NOTE OFF CHANNEL 0 DURATION: 39.472016ms NOTE E  OCTAVE 2
NOTE ON CHANNEL 0 DURATION: 39.584682ms NOTE E  OCTAVE 2
NOTE OFF CHANNEL 0 DURATION: 39.630453ms NOTE E  OCTAVE 2
NOTE ON CHANNEL 0 DURATION: 39.669182ms NOTE E  OCTAVE 2
NOTE OFF CHANNEL 0 DURATION: 39.898036ms NOTE E  OCTAVE 2
NOTE ON CHANNEL 0 DURATION: 40.008942ms NOTE A  OCTAVE 1
NOTE OFF CHANNEL 0 DURATION: 40.067036ms NOTE A  OCTAVE 1
NOTE ON CHANNEL 0 DURATION: 40.093442ms NOTE A  OCTAVE 1
NOTE OFF CHANNEL 0 DURATION: 40.151536ms NOTE A  OCTAVE 1
NOTE ON CHANNEL 0 DURATION: 40.176182ms NOTE A  OCTAVE 1
NOTE OFF CHANNEL 0 DURATION: 40.236036ms NOTE A  OCTAVE 1
NOTE ON CHANNEL 0 DURATION: 40.602202ms NOTE D  OCTAVE 2
NOTE OFF CHANNEL 0 DURATION: 40.662056ms NOTE D  OCTAVE 2
NOTE ON CHANNEL 0 DURATION: 40.771202ms NOTE D  OCTAVE 2
NOTE OFF CHANNEL 0 DURATION: 40.829296ms NOTE D  OCTAVE 2
NOTE ON CHANNEL 0 DURATION: 40.940202ms NOTE D  OCTAVE 2
NOTE OFF CHANNEL 0 DURATION: 40.993014ms NOTE D  OCTAVE 2
NOTE ON CHANNEL 0 DURATION: 41.024702ms NOTE C# OCTAVE 2
NOTE OFF CHANNEL 0 DURATION: 41.285243ms NOTE C# OCTAVE 2
NOTE ON CHANNEL 0 DURATION: 41.364462ms NOTE B  OCTAVE 1
NOTE OFF CHANNEL 0 DURATION: 41.420795ms NOTE B  OCTAVE 1
NOTE ON CHANNEL 0 DURATION: 41.448962ms NOTE B  OCTAVE 1
NOTE OFF CHANNEL 0 DURATION: 41.501774ms NOTE B  OCTAVE 1
NOTE ON CHANNEL 0 DURATION: 41.533461ms NOTE B  OCTAVE 1
NOTE OFF CHANNEL 0 DURATION: 41.588034ms NOTE B  OCTAVE 1
NOTE ON CHANNEL 0 DURATION: 41.957721ms NOTE E  OCTAVE 2
NOTE OFF CHANNEL 0 DURATION: 42.017575ms NOTE E  OCTAVE 2
NOTE ON CHANNEL 0 DURATION: 42.126721ms NOTE E  OCTAVE 2
NOTE OFF CHANNEL 0 DURATION: 42.188336ms NOTE E  OCTAVE 2
NOTE ON CHANNEL 0 DURATION: 42.295721ms NOTE E  OCTAVE 2
NOTE OFF CHANNEL 0 DURATION: 42.343252ms NOTE E  OCTAVE 2
NOTE ON CHANNEL 0 DURATION: 42.380221ms NOTE E  OCTAVE 2
NOTE OFF CHANNEL 0 DURATION: 42.610835ms NOTE E  OCTAVE 2
NOTE ON CHANNEL 0 DURATION: 42.719981ms NOTE F# OCTAVE 2
NOTE OFF CHANNEL 0 DURATION: 42.779835ms NOTE F# OCTAVE 2
NOTE ON CHANNEL 0 DURATION: 42.804481ms NOTE F# OCTAVE 2
NOTE OFF CHANNEL 0 DURATION: 42.862574ms NOTE F# OCTAVE 2
NOTE ON CHANNEL 0 DURATION: 42.888981ms NOTE F# OCTAVE 2
NOTE OFF CHANNEL 0 DURATION: 42.948835ms NOTE F# OCTAVE 2
NOTE ON CHANNEL 0 DURATION: 43.313241ms NOTE D  OCTAVE 2
NOTE OFF CHANNEL 0 DURATION: 43.374855ms NOTE D  OCTAVE 2
NOTE ON CHANNEL 0 DURATION: 43.484001ms NOTE D  OCTAVE 2
NOTE OFF CHANNEL 0 DURATION: 43.543855ms NOTE D  OCTAVE 2
NOTE ON CHANNEL 0 DURATION: 43.653001ms NOTE F# OCTAVE 3
NOTE OFF CHANNEL 0 DURATION: 43.726938ms NOTE F# OCTAVE 3
NOTE ON CHANNEL 0 DURATION: 43.737501ms NOTE E  OCTAVE 3
NOTE OFF CHANNEL 0 DURATION: 43.813198ms NOTE E  OCTAVE 3
NOTE ON CHANNEL 0 DURATION: 43.822ms NOTE D  OCTAVE 3
NOTE OFF CHANNEL 0 DURATION: 43.897698ms NOTE D  OCTAVE 3
NOTE ON CHANNEL 0 DURATION: 43.9065ms NOTE C# OCTAVE 3
NOTE OFF CHANNEL 0 DURATION: 43.982198ms NOTE C# OCTAVE 3
NOTE ON CHANNEL 0 DURATION: 43.991ms NOTE B  OCTAVE 2
NOTE OFF CHANNEL 0 DURATION: 44.066698ms NOTE B  OCTAVE 2
NOTE ON CHANNEL 0 DURATION: 44.077261ms NOTE A  OCTAVE 1
NOTE OFF CHANNEL 0 DURATION: 44.135354ms NOTE A  OCTAVE 1
NOTE ON CHANNEL 0 DURATION: 44.16ms NOTE A  OCTAVE 1
NOTE OFF CHANNEL 0 DURATION: 44.212813ms NOTE A  OCTAVE 1
NOTE ON CHANNEL 0 DURATION: 44.2445ms NOTE A  OCTAVE 1
NOTE OFF CHANNEL 0 DURATION: 44.369489ms NOTE A  OCTAVE 1
NOTE ON CHANNEL 0 DURATION: 44.4135ms NOTE A  OCTAVE 1
NOTE OFF CHANNEL 0 DURATION: 44.531448ms NOTE A  OCTAVE 1
NOTE ON CHANNEL 0 DURATION: 44.58426ms NOTE A  OCTAVE 1
NOTE OFF CHANNEL 0 DURATION: 44.702208ms NOTE A  OCTAVE 1
NOTE ON CHANNEL 0 DURATION: 44.75502ms NOTE G# OCTAVE 1
NOTE OFF CHANNEL 0 DURATION: 44.871208ms NOTE G# OCTAVE 1
NOTE ON CHANNEL 0 DURATION: 44.92226ms NOTE G# OCTAVE 1
NOTE OFF CHANNEL 0 DURATION: 45.054291ms NOTE G# OCTAVE 1
NOTE ON CHANNEL 0 DURATION: 45.091259ms NOTE G# OCTAVE 1
NOTE OFF CHANNEL 0 DURATION: 45.210968ms NOTE G# OCTAVE 1
NOTE ON CHANNEL 0 DURATION: 45.26202ms NOTE G# OCTAVE 1
NOTE OFF CHANNEL 0 DURATION: 45.394051ms NOTE G# OCTAVE 1
NOTE ON CHANNEL 0 DURATION: 45.43278ms NOTE F# OCTAVE 1
NOTE OFF CHANNEL 0 DURATION: 45.55953ms NOTE F# OCTAVE 1
NOTE ON CHANNEL 0 DURATION: 45.600019ms NOTE F# OCTAVE 1
NOTE OFF CHANNEL 0 DURATION: 45.723248ms NOTE F# OCTAVE 1
NOTE ON CHANNEL 0 DURATION: 45.769019ms NOTE F# OCTAVE 1
NOTE OFF CHANNEL 0 DURATION: 45.902811ms NOTE F# OCTAVE 1
NOTE ON CHANNEL 0 DURATION: 45.939779ms NOTE F# OCTAVE 1
NOTE OFF CHANNEL 0 DURATION: 46.096456ms NOTE F# OCTAVE 1
NOTE ON CHANNEL 0 DURATION: 46.108779ms NOTE D  OCTAVE 2
NOTE OFF CHANNEL 0 DURATION: 46.159831ms NOTE D  OCTAVE 2
NOTE ON CHANNEL 0 DURATION: 46.195039ms NOTE D  OCTAVE 2
NOTE OFF CHANNEL 0 DURATION: 46.233768ms NOTE D  OCTAVE 2
NOTE ON CHANNEL 0 DURATION: 46.277779ms NOTE D  OCTAVE 2
NOTE OFF CHANNEL 0 DURATION: 46.32355ms NOTE D  OCTAVE 2
NOTE ON CHANNEL 0 DURATION: 46.364039ms NOTE D  OCTAVE 2
NOTE OFF CHANNEL 0 DURATION: 46.41157ms NOTE D  OCTAVE 2
NOTE ON CHANNEL 0 DURATION: 46.448539ms NOTE D  OCTAVE 2
NOTE OFF CHANNEL 0 DURATION: 46.499591ms NOTE D  OCTAVE 2
NOTE ON CHANNEL 0 DURATION: 46.533039ms NOTE D  OCTAVE 2
NOTE OFF CHANNEL 0 DURATION: 46.58057ms NOTE D  OCTAVE 2
NOTE ON CHANNEL 0 DURATION: 46.617539ms NOTE D  OCTAVE 2
NOTE OFF CHANNEL 0 DURATION: 46.672112ms NOTE D  OCTAVE 2
NOTE ON CHANNEL 0 DURATION: 46.703799ms NOTE D  OCTAVE 2
NOTE OFF CHANNEL 0 DURATION: 46.754851ms NOTE D  OCTAVE 2
NOTE ON CHANNEL 0 DURATION: 46.790059ms NOTE A  OCTAVE 1
NOTE OFF CHANNEL 0 DURATION: 46.846393ms NOTE A  OCTAVE 1
NOTE ON CHANNEL 0 DURATION: 46.872799ms NOTE A  OCTAVE 1
NOTE OFF CHANNEL 0 DURATION: 46.929132ms NOTE A  OCTAVE 1
NOTE ON CHANNEL 0 DURATION: 46.957299ms NOTE A  OCTAVE 1
NOTE OFF CHANNEL 0 DURATION: 47.078767ms NOTE A  OCTAVE 1
NOTE ON CHANNEL 0 DURATION: 47.126299ms NOTE A  OCTAVE 1
NOTE OFF CHANNEL 0 DURATION: 47.25833ms NOTE A  OCTAVE 1
NOTE ON CHANNEL 0 DURATION: 47.295298ms NOTE A  OCTAVE 1
NOTE OFF CHANNEL 0 DURATION: 47.42909ms NOTE A  OCTAVE 1
NOTE ON CHANNEL 0 DURATION: 47.467819ms NOTE G# OCTAVE 1
NOTE OFF CHANNEL 0 DURATION: 47.587527ms NOTE G# OCTAVE 1
NOTE ON CHANNEL 0 DURATION: 47.635059ms NOTE G# OCTAVE 1
NOTE OFF CHANNEL 0 DURATION: 47.772371ms NOTE G# OCTAVE 1
NOTE ON CHANNEL 0 DURATION: 47.804058ms NOTE G# OCTAVE 1
NOTE OFF CHANNEL 0 DURATION: 47.934329ms NOTE G# OCTAVE 1
NOTE ON CHANNEL 0 DURATION: 47.973058ms NOTE G# OCTAVE 1
NOTE OFF CHANNEL 0 DURATION: 48.11037ms NOTE G# OCTAVE 1
NOTE ON CHANNEL 0 DURATION: 48.145579ms NOTE F# OCTAVE 1
NOTE OFF CHANNEL 0 DURATION: 48.263527ms NOTE F# OCTAVE 1
NOTE ON CHANNEL 0 DURATION: 48.312818ms NOTE F# OCTAVE 1
NOTE OFF CHANNEL 0 DURATION: 48.444849ms NOTE F# OCTAVE 1
NOTE ON CHANNEL 0 DURATION: 48.481818ms NOTE F# OCTAVE 1
NOTE OFF CHANNEL 0 DURATION: 48.622651ms NOTE F# OCTAVE 1
NOTE ON CHANNEL 0 DURATION: 48.652578ms NOTE F# OCTAVE 1
NOTE OFF CHANNEL 0 DURATION: 48.784609ms NOTE F# OCTAVE 1
NOTE ON CHANNEL 0 DURATION: 48.821578ms NOTE D  OCTAVE 2
NOTE OFF CHANNEL 0 DURATION: 48.87439ms NOTE D  OCTAVE 2
NOTE ON CHANNEL 0 DURATION: 48.906078ms NOTE D  OCTAVE 2
NOTE OFF CHANNEL 0 DURATION: 48.953609ms NOTE D  OCTAVE 2
NOTE ON CHANNEL 0 DURATION: 48.990578ms NOTE D  OCTAVE 2
NOTE OFF CHANNEL 0 DURATION: 49.034588ms NOTE D  OCTAVE 2
NOTE ON CHANNEL 0 DURATION: 49.076838ms NOTE D  OCTAVE 2
NOTE OFF CHANNEL 0 DURATION: 49.119088ms NOTE D  OCTAVE 2
NOTE ON CHANNEL 0 DURATION: 49.159578ms NOTE D  OCTAVE 2
NOTE OFF CHANNEL 0 DURATION: 49.208869ms NOTE D  OCTAVE 2
NOTE ON CHANNEL 0 DURATION: 49.245838ms NOTE D  OCTAVE 2
NOTE OFF CHANNEL 0 DURATION: 49.295129ms NOTE D  OCTAVE 2
NOTE ON CHANNEL 0 DURATION: 49.330338ms NOTE D  OCTAVE 2
NOTE OFF CHANNEL 0 DURATION: 49.374348ms NOTE D  OCTAVE 2
NOTE ON CHANNEL 0 DURATION: 49.414838ms NOTE D  OCTAVE 2
NOTE OFF CHANNEL 0 DURATION: 49.457088ms NOTE D  OCTAVE 2
NOTE ON CHANNEL 0 DURATION: 49.501098ms NOTE A  OCTAVE 1
NOTE OFF CHANNEL 0 DURATION: 49.557431ms NOTE A  OCTAVE 1
NOTE ON CHANNEL 0 DURATION: 49.585598ms NOTE A  OCTAVE 1
NOTE OFF CHANNEL 0 DURATION: 49.63841ms NOTE A  OCTAVE 1
NOTE ON CHANNEL 0 DURATION: 49.668337ms NOTE A  OCTAVE 1
NOTE OFF CHANNEL 0 DURATION: 49.729952ms NOTE A  OCTAVE 1
NOTE ON CHANNEL 0 DURATION: 50.092597ms NOTE A  OCTAVE 1
NOTE OFF CHANNEL 0 DURATION: 50.157733ms NOTE A  OCTAVE 1
NOTE ON CHANNEL 0 DURATION: 50.178858ms NOTE G# OCTAVE 1
NOTE OFF CHANNEL 0 DURATION: 50.23343ms NOTE G# OCTAVE 1
NOTE ON CHANNEL 0 DURATION: 50.263358ms NOTE G# OCTAVE 1
NOTE OFF CHANNEL 0 DURATION: 50.321451ms NOTE G# OCTAVE 1
NOTE ON CHANNEL 0 DURATION: 50.346097ms NOTE G# OCTAVE 1
NOTE OFF CHANNEL 0 DURATION: 50.421795ms NOTE G# OCTAVE 1
NOTE ON CHANNEL 0 DURATION: 50.772117ms NOTE G# OCTAVE 1
NOTE OFF CHANNEL 0 DURATION: 50.82493ms NOTE G# OCTAVE 1
NOTE ON CHANNEL 0 DURATION: 50.856617ms NOTE F# OCTAVE 1
NOTE OFF CHANNEL 0 DURATION: 50.91119ms NOTE F# OCTAVE 1
NOTE ON CHANNEL 0 DURATION: 50.941117ms NOTE F# OCTAVE 1
NOTE OFF CHANNEL 0 DURATION: 50.99569ms NOTE F# OCTAVE 1
NOTE ON CHANNEL 0 DURATION: 51.023857ms NOTE F# OCTAVE 1
NOTE OFF CHANNEL 0 DURATION: 51.092513ms NOTE F# OCTAVE 1
NOTE ON CHANNEL 0 DURATION: 51.449877ms NOTE D  OCTAVE 2
NOTE OFF CHANNEL 0 DURATION: 51.50445ms NOTE D  OCTAVE 2
NOTE ON CHANNEL 0 DURATION: 51.532616ms NOTE D  OCTAVE 2
NOTE OFF CHANNEL 0 DURATION: 51.594231ms NOTE D  OCTAVE 2
NOTE ON CHANNEL 0 DURATION: 51.618877ms NOTE D  OCTAVE 2
NOTE OFF CHANNEL 0 DURATION: 51.671689ms NOTE D  OCTAVE 2
NOTE ON CHANNEL 0 DURATION: 51.703377ms NOTE D  OCTAVE 2
NOTE OFF CHANNEL 0 DURATION: 51.754429ms NOTE D  OCTAVE 2
NOTE ON CHANNEL 0 DURATION: 51.789637ms NOTE D  OCTAVE 2
NOTE OFF CHANNEL 0 DURATION: 51.840689ms NOTE D  OCTAVE 2
NOTE ON CHANNEL 0 DURATION: 51.872376ms NOTE D  OCTAVE 2
NOTE OFF CHANNEL 0 DURATION: 51.921668ms NOTE D  OCTAVE 2
NOTE ON CHANNEL 0 DURATION: 51.958637ms NOTE F# OCTAVE 2
NOTE OFF CHANNEL 0 DURATION: 52.01673ms NOTE F# OCTAVE 2
NOTE ON CHANNEL 0 DURATION: 52.043137ms NOTE E  OCTAVE 2
NOTE OFF CHANNEL 0 DURATION: 52.10123ms NOTE E  OCTAVE 2
NOTE ON CHANNEL 0 DURATION: 52.127637ms NOTE D  OCTAVE 2
NOTE OFF CHANNEL 0 DURATION: 52.187491ms NOTE D  OCTAVE 2
NOTE ON CHANNEL 0 DURATION: 52.215657ms NOTE A  OCTAVE 1
NOTE OFF CHANNEL 0 DURATION: 52.316001ms NOTE A  OCTAVE 1
NOTE ON CHANNEL 0 DURATION: 52.381136ms NOTE A  OCTAVE 1
NOTE OFF CHANNEL 0 DURATION: 52.495563ms NOTE A  OCTAVE 1
NOTE ON CHANNEL 0 DURATION: 52.551897ms NOTE A  OCTAVE 1
NOTE OFF CHANNEL 0 DURATION: 52.643438ms NOTE A  OCTAVE 1
NOTE ON CHANNEL 0 DURATION: 52.720896ms NOTE A  OCTAVE 1
NOTE OFF CHANNEL 0 DURATION: 52.845886ms NOTE A  OCTAVE 1
NOTE ON CHANNEL 0 DURATION: 52.889896ms NOTE G# OCTAVE 1
NOTE OFF CHANNEL 0 DURATION: 53.018406ms NOTE G# OCTAVE 1
NOTE ON CHANNEL 0 DURATION: 53.058896ms NOTE G# OCTAVE 1
NOTE OFF CHANNEL 0 DURATION: 53.180365ms NOTE G# OCTAVE 1
NOTE ON CHANNEL 0 DURATION: 53.229656ms NOTE G# OCTAVE 1
NOTE OFF CHANNEL 0 DURATION: 53.363448ms NOTE G# OCTAVE 1
NOTE ON CHANNEL 0 DURATION: 53.398656ms NOTE G# OCTAVE 1
NOTE OFF CHANNEL 0 DURATION: 53.527166ms NOTE G# OCTAVE 1
NOTE ON CHANNEL 0 DURATION: 53.567656ms NOTE D  OCTAVE 2
NOTE OFF CHANNEL 0 DURATION: 53.625749ms NOTE D  OCTAVE 2
NOTE ON CHANNEL 0 DURATION: 53.653916ms NOTE D  OCTAVE 2
NOTE OFF CHANNEL 0 DURATION: 53.699687ms NOTE D  OCTAVE 2
NOTE ON CHANNEL 0 DURATION: 53.736656ms NOTE D  OCTAVE 2
NOTE OFF CHANNEL 0 DURATION: 53.784187ms NOTE D  OCTAVE 2
NOTE ON CHANNEL 0 DURATION: 53.822916ms NOTE D  OCTAVE 2
NOTE OFF CHANNEL 0 DURATION: 53.870447ms NOTE D  OCTAVE 2
NOTE ON CHANNEL 0 DURATION: 53.907416ms NOTE D  OCTAVE 2
NOTE OFF CHANNEL 0 DURATION: 53.958468ms NOTE D  OCTAVE 2
NOTE ON CHANNEL 0 DURATION: 53.993676ms NOTE D  OCTAVE 2
NOTE OFF CHANNEL 0 DURATION: 54.039447ms NOTE D  OCTAVE 2
NOTE ON CHANNEL 0 DURATION: 54.076416ms NOTE D  OCTAVE 2
NOTE OFF CHANNEL 0 DURATION: 54.123947ms NOTE D  OCTAVE 2
NOTE ON CHANNEL 0 DURATION: 54.162676ms NOTE D  OCTAVE 2
NOTE OFF CHANNEL 0 DURATION: 54.215488ms NOTE D  OCTAVE 2
NOTE ON CHANNEL 0 DURATION: 54.247176ms NOTE E  OCTAVE 2
NOTE OFF CHANNEL 0 DURATION: 54.305269ms NOTE E  OCTAVE 2
NOTE ON CHANNEL 0 DURATION: 54.331676ms NOTE E  OCTAVE 2
NOTE OFF CHANNEL 0 DURATION: 54.372165ms NOTE E  OCTAVE 2
NOTE ON CHANNEL 0 DURATION: 54.416176ms NOTE E  OCTAVE 2
NOTE OFF CHANNEL 0 DURATION: 54.463707ms NOTE E  OCTAVE 2
NOTE ON CHANNEL 0 DURATION: 54.500675ms NOTE E  OCTAVE 2
NOTE OFF CHANNEL 0 DURATION: 54.548207ms NOTE E  OCTAVE 2
NOTE ON CHANNEL 0 DURATION: 54.585175ms NOTE E  OCTAVE 2
NOTE OFF CHANNEL 0 DURATION: 54.643269ms NOTE E  OCTAVE 2
NOTE ON CHANNEL 0 DURATION: 54.671436ms NOTE E  OCTAVE 2
NOTE OFF CHANNEL 0 DURATION: 54.729529ms NOTE E  OCTAVE 2
NOTE ON CHANNEL 0 DURATION: 54.754175ms NOTE E  OCTAVE 2
NOTE OFF CHANNEL 0 DURATION: 54.808748ms NOTE E  OCTAVE 2
NOTE ON CHANNEL 0 DURATION: 54.840436ms NOTE E  OCTAVE 2
NOTE OFF CHANNEL 0 DURATION: 54.886206ms NOTE E  OCTAVE 2
NOTE ON CHANNEL 0 DURATION: 54.924935ms NOTE C# OCTAVE 2
NOTE OFF CHANNEL 0 DURATION: 54.979508ms NOTE C# OCTAVE 2
NOTE ON CHANNEL 0 DURATION: 55.264695ms NOTE C# OCTAVE 1
NOTE OFF CHANNEL 0 DURATION: 55.319268ms NOTE C# OCTAVE 1
NOTE ON CHANNEL 0 DURATION: 55.433695ms NOTE G# OCTAVE 1
NOTE OFF CHANNEL 0 DURATION: 55.484747ms NOTE G# OCTAVE 1
NOTE ON CHANNEL 0 DURATION: 55.518195ms NOTE C# OCTAVE 1
NOTE OFF CHANNEL 0 DURATION: 55.555164ms NOTE C# OCTAVE 1
NOTE ON CHANNEL 0 DURATION: 55.602695ms NOTE C# OCTAVE 2
NOTE OFF CHANNEL 0 DURATION: 55.653747ms NOTE C# OCTAVE 2
NOTE ON CHANNEL 0 DURATION: 55.687195ms NOTE C# OCTAVE 2
NOTE OFF CHANNEL 0 DURATION: 55.734726ms NOTE C# OCTAVE 2
NOTE ON CHANNEL 0 DURATION: 55.857955ms NOTE C# OCTAVE 1
NOTE OFF CHANNEL 0 DURATION: 55.909007ms NOTE C# OCTAVE 1
NOTE ON CHANNEL 0 DURATION: 56.111455ms NOTE C# OCTAVE 2
NOTE OFF CHANNEL 0 DURATION: 56.164267ms NOTE C# OCTAVE 2
NOTE ON CHANNEL 0 DURATION: 56.195955ms NOTE C# OCTAVE 1
NOTE OFF CHANNEL 0 DURATION: 56.231163ms NOTE C# OCTAVE 1
NOTE ON CHANNEL 0 DURATION: 56.280455ms NOTE G  OCTAVE 2
NOTE OFF CHANNEL 0 DURATION: 56.336788ms NOTE G  OCTAVE 2
NOTE ON CHANNEL 0 DURATION: 56.620215ms NOTE G  OCTAVE 1
NOTE OFF CHANNEL 0 DURATION: 56.674788ms NOTE G  OCTAVE 1
NOTE ON CHANNEL 0 DURATION: 56.789214ms NOTE D  OCTAVE 2
NOTE OFF CHANNEL 0 DURATION: 56.840267ms NOTE D  OCTAVE 2
NOTE ON CHANNEL 0 DURATION: 56.873714ms NOTE G  OCTAVE 1
NOTE OFF CHANNEL 0 DURATION: 56.912444ms NOTE G  OCTAVE 1
NOTE ON CHANNEL 0 DURATION: 56.958214ms NOTE G  OCTAVE 2
NOTE OFF CHANNEL 0 DURATION: 57.009266ms NOTE G  OCTAVE 2
NOTE ON CHANNEL 0 DURATION: 57.044475ms NOTE G  OCTAVE 2
NOTE OFF CHANNEL 0 DURATION: 57.090245ms NOTE G  OCTAVE 2
NOTE ON CHANNEL 0 DURATION: 57.213474ms NOTE G  OCTAVE 1
NOTE OFF CHANNEL 0 DURATION: 57.264526ms NOTE G  OCTAVE 1
NOTE ON CHANNEL 0 DURATION: 57.466974ms NOTE G  OCTAVE 2
NOTE OFF CHANNEL 0 DURATION: 57.519787ms NOTE G  OCTAVE 2
NOTE ON CHANNEL 0 DURATION: 57.553234ms NOTE G  OCTAVE 1
NOTE OFF CHANNEL 0 DURATION: 57.586682ms NOTE G  OCTAVE 1
NOTE ON CHANNEL 0 DURATION: 57.637734ms NOTE C# OCTAVE 2
NOTE OFF CHANNEL 0 DURATION: 57.692307ms NOTE C# OCTAVE 2
NOTE ON CHANNEL 0 DURATION: 57.977494ms NOTE C# OCTAVE 1
NOTE OFF CHANNEL 0 DURATION: 58.032067ms NOTE C# OCTAVE 1
NOTE ON CHANNEL 0 DURATION: 58.146494ms NOTE G# OCTAVE 1
NOTE OFF CHANNEL 0 DURATION: 58.195786ms NOTE G# OCTAVE 1
NOTE ON CHANNEL 0 DURATION: 58.230994ms NOTE C# OCTAVE 1
NOTE OFF CHANNEL 0 DURATION: 58.267963ms NOTE C# OCTAVE 1
NOTE ON CHANNEL 0 DURATION: 58.315494ms NOTE C# OCTAVE 2
NOTE OFF CHANNEL 0 DURATION: 58.366546ms NOTE C# OCTAVE 2
NOTE ON CHANNEL 0 DURATION: 58.399994ms NOTE C# OCTAVE 2
NOTE OFF CHANNEL 0 DURATION: 58.447525ms NOTE C# OCTAVE 2
NOTE ON CHANNEL 0 DURATION: 58.570754ms NOTE C# OCTAVE 1
NOTE OFF CHANNEL 0 DURATION: 58.621806ms NOTE C# OCTAVE 1
NOTE ON CHANNEL 0 DURATION: 58.824254ms NOTE C# OCTAVE 2
NOTE OFF CHANNEL 0 DURATION: 58.877066ms NOTE C# OCTAVE 2
NOTE ON CHANNEL 0 DURATION: 58.908754ms NOTE C# OCTAVE 1
NOTE OFF CHANNEL 0 DURATION: 58.943962ms NOTE C# OCTAVE 1
NOTE ON CHANNEL 0 DURATION: 58.996774ms NOTE G  OCTAVE 2
NOTE OFF CHANNEL 0 DURATION: 59.047826ms NOTE G  OCTAVE 2
NOTE ON CHANNEL 0 DURATION: 59.333014ms NOTE G  OCTAVE 1
NOTE OFF CHANNEL 0 DURATION: 59.387586ms NOTE G  OCTAVE 1
NOTE ON CHANNEL 0 DURATION: 59.502013ms NOTE D  OCTAVE 2
NOTE OFF CHANNEL 0 DURATION: 59.553065ms NOTE D  OCTAVE 2
NOTE ON CHANNEL 0 DURATION: 59.588274ms NOTE G  OCTAVE 1
NOTE OFF CHANNEL 0 DURATION: 59.623482ms NOTE G  OCTAVE 1
NOTE ON CHANNEL 0 DURATION: 59.671013ms NOTE G  OCTAVE 2
NOTE OFF CHANNEL 0 DURATION: 59.722065ms NOTE G  OCTAVE 2
NOTE ON CHANNEL 0 DURATION: 59.757274ms NOTE G  OCTAVE 2
NOTE OFF CHANNEL 0 DURATION: 59.803044ms NOTE G  OCTAVE 2
NOTE ON CHANNEL 0 DURATION: 59.926273ms NOTE G  OCTAVE 1
NOTE OFF CHANNEL 0 DURATION: 59.977325ms NOTE G  OCTAVE 1
NOTE ON CHANNEL 0 DURATION: 60.179773ms NOTE G  OCTAVE 2
NOTE OFF CHANNEL 0 DURATION: 60.232585ms NOTE G  OCTAVE 2
NOTE ON CHANNEL 0 DURATION: 60.264273ms NOTE G  OCTAVE 1
NOTE OFF CHANNEL 0 DURATION: 60.299481ms NOTE G  OCTAVE 1
NOTE ON CHANNEL 0 DURATION: 60.354054ms NOTE B  OCTAVE 2
NOTE OFF CHANNEL 0 DURATION: 60.405106ms NOTE B  OCTAVE 2
NOTE ON CHANNEL 0 DURATION: 60.688533ms NOTE B  OCTAVE 1
NOTE OFF CHANNEL 0 DURATION: 60.743106ms NOTE B  OCTAVE 1
NOTE ON CHANNEL 0 DURATION: 60.857533ms NOTE F# OCTAVE 2
NOTE OFF CHANNEL 0 DURATION: 60.908585ms NOTE F# OCTAVE 2
NOTE ON CHANNEL 0 DURATION: 60.943793ms NOTE B  OCTAVE 1
NOTE OFF CHANNEL 0 DURATION: 60.980762ms NOTE B  OCTAVE 1
NOTE ON CHANNEL 0 DURATION: 61.026532ms NOTE B  OCTAVE 2
NOTE OFF CHANNEL 0 DURATION: 61.077584ms NOTE B  OCTAVE 2
NOTE ON CHANNEL 0 DURATION: 61.112793ms NOTE B  OCTAVE 2
NOTE OFF CHANNEL 0 DURATION: 61.162084ms NOTE B  OCTAVE 2
NOTE ON CHANNEL 0 DURATION: 61.281793ms NOTE B  OCTAVE 1
NOTE OFF CHANNEL 0 DURATION: 61.332845ms NOTE B  OCTAVE 1
NOTE ON CHANNEL 0 DURATION: 61.535292ms NOTE B  OCTAVE 2
NOTE OFF CHANNEL 0 DURATION: 61.589865ms NOTE B  OCTAVE 2
NOTE ON CHANNEL 0 DURATION: 61.621553ms NOTE B  OCTAVE 1
NOTE OFF CHANNEL 0 DURATION: 61.656761ms NOTE B  OCTAVE 1
NOTE ON CHANNEL 0 DURATION: 61.709573ms NOTE E  OCTAVE 2
NOTE OFF CHANNEL 0 DURATION: 61.760625ms NOTE E  OCTAVE 2
NOTE ON CHANNEL 0 DURATION: 62.045813ms NOTE E  OCTAVE 1
NOTE OFF CHANNEL 0 DURATION: 62.100385ms NOTE E  OCTAVE 1
NOTE ON CHANNEL 0 DURATION: 62.214812ms NOTE B  OCTAVE 1
NOTE OFF CHANNEL 0 DURATION: 62.264104ms NOTE B  OCTAVE 1
NOTE ON CHANNEL 0 DURATION: 62.299312ms NOTE E  OCTAVE 1
NOTE OFF CHANNEL 0 DURATION: 62.336281ms NOTE E  OCTAVE 1
NOTE ON CHANNEL 0 DURATION: 62.383812ms NOTE E  OCTAVE 2
NOTE OFF CHANNEL 0 DURATION: 62.41726ms NOTE E  OCTAVE 2
NOTE ON CHANNEL 0 DURATION: 62.468312ms NOTE E  OCTAVE 2
NOTE OFF CHANNEL 0 DURATION: 62.50352ms NOTE E  OCTAVE 2
NOTE ON CHANNEL 0 DURATION: 62.552812ms NOTE E  OCTAVE 1
NOTE OFF CHANNEL 0 DURATION: 62.665478ms NOTE E  OCTAVE 1
NOTE ON CHANNEL 0 DURATION: 62.723572ms NOTE E  OCTAVE 1
NOTE OFF CHANNEL 0 DURATION: 62.836239ms NOTE E  OCTAVE 1
NOTE ON CHANNEL 0 DURATION: 62.892572ms NOTE E  OCTAVE 1
NOTE OFF CHANNEL 0 DURATION: 63.005238ms NOTE E  OCTAVE 1
NOTE ON CHANNEL 0 DURATION: 65.776131ms NOTE B  OCTAVE 1
NOTE OFF CHANNEL 0 DURATION: 65.832464ms NOTE B  OCTAVE 1
NOTE ON CHANNEL 0 DURATION: 65.860631ms NOTE B  OCTAVE 1
NOTE OFF CHANNEL 0 DURATION: 65.915204ms NOTE B  OCTAVE 1
NOTE ON CHANNEL 0 DURATION: 65.945131ms NOTE B  OCTAVE 1
NOTE OFF CHANNEL 0 DURATION: 65.999704ms NOTE B  OCTAVE 1
NOTE ON CHANNEL 0 DURATION: 66.369391ms NOTE E  OCTAVE 2
NOTE OFF CHANNEL 0 DURATION: 66.429245ms NOTE E  OCTAVE 2
NOTE ON CHANNEL 0 DURATION: 66.538391ms NOTE E  OCTAVE 2
NOTE OFF CHANNEL 0 DURATION: 66.598245ms NOTE E  OCTAVE 2
NOTE ON CHANNEL 0 DURATION: 66.70739ms NOTE E  OCTAVE 2
NOTE OFF CHANNEL 0 DURATION: 66.754922ms NOTE E  OCTAVE 2
NOTE ON CHANNEL 0 DURATION: 66.793651ms NOTE E  OCTAVE 2
NOTE OFF CHANNEL 0 DURATION: 67.020744ms NOTE E  OCTAVE 2
NOTE ON CHANNEL 0 DURATION: 67.133411ms NOTE A  OCTAVE 1
NOTE OFF CHANNEL 0 DURATION: 67.189744ms NOTE A  OCTAVE 1
NOTE ON CHANNEL 0 DURATION: 67.21615ms NOTE A  OCTAVE 1
NOTE OFF CHANNEL 0 DURATION: 67.274244ms NOTE A  OCTAVE 1
NOTE ON CHANNEL 0 DURATION: 67.30065ms NOTE A  OCTAVE 1
NOTE OFF CHANNEL 0 DURATION: 67.360504ms NOTE A  OCTAVE 1
NOTE ON CHANNEL 0 DURATION: 67.72491ms NOTE D  OCTAVE 2
NOTE OFF CHANNEL 0 DURATION: 67.784764ms NOTE D  OCTAVE 2
NOTE ON CHANNEL 0 DURATION: 67.89391ms NOTE D  OCTAVE 2
NOTE OFF CHANNEL 0 DURATION: 67.953764ms NOTE D  OCTAVE 2
NOTE ON CHANNEL 0 DURATION: 68.06291ms NOTE D  OCTAVE 2
NOTE OFF CHANNEL 0 DURATION: 68.119243ms NOTE D  OCTAVE 2
NOTE ON CHANNEL 0 DURATION: 68.14917ms NOTE C# OCTAVE 2
NOTE OFF CHANNEL 0 DURATION: 68.409711ms NOTE C# OCTAVE 2
NOTE ON CHANNEL 0 DURATION: 68.48893ms NOTE B  OCTAVE 1
NOTE OFF CHANNEL 0 DURATION: 68.547024ms NOTE B  OCTAVE 1
NOTE ON CHANNEL 0 DURATION: 68.571669ms NOTE B  OCTAVE 1
NOTE OFF CHANNEL 0 DURATION: 68.628003ms NOTE B  OCTAVE 1
NOTE ON CHANNEL 0 DURATION: 68.656169ms NOTE B  OCTAVE 1
NOTE OFF CHANNEL 0 DURATION: 68.710742ms NOTE B  OCTAVE 1
NOTE ON CHANNEL 0 DURATION: 69.080429ms NOTE E  OCTAVE 2
NOTE OFF CHANNEL 0 DURATION: 69.140283ms NOTE E  OCTAVE 2
NOTE ON CHANNEL 0 DURATION: 69.25119ms NOTE E  OCTAVE 2
NOTE OFF CHANNEL 0 DURATION: 69.311044ms NOTE E  OCTAVE 2
NOTE ON CHANNEL 0 DURATION: 69.420189ms NOTE E  OCTAVE 2
NOTE OFF CHANNEL 0 DURATION: 69.467721ms NOTE E  OCTAVE 2
NOTE ON CHANNEL 0 DURATION: 69.504689ms NOTE E  OCTAVE 2
NOTE OFF CHANNEL 0 DURATION: 69.733543ms NOTE E  OCTAVE 2
NOTE ON CHANNEL 0 DURATION: 69.844449ms NOTE A  OCTAVE 1
NOTE OFF CHANNEL 0 DURATION: 69.904303ms NOTE A  OCTAVE 1
NOTE ON CHANNEL 0 DURATION: 69.928949ms NOTE A  OCTAVE 1
NOTE OFF CHANNEL 0 DURATION: 69.987043ms NOTE A  OCTAVE 1
NOTE ON CHANNEL 0 DURATION: 70.011689ms NOTE A  OCTAVE 1
NOTE OFF CHANNEL 0 DURATION: 70.071543ms NOTE A  OCTAVE 1
NOTE ON CHANNEL 0 DURATION: 70.437709ms NOTE D  OCTAVE 2
NOTE OFF CHANNEL 0 DURATION: 70.499324ms NOTE D  OCTAVE 2
NOTE ON CHANNEL 0 DURATION: 70.606709ms NOTE D  OCTAVE 2
NOTE OFF CHANNEL 0 DURATION: 70.666563ms NOTE D  OCTAVE 2
NOTE ON CHANNEL 0 DURATION: 70.775709ms NOTE D  OCTAVE 2
NOTE OFF CHANNEL 0 DURATION: 70.832042ms NOTE D  OCTAVE 2
NOTE ON CHANNEL 0 DURATION: 70.860208ms NOTE C# OCTAVE 2
NOTE OFF CHANNEL 0 DURATION: 71.12251ms NOTE C# OCTAVE 2
NOTE ON CHANNEL 0 DURATION: 71.201729ms NOTE B  OCTAVE 1
NOTE OFF CHANNEL 0 DURATION: 71.259823ms NOTE B  OCTAVE 1
NOTE ON CHANNEL 0 DURATION: 71.284468ms NOTE B  OCTAVE 1
NOTE OFF CHANNEL 0 DURATION: 71.340802ms NOTE B  OCTAVE 1
NOTE ON CHANNEL 0 DURATION: 71.368968ms NOTE B  OCTAVE 1
NOTE OFF CHANNEL 0 DURATION: 71.423541ms NOTE B  OCTAVE 1
NOTE ON CHANNEL 0 DURATION: 71.793228ms NOTE E  OCTAVE 2
NOTE OFF CHANNEL 0 DURATION: 71.854843ms NOTE E  OCTAVE 2
NOTE ON CHANNEL 0 DURATION: 71.962228ms NOTE E  OCTAVE 2
NOTE OFF CHANNEL 0 DURATION: 72.022082ms NOTE E  OCTAVE 2
NOTE ON CHANNEL 0 DURATION: 72.132988ms NOTE E  OCTAVE 2
NOTE OFF CHANNEL 0 DURATION: 72.180519ms NOTE E  OCTAVE 2
NOTE ON CHANNEL 0 DURATION: 72.217488ms NOTE E  OCTAVE 2
NOTE OFF CHANNEL 0 DURATION: 72.446342ms NOTE E  OCTAVE 2
NOTE ON CHANNEL 0 DURATION: 72.557248ms NOTE B  OCTAVE 1
NOTE OFF CHANNEL 0 DURATION: 72.615342ms NOTE B  OCTAVE 1
NOTE ON CHANNEL 0 DURATION: 72.639988ms NOTE B  OCTAVE 1
NOTE OFF CHANNEL 0 DURATION: 72.698081ms NOTE B  OCTAVE 1
NOTE ON CHANNEL 0 DURATION: 72.724488ms NOTE B  OCTAVE 1
NOTE OFF CHANNEL 0 DURATION: 72.784342ms NOTE B  OCTAVE 1
NOTE ON CHANNEL 0 DURATION: 73.148747ms NOTE E  OCTAVE 2
NOTE OFF CHANNEL 0 DURATION: 73.212122ms NOTE E  OCTAVE 2
NOTE ON CHANNEL 0 DURATION: 73.317747ms NOTE E  OCTAVE 2
NOTE OFF CHANNEL 0 DURATION: 73.379362ms NOTE E  OCTAVE 2
NOTE ON CHANNEL 0 DURATION: 73.488508ms NOTE E  OCTAVE 2
NOTE OFF CHANNEL 0 DURATION: 73.54308ms NOTE E  OCTAVE 2
NOTE ON CHANNEL 0 DURATION: 73.573007ms NOTE E  OCTAVE 2
NOTE OFF CHANNEL 0 DURATION: 73.835309ms NOTE E  OCTAVE 2
NOTE ON CHANNEL 0 DURATION: 73.912767ms NOTE B  OCTAVE 1
NOTE OFF CHANNEL 0 DURATION: 73.970861ms NOTE B  OCTAVE 1
NOTE ON CHANNEL 0 DURATION: 73.995507ms NOTE B  OCTAVE 1
NOTE OFF CHANNEL 0 DURATION: 74.05184ms NOTE B  OCTAVE 1
NOTE ON CHANNEL 0 DURATION: 74.080007ms NOTE B  OCTAVE 1
NOTE OFF CHANNEL 0 DURATION: 74.13634ms NOTE B  OCTAVE 1
NOTE ON CHANNEL 0 DURATION: 74.504267ms NOTE E  OCTAVE 2
NOTE OFF CHANNEL 0 DURATION: 74.567642ms NOTE E  OCTAVE 2
NOTE ON CHANNEL 0 DURATION: 74.673267ms NOTE E  OCTAVE 2
NOTE OFF CHANNEL 0 DURATION: 74.734881ms NOTE E  OCTAVE 2
NOTE ON CHANNEL 0 DURATION: 74.844027ms NOTE E  OCTAVE 2
NOTE OFF CHANNEL 0 DURATION: 74.893318ms NOTE E  OCTAVE 2
NOTE ON CHANNEL 0 DURATION: 74.928527ms NOTE E  OCTAVE 2
NOTE OFF CHANNEL 0 DURATION: 75.157381ms NOTE E  OCTAVE 2
NOTE ON CHANNEL 0 DURATION: 75.268287ms NOTE A  OCTAVE 1
NOTE OFF CHANNEL 0 DURATION: 75.32638ms NOTE A  OCTAVE 1
NOTE ON CHANNEL 0 DURATION: 75.352787ms NOTE A  OCTAVE 1
NOTE OFF CHANNEL 0 DURATION: 75.41088ms NOTE A  OCTAVE 1
NOTE ON CHANNEL 0 DURATION: 75.435526ms NOTE A  OCTAVE 1
NOTE OFF CHANNEL 0 DURATION: 75.497141ms NOTE A  OCTAVE 1
NOTE ON CHANNEL 0 DURATION: 75.861546ms NOTE D  OCTAVE 2
NOTE OFF CHANNEL 0 DURATION: 75.924921ms NOTE D  OCTAVE 2
NOTE ON CHANNEL 0 DURATION: 76.030546ms NOTE D  OCTAVE 2
NOTE OFF CHANNEL 0 DURATION: 76.0904ms NOTE D  OCTAVE 2
NOTE ON CHANNEL 0 DURATION: 76.199546ms NOTE D  OCTAVE 2
NOTE OFF CHANNEL 0 DURATION: 76.255879ms NOTE D  OCTAVE 2
NOTE ON CHANNEL 0 DURATION: 76.285806ms NOTE C# OCTAVE 2
NOTE OFF CHANNEL 0 DURATION: 76.548108ms NOTE C# OCTAVE 2
NOTE ON CHANNEL 0 DURATION: 76.625566ms NOTE B  OCTAVE 1
NOTE OFF CHANNEL 0 DURATION: 76.68366ms NOTE B  OCTAVE 1
NOTE ON CHANNEL 0 DURATION: 76.708306ms NOTE B  OCTAVE 1
NOTE OFF CHANNEL 0 DURATION: 76.764639ms NOTE B  OCTAVE 1
NOTE ON CHANNEL 0 DURATION: 76.792806ms NOTE B  OCTAVE 1
NOTE OFF CHANNEL 0 DURATION: 76.847379ms NOTE B  OCTAVE 1
NOTE ON CHANNEL 0 DURATION: 77.217066ms NOTE E  OCTAVE 2
NOTE OFF CHANNEL 0 DURATION: 77.280441ms NOTE E  OCTAVE 2
NOTE ON CHANNEL 0 DURATION: 77.386065ms NOTE E  OCTAVE 2
NOTE OFF CHANNEL 0 DURATION: 77.44768ms NOTE E  OCTAVE 2
NOTE ON CHANNEL 0 DURATION: 77.555065ms NOTE E  OCTAVE 2
NOTE OFF CHANNEL 0 DURATION: 77.604357ms NOTE E  OCTAVE 2
NOTE ON CHANNEL 0 DURATION: 77.641326ms NOTE E  OCTAVE 2
NOTE OFF CHANNEL 0 DURATION: 77.870179ms NOTE E  OCTAVE 2
NOTE ON CHANNEL 0 DURATION: 77.981086ms NOTE A  OCTAVE 1
NOTE OFF CHANNEL 0 DURATION: 78.039179ms NOTE A  OCTAVE 1
NOTE ON CHANNEL 0 DURATION: 78.065586ms NOTE A  OCTAVE 1
NOTE OFF CHANNEL 0 DURATION: 78.123679ms NOTE A  OCTAVE 1
NOTE ON CHANNEL 0 DURATION: 78.148325ms NOTE A  OCTAVE 1
NOTE OFF CHANNEL 0 DURATION: 78.208179ms NOTE A  OCTAVE 1
NOTE ON CHANNEL 0 DURATION: 78.574345ms NOTE D  OCTAVE 2
NOTE OFF CHANNEL 0 DURATION: 78.63596ms NOTE D  OCTAVE 2
NOTE ON CHANNEL 0 DURATION: 78.743345ms NOTE D  OCTAVE 2
NOTE OFF CHANNEL 0 DURATION: 78.803199ms NOTE D  OCTAVE 2
NOTE ON CHANNEL 0 DURATION: 78.912345ms NOTE D  OCTAVE 2
NOTE OFF CHANNEL 0 DURATION: 78.968678ms NOTE D  OCTAVE 2
NOTE ON CHANNEL 0 DURATION: 78.998605ms NOTE C# OCTAVE 2
NOTE OFF CHANNEL 0 DURATION: 79.259147ms NOTE C# OCTAVE 2
NOTE ON CHANNEL 0 DURATION: 79.336605ms NOTE B  OCTAVE 1
NOTE OFF CHANNEL 0 DURATION: 79.396459ms NOTE B  OCTAVE 1
NOTE ON CHANNEL 0 DURATION: 79.421105ms NOTE B  OCTAVE 1
NOTE OFF CHANNEL 0 DURATION: 79.477438ms NOTE B  OCTAVE 1
NOTE ON CHANNEL 0 DURATION: 79.505605ms NOTE B  OCTAVE 1
NOTE OFF CHANNEL 0 DURATION: 79.560178ms NOTE B  OCTAVE 1
NOTE ON CHANNEL 0 DURATION: 79.929865ms NOTE E  OCTAVE 2
NOTE OFF CHANNEL 0 DURATION: 79.99324ms NOTE E  OCTAVE 2
NOTE ON CHANNEL 0 DURATION: 80.098864ms NOTE E  OCTAVE 2
NOTE OFF CHANNEL 0 DURATION: 80.160479ms NOTE E  OCTAVE 2
NOTE ON CHANNEL 0 DURATION: 80.267864ms NOTE E  OCTAVE 2
NOTE OFF CHANNEL 0 DURATION: 80.317156ms NOTE E  OCTAVE 2
NOTE ON CHANNEL 0 DURATION: 80.354125ms NOTE E  OCTAVE 2
NOTE OFF CHANNEL 0 DURATION: 80.582978ms NOTE E  OCTAVE 2
NOTE ON CHANNEL 0 DURATION: 80.693885ms NOTE F# OCTAVE 2
NOTE OFF CHANNEL 0 DURATION: 80.751978ms NOTE F# OCTAVE 2
NOTE ON CHANNEL 0 DURATION: 80.776624ms NOTE F# OCTAVE 2
NOTE OFF CHANNEL 0 DURATION: 80.834718ms NOTE F# OCTAVE 2
NOTE ON CHANNEL 0 DURATION: 80.861124ms NOTE F# OCTAVE 2
NOTE OFF CHANNEL 0 DURATION: 80.920978ms NOTE F# OCTAVE 2
NOTE ON CHANNEL 0 DURATION: 81.285384ms NOTE D  OCTAVE 2
NOTE OFF CHANNEL 0 DURATION: 81.348759ms NOTE D  OCTAVE 2
NOTE ON CHANNEL 0 DURATION: 81.456144ms NOTE D  OCTAVE 2
NOTE OFF CHANNEL 0 DURATION: 81.515998ms NOTE D  OCTAVE 2
NOTE ON CHANNEL 0 DURATION: 81.625144ms NOTE F# OCTAVE 3
NOTE OFF CHANNEL 0 DURATION: 81.702602ms NOTE F# OCTAVE 3
NOTE ON CHANNEL 0 DURATION: 81.709644ms NOTE E  OCTAVE 3
NOTE OFF CHANNEL 0 DURATION: 81.785342ms NOTE E  OCTAVE 3
NOTE ON CHANNEL 0 DURATION: 81.794144ms NOTE D  OCTAVE 3
NOTE OFF CHANNEL 0 DURATION: 81.871602ms NOTE D  OCTAVE 3
NOTE ON CHANNEL 0 DURATION: 81.878644ms NOTE C# OCTAVE 3
NOTE OFF CHANNEL 0 DURATION: 81.954341ms NOTE C# OCTAVE 3
NOTE ON CHANNEL 0 DURATION: 81.963143ms NOTE B  OCTAVE 2
NOTE OFF CHANNEL 0 DURATION: 82.042362ms NOTE B  OCTAVE 2
NOTE ON CHANNEL 0 DURATION: 82.049404ms NOTE A  OCTAVE 1
NOTE OFF CHANNEL 0 DURATION: 82.107497ms NOTE A  OCTAVE 1
NOTE ON CHANNEL 0 DURATION: 82.132143ms NOTE A  OCTAVE 1
NOTE OFF CHANNEL 0 DURATION: 82.184956ms NOTE A  OCTAVE 1
NOTE ON CHANNEL 0 DURATION: 82.216643ms NOTE A  OCTAVE 1
NOTE OFF CHANNEL 0 DURATION: 82.341633ms NOTE A  OCTAVE 1
NOTE ON CHANNEL 0 DURATION: 82.385643ms NOTE A  OCTAVE 1
NOTE OFF CHANNEL 0 DURATION: 82.507112ms NOTE A  OCTAVE 1
NOTE ON CHANNEL 0 DURATION: 82.556403ms NOTE A  OCTAVE 1
NOTE OFF CHANNEL 0 DURATION: 82.674351ms NOTE A  OCTAVE 1
NOTE ON CHANNEL 0 DURATION: 82.728924ms NOTE G# OCTAVE 1
NOTE OFF CHANNEL 0 DURATION: 82.843351ms NOTE G# OCTAVE 1
NOTE ON CHANNEL 0 DURATION: 82.897924ms NOTE G# OCTAVE 1
NOTE OFF CHANNEL 0 DURATION: 83.026434ms NOTE G# OCTAVE 1
NOTE ON CHANNEL 0 DURATION: 83.066923ms NOTE G# OCTAVE 1
NOTE OFF CHANNEL 0 DURATION: 83.184871ms NOTE G# OCTAVE 1
NOTE ON CHANNEL 0 DURATION: 83.235923ms NOTE G# OCTAVE 1
NOTE OFF CHANNEL 0 DURATION: 83.367954ms NOTE G# OCTAVE 1
NOTE ON CHANNEL 0 DURATION: 83.408444ms NOTE F# OCTAVE 1
NOTE OFF CHANNEL 0 DURATION: 83.531673ms NOTE F# OCTAVE 1
NOTE ON CHANNEL 0 DURATION: 83.575683ms NOTE F# OCTAVE 1
NOTE OFF CHANNEL 0 DURATION: 83.695391ms NOTE F# OCTAVE 1
NOTE ON CHANNEL 0 DURATION: 83.744683ms NOTE F# OCTAVE 1
NOTE OFF CHANNEL 0 DURATION: 83.876714ms NOTE F# OCTAVE 1
NOTE ON CHANNEL 0 DURATION: 83.913683ms NOTE F# OCTAVE 1
NOTE OFF CHANNEL 0 DURATION: 84.068599ms NOTE F# OCTAVE 1
NOTE ON CHANNEL 0 DURATION: 84.084443ms NOTE D  OCTAVE 2
NOTE OFF CHANNEL 0 DURATION: 84.131974ms NOTE D  OCTAVE 2
NOTE ON CHANNEL 0 DURATION: 84.167183ms NOTE D  OCTAVE 2
NOTE OFF CHANNEL 0 DURATION: 84.209433ms NOTE D  OCTAVE 2
NOTE ON CHANNEL 0 DURATION: 84.253443ms NOTE D  OCTAVE 2
NOTE OFF CHANNEL 0 DURATION: 84.295693ms NOTE D  OCTAVE 2
NOTE ON CHANNEL 0 DURATION: 84.336182ms NOTE D  OCTAVE 2
NOTE OFF CHANNEL 0 DURATION: 84.383714ms NOTE D  OCTAVE 2
NOTE ON CHANNEL 0 DURATION: 84.422443ms NOTE D  OCTAVE 2
NOTE OFF CHANNEL 0 DURATION: 84.473495ms NOTE D  OCTAVE 2
NOTE ON CHANNEL 0 DURATION: 84.505182ms NOTE D  OCTAVE 2
NOTE OFF CHANNEL 0 DURATION: 84.554474ms NOTE D  OCTAVE 2
NOTE ON CHANNEL 0 DURATION: 84.593203ms NOTE D  OCTAVE 2
NOTE OFF CHANNEL 0 DURATION: 84.644255ms NOTE D  OCTAVE 2
NOTE ON CHANNEL 0 DURATION: 84.674182ms NOTE D  OCTAVE 2
NOTE OFF CHANNEL 0 DURATION: 84.726994ms NOTE D  OCTAVE 2
NOTE ON CHANNEL 0 DURATION: 84.763963ms NOTE A  OCTAVE 1
NOTE OFF CHANNEL 0 DURATION: 84.820296ms NOTE A  OCTAVE 1
NOTE ON CHANNEL 0 DURATION: 84.844942ms NOTE A  OCTAVE 1
NOTE OFF CHANNEL 0 DURATION: 84.901275ms NOTE A  OCTAVE 1
NOTE ON CHANNEL 0 DURATION: 84.931202ms NOTE A  OCTAVE 1
NOTE OFF CHANNEL 0 DURATION: 85.052671ms NOTE A  OCTAVE 1
NOTE ON CHANNEL 0 DURATION: 85.100202ms NOTE A  OCTAVE 1
NOTE OFF CHANNEL 0 DURATION: 85.230473ms NOTE A  OCTAVE 1
NOTE ON CHANNEL 0 DURATION: 85.270963ms NOTE A  OCTAVE 1
NOTE OFF CHANNEL 0 DURATION: 85.402994ms NOTE A  OCTAVE 1
NOTE ON CHANNEL 0 DURATION: 85.441723ms NOTE G# OCTAVE 1
NOTE OFF CHANNEL 0 DURATION: 85.559671ms NOTE G# OCTAVE 1
NOTE ON CHANNEL 0 DURATION: 85.608962ms NOTE G# OCTAVE 1
NOTE OFF CHANNEL 0 DURATION: 85.744514ms NOTE G# OCTAVE 1
NOTE ON CHANNEL 0 DURATION: 85.777962ms NOTE G# OCTAVE 1
NOTE OFF CHANNEL 0 DURATION: 85.906472ms NOTE G# OCTAVE 1
NOTE ON CHANNEL 0 DURATION: 85.948722ms NOTE G# OCTAVE 1
NOTE OFF CHANNEL 0 DURATION: 86.082514ms NOTE G# OCTAVE 1
NOTE ON CHANNEL 0 DURATION: 86.119482ms NOTE F# OCTAVE 1
NOTE OFF CHANNEL 0 DURATION: 86.239191ms NOTE F# OCTAVE 1
NOTE ON CHANNEL 0 DURATION: 86.286722ms NOTE F# OCTAVE 1
NOTE OFF CHANNEL 0 DURATION: 86.416992ms NOTE F# OCTAVE 1
NOTE ON CHANNEL 0 DURATION: 86.457482ms NOTE F# OCTAVE 1
NOTE OFF CHANNEL 0 DURATION: 86.594794ms NOTE F# OCTAVE 1
NOTE ON CHANNEL 0 DURATION: 86.626482ms NOTE F# OCTAVE 1
NOTE OFF CHANNEL 0 DURATION: 86.758513ms NOTE F# OCTAVE 1
NOTE ON CHANNEL 0 DURATION: 86.797242ms NOTE D  OCTAVE 2
NOTE OFF CHANNEL 0 DURATION: 86.848294ms NOTE D  OCTAVE 2
NOTE ON CHANNEL 0 DURATION: 86.878221ms NOTE D  OCTAVE 2
NOTE OFF CHANNEL 0 DURATION: 86.925752ms NOTE D  OCTAVE 2
NOTE ON CHANNEL 0 DURATION: 86.966242ms NOTE D  OCTAVE 2
NOTE OFF CHANNEL 0 DURATION: 87.006731ms NOTE D  OCTAVE 2
NOTE ON CHANNEL 0 DURATION: 87.048981ms NOTE D  OCTAVE 2
NOTE OFF CHANNEL 0 DURATION: 87.092992ms NOTE D  OCTAVE 2
NOTE ON CHANNEL 0 DURATION: 87.135242ms NOTE D  OCTAVE 2
NOTE OFF CHANNEL 0 DURATION: 87.181012ms NOTE D  OCTAVE 2
NOTE ON CHANNEL 0 DURATION: 87.217981ms NOTE D  OCTAVE 2
NOTE OFF CHANNEL 0 DURATION: 87.267273ms NOTE D  OCTAVE 2
NOTE ON CHANNEL 0 DURATION: 87.304241ms NOTE D  OCTAVE 2
NOTE OFF CHANNEL 0 DURATION: 87.346491ms NOTE D  OCTAVE 2
NOTE ON CHANNEL 0 DURATION: 87.386981ms NOTE D  OCTAVE 2
NOTE OFF CHANNEL 0 DURATION: 87.432752ms NOTE D  OCTAVE 2
NOTE ON CHANNEL 0 DURATION: 87.476762ms NOTE A  OCTAVE 1
NOTE OFF CHANNEL 0 DURATION: 87.533095ms NOTE A  OCTAVE 1
NOTE ON CHANNEL 0 DURATION: 87.555981ms NOTE A  OCTAVE 1
NOTE OFF CHANNEL 0 DURATION: 87.610554ms NOTE A  OCTAVE 1
NOTE ON CHANNEL 0 DURATION: 87.642241ms NOTE A  OCTAVE 1
NOTE OFF CHANNEL 0 DURATION: 87.702095ms NOTE A  OCTAVE 1
NOTE ON CHANNEL 0 DURATION: 88.064741ms NOTE A  OCTAVE 1
NOTE OFF CHANNEL 0 DURATION: 88.129876ms NOTE A  OCTAVE 1
NOTE ON CHANNEL 0 DURATION: 88.152761ms NOTE G# OCTAVE 1
NOTE OFF CHANNEL 0 DURATION: 88.205574ms NOTE G# OCTAVE 1
NOTE ON CHANNEL 0 DURATION: 88.235501ms NOTE G# OCTAVE 1
NOTE OFF CHANNEL 0 DURATION: 88.293594ms NOTE G# OCTAVE 1
NOTE ON CHANNEL 0 DURATION: 88.321761ms NOTE G# OCTAVE 1
NOTE OFF CHANNEL 0 DURATION: 88.393938ms NOTE G# OCTAVE 1
NOTE ON CHANNEL 0 DURATION: 88.744261ms NOTE G# OCTAVE 1
NOTE OFF CHANNEL 0 DURATION: 88.800594ms NOTE G# OCTAVE 1
NOTE ON CHANNEL 0 DURATION: 88.832281ms NOTE F# OCTAVE 1
NOTE OFF CHANNEL 0 DURATION: 88.883333ms NOTE F# OCTAVE 1
NOTE ON CHANNEL 0 DURATION: 88.91326ms NOTE F# OCTAVE 1
NOTE OFF CHANNEL 0 DURATION: 88.967833ms NOTE F# OCTAVE 1
NOTE ON CHANNEL 0 DURATION: 88.999521ms NOTE F# OCTAVE 1
NOTE OFF CHANNEL 0 DURATION: 89.064656ms NOTE F# OCTAVE 1
NOTE ON CHANNEL 0 DURATION: 89.42202ms NOTE D  OCTAVE 2
NOTE OFF CHANNEL 0 DURATION: 89.478353ms NOTE D  OCTAVE 2
NOTE ON CHANNEL 0 DURATION: 89.50828ms NOTE D  OCTAVE 2
NOTE OFF CHANNEL 0 DURATION: 89.566374ms NOTE D  OCTAVE 2
NOTE ON CHANNEL 0 DURATION: 89.59102ms NOTE D  OCTAVE 2
NOTE OFF CHANNEL 0 DURATION: 89.643832ms NOTE D  OCTAVE 2
NOTE ON CHANNEL 0 DURATION: 89.67728ms NOTE D  OCTAVE 2
NOTE OFF CHANNEL 0 DURATION: 89.728332ms NOTE D  OCTAVE 2
NOTE ON CHANNEL 0 DURATION: 89.76002ms NOTE D  OCTAVE 2
NOTE OFF CHANNEL 0 DURATION: 89.812832ms NOTE D  OCTAVE 2
NOTE ON CHANNEL 0 DURATION: 89.84628ms NOTE D  OCTAVE 2
NOTE OFF CHANNEL 0 DURATION: 89.893811ms NOTE D  OCTAVE 2
NOTE ON CHANNEL 0 DURATION: 89.93078ms NOTE F# OCTAVE 2
NOTE OFF CHANNEL 0 DURATION: 89.988874ms NOTE F# OCTAVE 2
NOTE ON CHANNEL 0 DURATION: 90.01704ms NOTE E  OCTAVE 2
NOTE OFF CHANNEL 0 DURATION: 90.075134ms NOTE E  OCTAVE 2
NOTE ON CHANNEL 0 DURATION: 90.09978ms NOTE D  OCTAVE 2
NOTE OFF CHANNEL 0 DURATION: 90.159634ms NOTE D  OCTAVE 2
NOTE ON CHANNEL 0 DURATION: 90.191321ms NOTE A  OCTAVE 1
NOTE OFF CHANNEL 0 DURATION: 90.244134ms NOTE A  OCTAVE 1
NOTE ON CHANNEL 0 DURATION: 90.26878ms NOTE A  OCTAVE 1
NOTE OFF CHANNEL 0 DURATION: 90.321592ms NOTE A  OCTAVE 1
NOTE ON CHANNEL 0 DURATION: 90.3568ms NOTE A  OCTAVE 1
NOTE OFF CHANNEL 0 DURATION: 90.480029ms NOTE A  OCTAVE 1
NOTE ON CHANNEL 0 DURATION: 90.5258ms NOTE A  OCTAVE 1
NOTE OFF CHANNEL 0 DURATION: 90.643748ms NOTE A  OCTAVE 1
NOTE ON CHANNEL 0 DURATION: 90.6948ms NOTE A  OCTAVE 1
NOTE OFF CHANNEL 0 DURATION: 90.810987ms NOTE A  OCTAVE 1
NOTE ON CHANNEL 0 DURATION: 90.86556ms NOTE G# OCTAVE 1
NOTE OFF CHANNEL 0 DURATION: 90.979987ms NOTE G# OCTAVE 1
NOTE ON CHANNEL 0 DURATION: 91.03456ms NOTE G# OCTAVE 1
NOTE OFF CHANNEL 0 DURATION: 91.164831ms NOTE G# OCTAVE 1
NOTE ON CHANNEL 0 DURATION: 91.20356ms NOTE G# OCTAVE 1
NOTE OFF CHANNEL 0 DURATION: 91.321508ms NOTE G# OCTAVE 1
NOTE ON CHANNEL 0 DURATION: 91.37256ms NOTE G# OCTAVE 1
NOTE OFF CHANNEL 0 DURATION: 91.504591ms NOTE G# OCTAVE 1
NOTE ON CHANNEL 0 DURATION: 91.54508ms NOTE F# OCTAVE 1
NOTE OFF CHANNEL 0 DURATION: 91.67007ms NOTE F# OCTAVE 1
NOTE ON CHANNEL 0 DURATION: 91.71232ms NOTE F# OCTAVE 1
NOTE OFF CHANNEL 0 DURATION: 91.832028ms NOTE F# OCTAVE 1
NOTE ON CHANNEL 0 DURATION: 91.881319ms NOTE F# OCTAVE 1
NOTE OFF CHANNEL 0 DURATION: 92.01335ms NOTE F# OCTAVE 1
NOTE ON CHANNEL 0 DURATION: 92.050319ms NOTE F# OCTAVE 1
NOTE OFF CHANNEL 0 DURATION: 92.205236ms NOTE F# OCTAVE 1
NOTE ON CHANNEL 0 DURATION: 92.221079ms NOTE D  OCTAVE 2
NOTE OFF CHANNEL 0 DURATION: 92.270371ms NOTE D  OCTAVE 2
NOTE ON CHANNEL 0 DURATION: 92.303819ms NOTE D  OCTAVE 2
NOTE OFF CHANNEL 0 DURATION: 92.346069ms NOTE D  OCTAVE 2
NOTE ON CHANNEL 0 DURATION: 92.390079ms NOTE D  OCTAVE 2
NOTE OFF CHANNEL 0 DURATION: 92.432329ms NOTE D  OCTAVE 2
NOTE ON CHANNEL 0 DURATION: 92.472819ms NOTE D  OCTAVE 2
NOTE OFF CHANNEL 0 DURATION: 92.52035ms NOTE D  OCTAVE 2
NOTE ON CHANNEL 0 DURATION: 92.559079ms NOTE D  OCTAVE 2
NOTE OFF CHANNEL 0 DURATION: 92.610131ms NOTE D  OCTAVE 2
NOTE ON CHANNEL 0 DURATION: 92.641819ms NOTE D  OCTAVE 2
NOTE OFF CHANNEL 0 DURATION: 92.692871ms NOTE D  OCTAVE 2
NOTE ON CHANNEL 0 DURATION: 92.729839ms NOTE D  OCTAVE 2
NOTE OFF CHANNEL 0 DURATION: 92.782652ms NOTE D  OCTAVE 2
NOTE ON CHANNEL 0 DURATION: 92.812579ms NOTE D  OCTAVE 2
NOTE OFF CHANNEL 0 DURATION: 92.863631ms NOTE D  OCTAVE 2
NOTE ON CHANNEL 0 DURATION: 92.900599ms NOTE A  OCTAVE 1
NOTE OFF CHANNEL 0 DURATION: 92.956933ms NOTE A  OCTAVE 1
NOTE ON CHANNEL 0 DURATION: 92.981579ms NOTE A  OCTAVE 1
NOTE OFF CHANNEL 0 DURATION: 93.041433ms NOTE A  OCTAVE 1
NOTE ON CHANNEL 0 DURATION: 93.067839ms NOTE A  OCTAVE 1
NOTE OFF CHANNEL 0 DURATION: 93.189307ms NOTE A  OCTAVE 1
NOTE ON CHANNEL 0 DURATION: 93.236839ms NOTE A  OCTAVE 1
NOTE OFF CHANNEL 0 DURATION: 93.367109ms NOTE A  OCTAVE 1
NOTE ON CHANNEL 0 DURATION: 93.407599ms NOTE A  OCTAVE 1
NOTE OFF CHANNEL 0 DURATION: 93.53963ms NOTE A  OCTAVE 1
NOTE ON CHANNEL 0 DURATION: 93.578359ms NOTE G# OCTAVE 1
NOTE OFF CHANNEL 0 DURATION: 93.698067ms NOTE G# OCTAVE 1
NOTE ON CHANNEL 0 DURATION: 93.745598ms NOTE G# OCTAVE 1
NOTE OFF CHANNEL 0 DURATION: 93.88115ms NOTE G# OCTAVE 1
NOTE ON CHANNEL 0 DURATION: 93.916359ms NOTE G# OCTAVE 1
NOTE OFF CHANNEL 0 DURATION: 94.043109ms NOTE G# OCTAVE 1
NOTE ON CHANNEL 0 DURATION: 94.085358ms NOTE G# OCTAVE 1
NOTE OFF CHANNEL 0 DURATION: 94.22091ms NOTE G# OCTAVE 1
NOTE ON CHANNEL 0 DURATION: 94.256119ms NOTE F# OCTAVE 1
NOTE OFF CHANNEL 0 DURATION: 94.375827ms NOTE F# OCTAVE 1
NOTE ON CHANNEL 0 DURATION: 94.425119ms NOTE F# OCTAVE 1
NOTE OFF CHANNEL 0 DURATION: 94.553629ms NOTE F# OCTAVE 1
NOTE ON CHANNEL 0 DURATION: 94.594118ms NOTE F# OCTAVE 1
NOTE OFF CHANNEL 0 DURATION: 94.731431ms NOTE F# OCTAVE 1
NOTE ON CHANNEL 0 DURATION: 94.763118ms NOTE F# OCTAVE 1
NOTE OFF CHANNEL 0 DURATION: 94.895149ms NOTE F# OCTAVE 1
NOTE ON CHANNEL 0 DURATION: 94.933878ms NOTE D  OCTAVE 2
NOTE OFF CHANNEL 0 DURATION: 94.986691ms NOTE D  OCTAVE 2
NOTE ON CHANNEL 0 DURATION: 95.014857ms NOTE D  OCTAVE 2
NOTE OFF CHANNEL 0 DURATION: 95.062389ms NOTE D  OCTAVE 2
NOTE ON CHANNEL 0 DURATION: 95.102878ms NOTE D  OCTAVE 2
NOTE OFF CHANNEL 0 DURATION: 95.145128ms NOTE D  OCTAVE 2
NOTE ON CHANNEL 0 DURATION: 95.185618ms NOTE D  OCTAVE 2
NOTE OFF CHANNEL 0 DURATION: 95.229628ms NOTE D  OCTAVE 2
NOTE ON CHANNEL 0 DURATION: 95.271878ms NOTE D  OCTAVE 2
NOTE OFF CHANNEL 0 DURATION: 95.317649ms NOTE D  OCTAVE 2
NOTE ON CHANNEL 0 DURATION: 95.354617ms NOTE D  OCTAVE 2
NOTE OFF CHANNEL 0 DURATION: 95.40743ms NOTE D  OCTAVE 2
NOTE ON CHANNEL 0 DURATION: 95.440878ms NOTE D  OCTAVE 2
NOTE OFF CHANNEL 0 DURATION: 95.483128ms NOTE D  OCTAVE 2
NOTE ON CHANNEL 0 DURATION: 95.523617ms NOTE D  OCTAVE 2
NOTE OFF CHANNEL 0 DURATION: 95.569388ms NOTE D  OCTAVE 2
NOTE ON CHANNEL 0 DURATION: 95.613398ms NOTE A  OCTAVE 1
NOTE OFF CHANNEL 0 DURATION: 95.671492ms NOTE A  OCTAVE 1
NOTE ON CHANNEL 0 DURATION: 95.694377ms NOTE A  OCTAVE 1
NOTE OFF CHANNEL 0 DURATION: 95.745429ms NOTE A  OCTAVE 1
NOTE ON CHANNEL 0 DURATION: 95.780638ms NOTE A  OCTAVE 1
NOTE OFF CHANNEL 0 DURATION: 95.903867ms NOTE A  OCTAVE 1
NOTE ON CHANNEL 0 DURATION: 95.949638ms NOTE A  OCTAVE 1
NOTE OFF CHANNEL 0 DURATION: 96.067585ms NOTE A  OCTAVE 1
NOTE ON CHANNEL 0 DURATION: 96.120398ms NOTE A  OCTAVE 1
NOTE OFF CHANNEL 0 DURATION: 96.234825ms NOTE A  OCTAVE 1
NOTE ON CHANNEL 0 DURATION: 96.289398ms NOTE G# OCTAVE 1
NOTE OFF CHANNEL 0 DURATION: 96.405585ms NOTE G# OCTAVE 1
NOTE ON CHANNEL 0 DURATION: 96.458397ms NOTE G# OCTAVE 1
NOTE OFF CHANNEL 0 DURATION: 96.588668ms NOTE G# OCTAVE 1
NOTE ON CHANNEL 0 DURATION: 96.627397ms NOTE G# OCTAVE 1
NOTE OFF CHANNEL 0 DURATION: 96.747105ms NOTE G# OCTAVE 1
NOTE ON CHANNEL 0 DURATION: 96.798157ms NOTE G# OCTAVE 1
NOTE OFF CHANNEL 0 DURATION: 96.930188ms NOTE G# OCTAVE 1
NOTE ON CHANNEL 0 DURATION: 96.968918ms NOTE F# OCTAVE 1
NOTE OFF CHANNEL 0 DURATION: 97.095667ms NOTE F# OCTAVE 1
NOTE ON CHANNEL 0 DURATION: 97.136157ms NOTE F# OCTAVE 1
NOTE OFF CHANNEL 0 DURATION: 97.257626ms NOTE F# OCTAVE 1
NOTE ON CHANNEL 0 DURATION: 97.305157ms NOTE F# OCTAVE 1
NOTE OFF CHANNEL 0 DURATION: 97.438948ms NOTE F# OCTAVE 1
NOTE ON CHANNEL 0 DURATION: 97.475917ms NOTE F# OCTAVE 1
NOTE OFF CHANNEL 0 DURATION: 97.629073ms NOTE F# OCTAVE 1
NOTE ON CHANNEL 0 DURATION: 97.644917ms NOTE D  OCTAVE 2
NOTE OFF CHANNEL 0 DURATION: 97.694208ms NOTE D  OCTAVE 2
NOTE ON CHANNEL 0 DURATION: 97.727656ms NOTE D  OCTAVE 2
NOTE OFF CHANNEL 0 DURATION: 97.769906ms NOTE D  OCTAVE 2
NOTE ON CHANNEL 0 DURATION: 97.815677ms NOTE D  OCTAVE 2
NOTE OFF CHANNEL 0 DURATION: 97.856167ms NOTE D  OCTAVE 2
NOTE ON CHANNEL 0 DURATION: 97.898417ms NOTE D  OCTAVE 2
NOTE OFF CHANNEL 0 DURATION: 97.944187ms NOTE D  OCTAVE 2
NOTE ON CHANNEL 0 DURATION: 97.984677ms NOTE D  OCTAVE 2
NOTE OFF CHANNEL 0 DURATION: 98.035729ms NOTE D  OCTAVE 2
NOTE ON CHANNEL 0 DURATION: 98.067416ms NOTE D  OCTAVE 2
NOTE OFF CHANNEL 0 DURATION: 98.116708ms NOTE D  OCTAVE 2
NOTE ON CHANNEL 0 DURATION: 98.153677ms NOTE D  OCTAVE 2
NOTE OFF CHANNEL 0 DURATION: 98.20825ms NOTE D  OCTAVE 2
NOTE ON CHANNEL 0 DURATION: 98.236416ms NOTE D  OCTAVE 2
NOTE OFF CHANNEL 0 DURATION: 98.289229ms NOTE D  OCTAVE 2
NOTE ON CHANNEL 0 DURATION: 98.326197ms NOTE A  OCTAVE 1
NOTE OFF CHANNEL 0 DURATION: 98.384291ms NOTE A  OCTAVE 1
NOTE ON CHANNEL 0 DURATION: 98.405416ms NOTE A  OCTAVE 1
NOTE OFF CHANNEL 0 DURATION: 98.458228ms NOTE A  OCTAVE 1
NOTE ON CHANNEL 0 DURATION: 98.493437ms NOTE A  OCTAVE 1
NOTE OFF CHANNEL 0 DURATION: 98.616666ms NOTE A  OCTAVE 1
NOTE ON CHANNEL 0 DURATION: 98.662436ms NOTE A  OCTAVE 1
NOTE OFF CHANNEL 0 DURATION: 98.780384ms NOTE A  OCTAVE 1
NOTE ON CHANNEL 0 DURATION: 98.831436ms NOTE A  OCTAVE 1
NOTE OFF CHANNEL 0 DURATION: 98.947624ms NOTE A  OCTAVE 1
NOTE ON CHANNEL 0 DURATION: 99.002196ms NOTE G# OCTAVE 1
NOTE OFF CHANNEL 0 DURATION: 99.116623ms NOTE G# OCTAVE 1
NOTE ON CHANNEL 0 DURATION: 99.171196ms NOTE G# OCTAVE 1
NOTE OFF CHANNEL 0 DURATION: 99.301467ms NOTE G# OCTAVE 1
NOTE ON CHANNEL 0 DURATION: 99.340196ms NOTE G# OCTAVE 1
NOTE OFF CHANNEL 0 DURATION: 99.458144ms NOTE G# OCTAVE 1
NOTE ON CHANNEL 0 DURATION: 99.510956ms NOTE G# OCTAVE 1
NOTE OFF CHANNEL 0 DURATION: 99.642987ms NOTE G# OCTAVE 1
NOTE ON CHANNEL 0 DURATION: 99.681717ms NOTE F# OCTAVE 1
NOTE OFF CHANNEL 0 DURATION: 99.808466ms NOTE F# OCTAVE 1
NOTE ON CHANNEL 0 DURATION: 99.848956ms NOTE F# OCTAVE 1
NOTE OFF CHANNEL 0 DURATION: 99.970425ms NOTE F# OCTAVE 1
NOTE ON CHANNEL 0 DURATION: 100.017956ms NOTE F# OCTAVE 1
NOTE OFF CHANNEL 0 DURATION: 100.151747ms NOTE F# OCTAVE 1
NOTE ON CHANNEL 0 DURATION: 100.188716ms NOTE F# OCTAVE 1
NOTE OFF CHANNEL 0 DURATION: 100.341872ms NOTE F# OCTAVE 1
NOTE ON CHANNEL 0 DURATION: 100.357716ms NOTE D  OCTAVE 2
NOTE OFF CHANNEL 0 DURATION: 100.407007ms NOTE D  OCTAVE 2
NOTE ON CHANNEL 0 DURATION: 100.440455ms NOTE D  OCTAVE 2
NOTE OFF CHANNEL 0 DURATION: 100.482705ms NOTE D  OCTAVE 2
NOTE ON CHANNEL 0 DURATION: 100.526716ms NOTE D  OCTAVE 2
NOTE OFF CHANNEL 0 DURATION: 100.568966ms NOTE D  OCTAVE 2
NOTE ON CHANNEL 0 DURATION: 100.609455ms NOTE D  OCTAVE 2
NOTE OFF CHANNEL 0 DURATION: 100.656986ms NOTE D  OCTAVE 2
NOTE ON CHANNEL 0 DURATION: 100.695715ms NOTE D  OCTAVE 2
NOTE OFF CHANNEL 0 DURATION: 100.748528ms NOTE D  OCTAVE 2
NOTE ON CHANNEL 0 DURATION: 100.778455ms NOTE D  OCTAVE 2
NOTE OFF CHANNEL 0 DURATION: 100.829507ms NOTE D  OCTAVE 2
NOTE ON CHANNEL 0 DURATION: 100.866476ms NOTE D  OCTAVE 2
NOTE OFF CHANNEL 0 DURATION: 100.921048ms NOTE D  OCTAVE 2
NOTE ON CHANNEL 0 DURATION: 100.949215ms NOTE D  OCTAVE 2
NOTE OFF CHANNEL 0 DURATION: 101.000267ms NOTE D  OCTAVE 2
NOTE ON CHANNEL 0 DURATION: 101.038996ms NOTE A  OCTAVE 1
NOTE OFF CHANNEL 0 DURATION: 101.093569ms NOTE A  OCTAVE 1
NOTE ON CHANNEL 0 DURATION: 101.118215ms NOTE A  OCTAVE 1
NOTE OFF CHANNEL 0 DURATION: 101.178069ms NOTE A  OCTAVE 1
NOTE ON CHANNEL 0 DURATION: 101.204475ms NOTE A  OCTAVE 1
NOTE OFF CHANNEL 0 DURATION: 101.325944ms NOTE A  OCTAVE 1
NOTE ON CHANNEL 0 DURATION: 101.373475ms NOTE A  OCTAVE 1
NOTE OFF CHANNEL 0 DURATION: 101.505506ms NOTE A  OCTAVE 1
NOTE ON CHANNEL 0 DURATION: 101.544235ms NOTE A  OCTAVE 1
NOTE OFF CHANNEL 0 DURATION: 101.676266ms NOTE A  OCTAVE 1
NOTE ON CHANNEL 0 DURATION: 101.716756ms NOTE G# OCTAVE 1
NOTE OFF CHANNEL 0 DURATION: 101.834704ms NOTE G# OCTAVE 1
NOTE ON CHANNEL 0 DURATION: 101.883995ms NOTE G# OCTAVE 1
NOTE OFF CHANNEL 0 DURATION: 102.017787ms NOTE G# OCTAVE 1
NOTE ON CHANNEL 0 DURATION: 102.052995ms NOTE G# OCTAVE 1
NOTE OFF CHANNEL 0 DURATION: 102.179745ms NOTE G# OCTAVE 1
NOTE ON CHANNEL 0 DURATION: 102.221995ms NOTE G# OCTAVE 1
NOTE OFF CHANNEL 0 DURATION: 102.357547ms NOTE G# OCTAVE 1
NOTE ON CHANNEL 0 DURATION: 102.394515ms NOTE F# OCTAVE 1
NOTE OFF CHANNEL 0 DURATION: 102.512463ms NOTE F# OCTAVE 1
NOTE ON CHANNEL 0 DURATION: 102.561755ms NOTE F# OCTAVE 1
NOTE OFF CHANNEL 0 DURATION: 102.692026ms NOTE F# OCTAVE 1
NOTE ON CHANNEL 0 DURATION: 102.730755ms NOTE F# OCTAVE 1
NOTE OFF CHANNEL 0 DURATION: 102.868067ms NOTE F# OCTAVE 1
NOTE ON CHANNEL 0 DURATION: 102.901515ms NOTE F# OCTAVE 1
NOTE OFF CHANNEL 0 DURATION: 103.033546ms NOTE F# OCTAVE 1
NOTE ON CHANNEL 0 DURATION: 103.070515ms NOTE D  OCTAVE 2
NOTE OFF CHANNEL 0 DURATION: 103.123327ms NOTE D  OCTAVE 2
NOTE ON CHANNEL 0 DURATION: 103.153254ms NOTE D  OCTAVE 2
NOTE OFF CHANNEL 0 DURATION: 103.200785ms NOTE D  OCTAVE 2
NOTE ON CHANNEL 0 DURATION: 103.239514ms NOTE D  OCTAVE 2
NOTE OFF CHANNEL 0 DURATION: 103.281764ms NOTE D  OCTAVE 2
NOTE ON CHANNEL 0 DURATION: 103.322254ms NOTE D  OCTAVE 2
NOTE OFF CHANNEL 0 DURATION: 103.368025ms NOTE D  OCTAVE 2
NOTE ON CHANNEL 0 DURATION: 103.408514ms NOTE D  OCTAVE 2
NOTE OFF CHANNEL 0 DURATION: 103.456045ms NOTE D  OCTAVE 2
NOTE ON CHANNEL 0 DURATION: 103.494775ms NOTE D  OCTAVE 2
NOTE OFF CHANNEL 0 DURATION: 103.544066ms NOTE D  OCTAVE 2
NOTE ON CHANNEL 0 DURATION: 103.579274ms NOTE D  OCTAVE 2
NOTE OFF CHANNEL 0 DURATION: 103.619764ms NOTE D  OCTAVE 2
NOTE ON CHANNEL 0 DURATION: 103.662014ms NOTE D  OCTAVE 2
NOTE OFF CHANNEL 0 DURATION: 103.706024ms NOTE D  OCTAVE 2
NOTE ON CHANNEL 0 DURATION: 103.753556ms NOTE A  OCTAVE 1
NOTE OFF CHANNEL 0 DURATION: 103.808128ms NOTE A  OCTAVE 1
NOTE ON CHANNEL 0 DURATION: 103.831014ms NOTE A  OCTAVE 1
NOTE OFF CHANNEL 0 DURATION: 103.882066ms NOTE A  OCTAVE 1
NOTE ON CHANNEL 0 DURATION: 103.917274ms NOTE A  OCTAVE 1
NOTE OFF CHANNEL 0 DURATION: 104.040503ms NOTE A  OCTAVE 1
NOTE ON CHANNEL 0 DURATION: 104.086274ms NOTE A  OCTAVE 1
NOTE OFF CHANNEL 0 DURATION: 104.204222ms NOTE A  OCTAVE 1
NOTE ON CHANNEL 0 DURATION: 104.260555ms NOTE A  OCTAVE 1
NOTE OFF CHANNEL 0 DURATION: 104.371461ms NOTE A  OCTAVE 1
NOTE ON CHANNEL 0 DURATION: 104.429555ms NOTE G# OCTAVE 1
NOTE OFF CHANNEL 0 DURATION: 104.542221ms NOTE G# OCTAVE 1
NOTE ON CHANNEL 0 DURATION: 104.596794ms NOTE G# OCTAVE 1
NOTE OFF CHANNEL 0 DURATION: 104.725304ms NOTE G# OCTAVE 1
NOTE ON CHANNEL 0 DURATION: 104.764034ms NOTE G# OCTAVE 1
NOTE OFF CHANNEL 0 DURATION: 104.883742ms NOTE G# OCTAVE 1
NOTE ON CHANNEL 0 DURATION: 104.934794ms NOTE G# OCTAVE 1
NOTE OFF CHANNEL 0 DURATION: 105.066825ms NOTE G# OCTAVE 1
NOTE ON CHANNEL 0 DURATION: 105.109075ms NOTE F# OCTAVE 1
NOTE OFF CHANNEL 0 DURATION: 105.232304ms NOTE F# OCTAVE 1
NOTE ON CHANNEL 0 DURATION: 105.274554ms NOTE F# OCTAVE 1
NOTE OFF CHANNEL 0 DURATION: 105.396022ms NOTE F# OCTAVE 1
NOTE ON CHANNEL 0 DURATION: 105.441793ms NOTE F# OCTAVE 1
NOTE OFF CHANNEL 0 DURATION: 105.575585ms NOTE F# OCTAVE 1
NOTE ON CHANNEL 0 DURATION: 105.616074ms NOTE F# OCTAVE 1
NOTE OFF CHANNEL 0 DURATION: 105.76923ms NOTE F# OCTAVE 1
NOTE ON CHANNEL 0 DURATION: 105.781553ms NOTE D  OCTAVE 2
NOTE OFF CHANNEL 0 DURATION: 105.830845ms NOTE D  OCTAVE 2
NOTE ON CHANNEL 0 DURATION: 105.864293ms NOTE D  OCTAVE 2
NOTE OFF CHANNEL 0 DURATION: 105.906543ms NOTE D  OCTAVE 2
NOTE ON CHANNEL 0 DURATION: 105.952313ms NOTE D  OCTAVE 2
NOTE OFF CHANNEL 0 DURATION: 105.992803ms NOTE D  OCTAVE 2
NOTE ON CHANNEL 0 DURATION: 106.035053ms NOTE D  OCTAVE 2
NOTE OFF CHANNEL 0 DURATION: 106.082584ms NOTE D  OCTAVE 2
NOTE ON CHANNEL 0 DURATION: 106.121313ms NOTE D  OCTAVE 2
NOTE OFF CHANNEL 0 DURATION: 106.172365ms NOTE D  OCTAVE 2
NOTE ON CHANNEL 0 DURATION: 106.204053ms NOTE D  OCTAVE 2
NOTE OFF CHANNEL 0 DURATION: 106.253344ms NOTE D  OCTAVE 2
NOTE ON CHANNEL 0 DURATION: 106.290313ms NOTE D  OCTAVE 2
NOTE OFF CHANNEL 0 DURATION: 106.344886ms NOTE D  OCTAVE 2
NOTE ON CHANNEL 0 DURATION: 106.373052ms NOTE D  OCTAVE 2
NOTE OFF CHANNEL 0 DURATION: 106.425865ms NOTE D  OCTAVE 2
TEMPOOOOOOOooo 168.99980283356336
NOTE ON CHANNEL 2 DURATION: 3.390558ms NOTE F# OCTAVE 5
NOTE ON CHANNEL 2 DURATION: 3.402881ms NOTE B  OCTAVE 5
NOTE ON CHANNEL 2 DURATION: 3.416964ms NOTE D  OCTAVE 5
NOTE ON CHANNEL 2 DURATION: 3.432808ms NOTE D  OCTAVE 6
NOTE ON CHANNEL 2 DURATION: 3.44337ms NOTE F# OCTAVE 6
NOTE ON CHANNEL 2 DURATION: 4.746077ms NOTE C# OCTAVE 5
NOTE ON CHANNEL 2 DURATION: 4.999577ms NOTE A  OCTAVE 4
NOTE OFF CHANNEL 2 DURATION: 5.249556ms NOTE C# OCTAVE 5
NOTE OFF CHANNEL 2 DURATION: 6.094555ms NOTE F# OCTAVE 6
NOTE OFF CHANNEL 2 DURATION: 6.094555ms NOTE B  OCTAVE 5
NOTE OFF CHANNEL 2 DURATION: 6.094555ms NOTE D  OCTAVE 5
NOTE OFF CHANNEL 2 DURATION: 6.094555ms NOTE F# OCTAVE 5
NOTE OFF CHANNEL 2 DURATION: 6.094555ms NOTE A  OCTAVE 4
NOTE OFF CHANNEL 2 DURATION: 6.094555ms NOTE D  OCTAVE 6
NOTE ON CHANNEL 2 DURATION: 7.458876ms NOTE C# OCTAVE 4
NOTE OFF CHANNEL 2 DURATION: 7.703574ms NOTE C# OCTAVE 4
NOTE ON CHANNEL 2 DURATION: 7.710616ms NOTE C# OCTAVE 5
NOTE OFF CHANNEL 2 DURATION: 7.953553ms NOTE C# OCTAVE 5
NOTE ON CHANNEL 2 DURATION: 7.967636ms NOTE A  OCTAVE 4
NOTE OFF CHANNEL 2 DURATION: 8.70701ms NOTE A  OCTAVE 4
NOTE ON CHANNEL 2 DURATION: 8.817916ms NOTE F# OCTAVE 5
NOTE OFF CHANNEL 2 DURATION: 8.854885ms NOTE F# OCTAVE 5
NOTE ON CHANNEL 2 DURATION: 8.898895ms NOTE F# OCTAVE 5
NOTE OFF CHANNEL 2 DURATION: 8.949947ms NOTE F# OCTAVE 5
NOTE ON CHANNEL 2 DURATION: 8.985156ms NOTE D  OCTAVE 5
NOTE OFF CHANNEL 2 DURATION: 9.036208ms NOTE D  OCTAVE 5
NOTE ON CHANNEL 2 DURATION: 9.069656ms NOTE B  OCTAVE 4
NOTE OFF CHANNEL 2 DURATION: 9.115426ms NOTE B  OCTAVE 4
NOTE ON CHANNEL 2 DURATION: 9.238655ms NOTE B  OCTAVE 4
NOTE OFF CHANNEL 2 DURATION: 9.291468ms NOTE B  OCTAVE 4
NOTE ON CHANNEL 2 DURATION: 9.407655ms NOTE E  OCTAVE 5
NOTE OFF CHANNEL 2 DURATION: 9.453426ms NOTE E  OCTAVE 5
NOTE ON CHANNEL 2 DURATION: 9.576655ms NOTE E  OCTAVE 5
NOTE OFF CHANNEL 2 DURATION: 9.627707ms NOTE E  OCTAVE 5
NOTE ON CHANNEL 2 DURATION: 9.745655ms NOTE E  OCTAVE 5
NOTE OFF CHANNEL 2 DURATION: 9.800228ms NOTE E  OCTAVE 5
NOTE ON CHANNEL 2 DURATION: 9.833676ms NOTE G# OCTAVE 5
NOTE OFF CHANNEL 2 DURATION: 9.874165ms NOTE G# OCTAVE 5
NOTE ON CHANNEL 2 DURATION: 9.916415ms NOTE G# OCTAVE 5
NOTE OFF CHANNEL 2 DURATION: 9.962186ms NOTE G# OCTAVE 5
NOTE ON CHANNEL 2 DURATION: 10.002675ms NOTE A  OCTAVE 5
NOTE OFF CHANNEL 2 DURATION: 10.050207ms NOTE A  OCTAVE 5
NOTE ON CHANNEL 2 DURATION: 10.085415ms NOTE B  OCTAVE 5
NOTE OFF CHANNEL 2 DURATION: 10.138227ms NOTE B  OCTAVE 5
NOTE ON CHANNEL 2 DURATION: 10.173436ms NOTE A  OCTAVE 5
NOTE OFF CHANNEL 2 DURATION: 10.213925ms NOTE A  OCTAVE 5
NOTE ON CHANNEL 2 DURATION: 10.254415ms NOTE A  OCTAVE 5
NOTE OFF CHANNEL 2 DURATION: 10.301946ms NOTE A  OCTAVE 5
NOTE ON CHANNEL 2 DURATION: 10.340675ms NOTE A  OCTAVE 5
NOTE OFF CHANNEL 2 DURATION: 10.382925ms NOTE A  OCTAVE 5
NOTE ON CHANNEL 2 DURATION: 10.425175ms NOTE E  OCTAVE 5
NOTE OFF CHANNEL 2 DURATION: 10.470946ms NOTE E  OCTAVE 5
NOTE ON CHANNEL 2 DURATION: 10.594175ms NOTE D  OCTAVE 5
NOTE OFF CHANNEL 2 DURATION: 10.634664ms NOTE D  OCTAVE 5
NOTE ON CHANNEL 2 DURATION: 10.763174ms NOTE F# OCTAVE 5
NOTE OFF CHANNEL 2 DURATION: 10.808945ms NOTE F# OCTAVE 5
NOTE ON CHANNEL 2 DURATION: 10.932174ms NOTE F# OCTAVE 5
NOTE OFF CHANNEL 2 DURATION: 10.979705ms NOTE F# OCTAVE 5
NOTE ON CHANNEL 2 DURATION: 11.102934ms NOTE F# OCTAVE 5
NOTE OFF CHANNEL 2 DURATION: 11.148705ms NOTE F# OCTAVE 5
NOTE ON CHANNEL 2 DURATION: 11.189195ms NOTE E  OCTAVE 5
NOTE OFF CHANNEL 2 DURATION: 11.236726ms NOTE E  OCTAVE 5
NOTE ON CHANNEL 2 DURATION: 11.273695ms NOTE E  OCTAVE 5
NOTE OFF CHANNEL 2 DURATION: 11.321226ms NOTE E  OCTAVE 5
NOTE ON CHANNEL 2 DURATION: 11.358195ms NOTE F# OCTAVE 5
NOTE OFF CHANNEL 2 DURATION: 11.398684ms NOTE F# OCTAVE 5
NOTE ON CHANNEL 2 DURATION: 11.440934ms NOTE E  OCTAVE 5
NOTE OFF CHANNEL 2 DURATION: 11.490226ms NOTE E  OCTAVE 5
NOTE ON CHANNEL 2 DURATION: 11.528955ms NOTE F# OCTAVE 5
NOTE OFF CHANNEL 2 DURATION: 11.569444ms NOTE F# OCTAVE 5
NOTE ON CHANNEL 2 DURATION: 11.611694ms NOTE F# OCTAVE 5
NOTE OFF CHANNEL 2 DURATION: 11.657465ms NOTE F# OCTAVE 5
NOTE ON CHANNEL 2 DURATION: 11.697955ms NOTE D  OCTAVE 5
NOTE OFF CHANNEL 2 DURATION: 11.743725ms NOTE D  OCTAVE 5
NOTE ON CHANNEL 2 DURATION: 11.780694ms NOTE B  OCTAVE 4
NOTE OFF CHANNEL 2 DURATION: 11.819423ms NOTE B  OCTAVE 4
NOTE ON CHANNEL 2 DURATION: 11.951454ms NOTE B  OCTAVE 4
NOTE OFF CHANNEL 2 DURATION: 11.998986ms NOTE B  OCTAVE 4
NOTE ON CHANNEL 2 DURATION: 12.120454ms NOTE E  OCTAVE 5
NOTE OFF CHANNEL 2 DURATION: 12.171506ms NOTE E  OCTAVE 5
NOTE ON CHANNEL 2 DURATION: 12.289454ms NOTE E  OCTAVE 5
NOTE OFF CHANNEL 2 DURATION: 12.345787ms NOTE E  OCTAVE 5
NOTE ON CHANNEL 2 DURATION: 12.458454ms NOTE E  OCTAVE 5
NOTE OFF CHANNEL 2 DURATION: 12.509506ms NOTE E  OCTAVE 5
NOTE ON CHANNEL 2 DURATION: 12.546474ms NOTE G# OCTAVE 5
NOTE OFF CHANNEL 2 DURATION: 12.588724ms NOTE G# OCTAVE 5
NOTE ON CHANNEL 2 DURATION: 12.629214ms NOTE G# OCTAVE 5
NOTE OFF CHANNEL 2 DURATION: 12.671464ms NOTE G# OCTAVE 5
NOTE ON CHANNEL 2 DURATION: 12.715474ms NOTE A  OCTAVE 5
NOTE OFF CHANNEL 2 DURATION: 12.755964ms NOTE A  OCTAVE 5
NOTE ON CHANNEL 2 DURATION: 12.798214ms NOTE B  OCTAVE 5
NOTE OFF CHANNEL 2 DURATION: 12.843985ms NOTE B  OCTAVE 5
NOTE ON CHANNEL 2 DURATION: 12.886234ms NOTE A  OCTAVE 5
NOTE OFF CHANNEL 2 DURATION: 12.919682ms NOTE A  OCTAVE 5
NOTE ON CHANNEL 2 DURATION: 12.967214ms NOTE A  OCTAVE 5
NOTE OFF CHANNEL 2 DURATION: 13.009463ms NOTE A  OCTAVE 5
NOTE ON CHANNEL 2 DURATION: 13.053474ms NOTE A  OCTAVE 5
NOTE OFF CHANNEL 2 DURATION: 13.085161ms NOTE A  OCTAVE 5
NOTE ON CHANNEL 2 DURATION: 13.136213ms NOTE E  OCTAVE 5
NOTE OFF CHANNEL 2 DURATION: 13.173182ms NOTE E  OCTAVE 5
NOTE ON CHANNEL 2 DURATION: 13.306974ms NOTE D  OCTAVE 5
NOTE OFF CHANNEL 2 DURATION: 13.338661ms NOTE D  OCTAVE 5
NOTE ON CHANNEL 2 DURATION: 13.475973ms NOTE F# OCTAVE 5
NOTE OFF CHANNEL 2 DURATION: 13.516463ms NOTE F# OCTAVE 5
NOTE ON CHANNEL 2 DURATION: 13.644973ms NOTE F# OCTAVE 5
NOTE OFF CHANNEL 2 DURATION: 13.688984ms NOTE F# OCTAVE 5
NOTE ON CHANNEL 2 DURATION: 13.815733ms NOTE F# OCTAVE 5
NOTE OFF CHANNEL 2 DURATION: 13.861504ms NOTE F# OCTAVE 5
NOTE ON CHANNEL 2 DURATION: 13.901994ms NOTE E  OCTAVE 5
NOTE OFF CHANNEL 2 DURATION: 13.942483ms NOTE E  OCTAVE 5
NOTE ON CHANNEL 2 DURATION: 13.984733ms NOTE E  OCTAVE 5
NOTE OFF CHANNEL 2 DURATION: 14.037546ms NOTE E  OCTAVE 5
NOTE ON CHANNEL 2 DURATION: 14.070994ms NOTE F# OCTAVE 5
NOTE OFF CHANNEL 2 DURATION: 14.115004ms NOTE F# OCTAVE 5
NOTE ON CHANNEL 2 DURATION: 14.153733ms NOTE E  OCTAVE 5
NOTE OFF CHANNEL 2 DURATION: 14.203025ms NOTE E  OCTAVE 5
NOTE ON CHANNEL 2 DURATION: 14.243514ms NOTE F# OCTAVE 5
NOTE OFF CHANNEL 2 DURATION: 14.278722ms NOTE F# OCTAVE 5
NOTE ON CHANNEL 2 DURATION: 14.322733ms NOTE F# OCTAVE 5
NOTE OFF CHANNEL 2 DURATION: 14.377306ms NOTE F# OCTAVE 5
NOTE ON CHANNEL 2 DURATION: 14.410754ms NOTE D  OCTAVE 5
NOTE OFF CHANNEL 2 DURATION: 14.460045ms NOTE D  OCTAVE 5
NOTE ON CHANNEL 2 DURATION: 14.493493ms NOTE B  OCTAVE 4
NOTE OFF CHANNEL 2 DURATION: 14.539264ms NOTE B  OCTAVE 4
NOTE ON CHANNEL 2 DURATION: 14.662493ms NOTE B  OCTAVE 4
NOTE OFF CHANNEL 2 DURATION: 14.715305ms NOTE B  OCTAVE 4
NOTE ON CHANNEL 2 DURATION: 14.831493ms NOTE E  OCTAVE 5
NOTE OFF CHANNEL 2 DURATION: 14.879024ms NOTE E  OCTAVE 5
NOTE ON CHANNEL 2 DURATION: 15.002253ms NOTE E  OCTAVE 5
NOTE OFF CHANNEL 2 DURATION: 15.055065ms NOTE E  OCTAVE 5
NOTE ON CHANNEL 2 DURATION: 15.171253ms NOTE E  OCTAVE 5
NOTE OFF CHANNEL 2 DURATION: 15.224065ms NOTE E  OCTAVE 5
NOTE ON CHANNEL 2 DURATION: 15.257513ms NOTE G# OCTAVE 5
NOTE OFF CHANNEL 2 DURATION: 15.299763ms NOTE G# OCTAVE 5
NOTE ON CHANNEL 2 DURATION: 15.342013ms NOTE G# OCTAVE 5
NOTE OFF CHANNEL 2 DURATION: 15.386023ms NOTE G# OCTAVE 5
NOTE ON CHANNEL 2 DURATION: 15.426513ms NOTE A  OCTAVE 5
NOTE OFF CHANNEL 2 DURATION: 15.475804ms NOTE A  OCTAVE 5
NOTE ON CHANNEL 2 DURATION: 15.509252ms NOTE B  OCTAVE 5
NOTE OFF CHANNEL 2 DURATION: 15.563825ms NOTE B  OCTAVE 5
NOTE ON CHANNEL 2 DURATION: 15.599033ms NOTE A  OCTAVE 5
NOTE OFF CHANNEL 2 DURATION: 15.637763ms NOTE A  OCTAVE 5
NOTE ON CHANNEL 2 DURATION: 15.680012ms NOTE A  OCTAVE 5
NOTE OFF CHANNEL 2 DURATION: 15.725783ms NOTE A  OCTAVE 5
NOTE ON CHANNEL 2 DURATION: 15.766273ms NOTE A  OCTAVE 5
NOTE OFF CHANNEL 2 DURATION: 15.806762ms NOTE A  OCTAVE 5
NOTE ON CHANNEL 2 DURATION: 15.849012ms NOTE F# OCTAVE 5
NOTE OFF CHANNEL 2 DURATION: 15.894783ms NOTE F# OCTAVE 5
NOTE ON CHANNEL 2 DURATION: 16.019772ms NOTE D  OCTAVE 5
NOTE OFF CHANNEL 2 DURATION: 16.060262ms NOTE D  OCTAVE 5
NOTE ON CHANNEL 2 DURATION: 16.188772ms NOTE F# OCTAVE 5
NOTE OFF CHANNEL 2 DURATION: 16.234543ms NOTE F# OCTAVE 5
NOTE ON CHANNEL 2 DURATION: 16.357772ms NOTE F# OCTAVE 5
NOTE OFF CHANNEL 2 DURATION: 16.403543ms NOTE F# OCTAVE 5
NOTE ON CHANNEL 2 DURATION: 16.526772ms NOTE F# OCTAVE 5
NOTE OFF CHANNEL 2 DURATION: 16.572543ms NOTE F# OCTAVE 5
NOTE ON CHANNEL 2 DURATION: 16.614793ms NOTE E  OCTAVE 5
NOTE OFF CHANNEL 2 DURATION: 16.662324ms NOTE E  OCTAVE 5
NOTE ON CHANNEL 2 DURATION: 16.697532ms NOTE E  OCTAVE 5
NOTE OFF CHANNEL 2 DURATION: 16.745063ms NOTE E  OCTAVE 5
NOTE ON CHANNEL 2 DURATION: 16.783792ms NOTE E  OCTAVE 5
NOTE OFF CHANNEL 2 DURATION: 16.824282ms NOTE E  OCTAVE 5
NOTE ON CHANNEL 2 DURATION: 33.227825ms NOTE E  OCTAVE 5
NOTE ON CHANNEL 2 DURATION: 33.234867ms NOTE C# OCTAVE 5
NOTE ON CHANNEL 2 DURATION: 33.245429ms NOTE A  OCTAVE 5
NOTE ON CHANNEL 2 DURATION: 33.255992ms NOTE A  OCTAVE 4
NOTE OFF CHANNEL 2 DURATION: 33.560544ms NOTE E  OCTAVE 5
NOTE OFF CHANNEL 2 DURATION: 33.571106ms NOTE C# OCTAVE 5
NOTE OFF CHANNEL 2 DURATION: 33.579908ms NOTE A  OCTAVE 5
NOTE OFF CHANNEL 2 DURATION: 33.592231ms NOTE A  OCTAVE 4
NOTE ON CHANNEL 2 DURATION: 33.903825ms NOTE E  OCTAVE 5
NOTE ON CHANNEL 2 DURATION: 33.912627ms NOTE B  OCTAVE 4
NOTE ON CHANNEL 2 DURATION: 33.923189ms NOTE B  OCTAVE 5
NOTE ON CHANNEL 2 DURATION: 33.933752ms NOTE G# OCTAVE 5
NOTE OFF CHANNEL 2 DURATION: 34.238303ms NOTE E  OCTAVE 5
NOTE OFF CHANNEL 2 DURATION: 34.248866ms NOTE B  OCTAVE 4
NOTE OFF CHANNEL 2 DURATION: 34.257668ms NOTE B  OCTAVE 5
NOTE OFF CHANNEL 2 DURATION: 34.269991ms NOTE G# OCTAVE 5
NOTE ON CHANNEL 2 DURATION: 34.581584ms NOTE A  OCTAVE 5
NOTE ON CHANNEL 2 DURATION: 34.590386ms NOTE D  OCTAVE 6
NOTE ON CHANNEL 2 DURATION: 34.602709ms NOTE D  OCTAVE 5
NOTE ON CHANNEL 2 DURATION: 34.611511ms NOTE F# OCTAVE 5
NOTE OFF CHANNEL 2 DURATION: 34.917823ms NOTE A  OCTAVE 5
NOTE OFF CHANNEL 2 DURATION: 34.926625ms NOTE D  OCTAVE 6
NOTE OFF CHANNEL 2 DURATION: 34.935427ms NOTE D  OCTAVE 5
NOTE OFF CHANNEL 2 DURATION: 34.94775ms NOTE F# OCTAVE 5
NOTE ON CHANNEL 2 DURATION: 35.259344ms NOTE E  OCTAVE 5
NOTE ON CHANNEL 2 DURATION: 35.268146ms NOTE B  OCTAVE 5
NOTE ON CHANNEL 2 DURATION: 35.280469ms NOTE E  OCTAVE 6
NOTE ON CHANNEL 2 DURATION: 35.289271ms NOTE G# OCTAVE 5
NOTE OFF CHANNEL 2 DURATION: 35.595583ms NOTE E  OCTAVE 5
NOTE OFF CHANNEL 2 DURATION: 35.604385ms NOTE B  OCTAVE 5
NOTE OFF CHANNEL 2 DURATION: 35.614948ms NOTE E  OCTAVE 6
NOTE OFF CHANNEL 2 DURATION: 35.62551ms NOTE G# OCTAVE 5
NOTE ON CHANNEL 2 DURATION: 52.213897ms NOTE E  OCTAVE 5
NOTE ON CHANNEL 2 DURATION: 52.222699ms NOTE C# OCTAVE 5
NOTE ON CHANNEL 2 DURATION: 52.231501ms NOTE A  OCTAVE 5
NOTE ON CHANNEL 2 DURATION: 52.243824ms NOTE A  OCTAVE 4
NOTE OFF CHANNEL 2 DURATION: 52.546615ms NOTE E  OCTAVE 5
NOTE OFF CHANNEL 2 DURATION: 52.557178ms NOTE C# OCTAVE 5
NOTE OFF CHANNEL 2 DURATION: 52.56774ms NOTE A  OCTAVE 5
NOTE OFF CHANNEL 2 DURATION: 52.578303ms NOTE A  OCTAVE 4
NOTE ON CHANNEL 2 DURATION: 52.889896ms NOTE E  OCTAVE 5
NOTE ON CHANNEL 2 DURATION: 52.900459ms NOTE B  OCTAVE 4
NOTE ON CHANNEL 2 DURATION: 52.909261ms NOTE B  OCTAVE 5
NOTE ON CHANNEL 2 DURATION: 52.921584ms NOTE G# OCTAVE 5
NOTE OFF CHANNEL 2 DURATION: 53.226135ms NOTE E  OCTAVE 5
NOTE OFF CHANNEL 2 DURATION: 53.234937ms NOTE B  OCTAVE 4
NOTE OFF CHANNEL 2 DURATION: 53.24726ms NOTE B  OCTAVE 5
NOTE OFF CHANNEL 2 DURATION: 53.256062ms NOTE G# OCTAVE 5
NOTE ON CHANNEL 2 DURATION: 53.567656ms NOTE A  OCTAVE 5
NOTE ON CHANNEL 2 DURATION: 53.578218ms NOTE D  OCTAVE 6
NOTE ON CHANNEL 2 DURATION: 53.588781ms NOTE D  OCTAVE 5
NOTE ON CHANNEL 2 DURATION: 53.599343ms NOTE F# OCTAVE 5
NOTE OFF CHANNEL 2 DURATION: 53.903895ms NOTE A  OCTAVE 5
NOTE OFF CHANNEL 2 DURATION: 53.912697ms NOTE D  OCTAVE 6
NOTE OFF CHANNEL 2 DURATION: 53.92502ms NOTE D  OCTAVE 5
NOTE OFF CHANNEL 2 DURATION: 53.933822ms NOTE F# OCTAVE 5
NOTE ON CHANNEL 2 DURATION: 54.245415ms NOTE E  OCTAVE 5
NOTE ON CHANNEL 2 DURATION: 54.255978ms NOTE B  OCTAVE 5
NOTE ON CHANNEL 2 DURATION: 54.26654ms NOTE E  OCTAVE 6
NOTE ON CHANNEL 2 DURATION: 54.278863ms NOTE G# OCTAVE 5
NOTE OFF CHANNEL 2 DURATION: 54.581655ms NOTE E  OCTAVE 5
NOTE OFF CHANNEL 2 DURATION: 54.590457ms NOTE B  OCTAVE 5
NOTE OFF CHANNEL 2 DURATION: 54.60278ms NOTE E  OCTAVE 6
NOTE OFF CHANNEL 2 DURATION: 54.611582ms NOTE G# OCTAVE 5
NOTE ON CHANNEL 2 DURATION: 54.923175ms NOTE E  OCTAVE 5
NOTE ON CHANNEL 2 DURATION: 54.9443ms NOTE C# OCTAVE 5
NOTE ON CHANNEL 2 DURATION: 54.965425ms NOTE G# OCTAVE 4
NOTE ON CHANNEL 2 DURATION: 54.98655ms NOTE G# OCTAVE 5
NOTE OFF CHANNEL 2 DURATION: 55.593893ms NOTE E  OCTAVE 5
NOTE OFF CHANNEL 2 DURATION: 55.615018ms NOTE C# OCTAVE 5
NOTE OFF CHANNEL 2 DURATION: 55.636143ms NOTE G# OCTAVE 4
NOTE OFF CHANNEL 2 DURATION: 55.659028ms NOTE G# OCTAVE 5
NOTE ON CHANNEL 2 DURATION: 57.637734ms NOTE G# OCTAVE 5
NOTE OFF CHANNEL 2 DURATION: 57.664141ms NOTE G# OCTAVE 5
NOTE ON CHANNEL 2 DURATION: 57.678224ms NOTE G  OCTAVE 5
NOTE OFF CHANNEL 2 DURATION: 57.706391ms NOTE G  OCTAVE 5
NOTE ON CHANNEL 2 DURATION: 57.722234ms NOTE F# OCTAVE 5
NOTE OFF CHANNEL 2 DURATION: 57.750401ms NOTE F# OCTAVE 5
NOTE ON CHANNEL 2 DURATION: 57.764484ms NOTE F  OCTAVE 5
NOTE OFF CHANNEL 2 DURATION: 57.79089ms NOTE F  OCTAVE 5
NOTE ON CHANNEL 2 DURATION: 57.804974ms NOTE E  OCTAVE 5
NOTE OFF CHANNEL 2 DURATION: 57.83314ms NOTE E  OCTAVE 5
NOTE ON CHANNEL 2 DURATION: 57.847224ms NOTE F  OCTAVE 5
NOTE OFF CHANNEL 2 DURATION: 57.877151ms NOTE F  OCTAVE 5
NOTE ON CHANNEL 2 DURATION: 57.891234ms NOTE F# OCTAVE 5
NOTE OFF CHANNEL 2 DURATION: 57.919401ms NOTE F# OCTAVE 5
NOTE ON CHANNEL 2 DURATION: 57.933484ms NOTE G  OCTAVE 5
NOTE OFF CHANNEL 2 DURATION: 57.95989ms NOTE G  OCTAVE 5
NOTE ON CHANNEL 2 DURATION: 57.977494ms NOTE G# OCTAVE 5
NOTE OFF CHANNEL 2 DURATION: 58.00214ms NOTE G# OCTAVE 5
NOTE ON CHANNEL 2 DURATION: 58.017984ms NOTE G  OCTAVE 5
NOTE OFF CHANNEL 2 DURATION: 58.046151ms NOTE G  OCTAVE 5
NOTE ON CHANNEL 2 DURATION: 58.061994ms NOTE F# OCTAVE 5
NOTE OFF CHANNEL 2 DURATION: 58.0884ms NOTE F# OCTAVE 5
NOTE ON CHANNEL 2 DURATION: 58.102484ms NOTE F  OCTAVE 5
NOTE OFF CHANNEL 2 DURATION: 58.12889ms NOTE F  OCTAVE 5
NOTE ON CHANNEL 2 DURATION: 58.144734ms NOTE E  OCTAVE 5
NOTE OFF CHANNEL 2 DURATION: 58.1729ms NOTE E  OCTAVE 5
NOTE ON CHANNEL 2 DURATION: 58.186984ms NOTE F  OCTAVE 5
NOTE OFF CHANNEL 2 DURATION: 58.21515ms NOTE F  OCTAVE 5
NOTE ON CHANNEL 2 DURATION: 58.230994ms NOTE F# OCTAVE 5
NOTE OFF CHANNEL 2 DURATION: 58.259161ms NOTE F# OCTAVE 5
NOTE ON CHANNEL 2 DURATION: 58.273244ms NOTE G  OCTAVE 5
NOTE OFF CHANNEL 2 DURATION: 58.29965ms NOTE G  OCTAVE 5
NOTE ON CHANNEL 2 DURATION: 58.315494ms NOTE G# OCTAVE 5
NOTE OFF CHANNEL 2 DURATION: 58.3419ms NOTE G# OCTAVE 5
NOTE ON CHANNEL 2 DURATION: 58.355984ms NOTE G  OCTAVE 5
NOTE OFF CHANNEL 2 DURATION: 58.38415ms NOTE G  OCTAVE 5
NOTE ON CHANNEL 2 DURATION: 58.399994ms NOTE F# OCTAVE 5
NOTE OFF CHANNEL 2 DURATION: 58.428161ms NOTE F# OCTAVE 5
NOTE ON CHANNEL 2 DURATION: 58.442244ms NOTE F  OCTAVE 5
NOTE OFF CHANNEL 2 DURATION: 58.46865ms NOTE F  OCTAVE 5
NOTE ON CHANNEL 2 DURATION: 58.484494ms NOTE E  OCTAVE 5
NOTE OFF CHANNEL 2 DURATION: 58.5109ms NOTE E  OCTAVE 5
NOTE ON CHANNEL 2 DURATION: 58.524983ms NOTE F  OCTAVE 5
NOTE OFF CHANNEL 2 DURATION: 58.55491ms NOTE F  OCTAVE 5
NOTE ON CHANNEL 2 DURATION: 58.568994ms NOTE F# OCTAVE 5
NOTE OFF CHANNEL 2 DURATION: 58.59716ms NOTE F# OCTAVE 5
NOTE ON CHANNEL 2 DURATION: 58.611244ms NOTE G  OCTAVE 5
NOTE OFF CHANNEL 2 DURATION: 58.63765ms NOTE G  OCTAVE 5
NOTE ON CHANNEL 2 DURATION: 58.655254ms NOTE G# OCTAVE 5
NOTE OFF CHANNEL 2 DURATION: 58.68166ms NOTE G# OCTAVE 5
NOTE ON CHANNEL 2 DURATION: 58.695744ms NOTE G  OCTAVE 5
NOTE OFF CHANNEL 2 DURATION: 58.72391ms NOTE G  OCTAVE 5
NOTE ON CHANNEL 2 DURATION: 58.739754ms NOTE F# OCTAVE 5
NOTE OFF CHANNEL 2 DURATION: 58.76616ms NOTE F# OCTAVE 5
NOTE ON CHANNEL 2 DURATION: 58.782004ms NOTE F  OCTAVE 5
NOTE OFF CHANNEL 2 DURATION: 58.80841ms NOTE F  OCTAVE 5
NOTE ON CHANNEL 2 DURATION: 58.824254ms NOTE E  OCTAVE 5
NOTE OFF CHANNEL 2 DURATION: 58.85066ms NOTE E  OCTAVE 5
NOTE ON CHANNEL 2 DURATION: 58.862983ms NOTE F  OCTAVE 5
NOTE OFF CHANNEL 2 DURATION: 58.89291ms NOTE F  OCTAVE 5
NOTE ON CHANNEL 2 DURATION: 58.908754ms NOTE F# OCTAVE 5
NOTE OFF CHANNEL 2 DURATION: 58.93692ms NOTE F# OCTAVE 5
NOTE ON CHANNEL 2 DURATION: 58.951004ms NOTE G  OCTAVE 5
NOTE OFF CHANNEL 2 DURATION: 58.97741ms NOTE G  OCTAVE 5
NOTE ON CHANNEL 2 DURATION: 58.995014ms NOTE G# OCTAVE 5
NOTE OFF CHANNEL 2 DURATION: 59.01966ms NOTE G# OCTAVE 5
NOTE ON CHANNEL 2 DURATION: 59.033743ms NOTE G  OCTAVE 5
NOTE OFF CHANNEL 2 DURATION: 59.06367ms NOTE G  OCTAVE 5
NOTE ON CHANNEL 2 DURATION: 59.077753ms NOTE F# OCTAVE 5
NOTE OFF CHANNEL 2 DURATION: 59.10592ms NOTE F# OCTAVE 5
NOTE ON CHANNEL 2 DURATION: 59.120003ms NOTE F  OCTAVE 5
NOTE OFF CHANNEL 2 DURATION: 59.14641ms NOTE F  OCTAVE 5
NOTE ON CHANNEL 2 DURATION: 59.162253ms NOTE E  OCTAVE 5
NOTE OFF CHANNEL 2 DURATION: 59.18866ms NOTE E  OCTAVE 5
NOTE ON CHANNEL 2 DURATION: 59.204503ms NOTE F  OCTAVE 5
NOTE OFF CHANNEL 2 DURATION: 59.23267ms NOTE F  OCTAVE 5
NOTE ON CHANNEL 2 DURATION: 59.248514ms NOTE F# OCTAVE 5
NOTE OFF CHANNEL 2 DURATION: 59.27492ms NOTE F# OCTAVE 5
NOTE ON CHANNEL 2 DURATION: 59.290764ms NOTE G  OCTAVE 5
NOTE OFF CHANNEL 2 DURATION: 59.315409ms NOTE G  OCTAVE 5
NOTE ON CHANNEL 2 DURATION: 59.333014ms NOTE G# OCTAVE 5
NOTE OFF CHANNEL 2 DURATION: 59.35942ms NOTE G# OCTAVE 5
NOTE ON CHANNEL 2 DURATION: 59.373503ms NOTE G  OCTAVE 5
NOTE OFF CHANNEL 2 DURATION: 59.40167ms NOTE G  OCTAVE 5
NOTE ON CHANNEL 2 DURATION: 59.417514ms NOTE F# OCTAVE 5
NOTE OFF CHANNEL 2 DURATION: 59.44568ms NOTE F# OCTAVE 5
NOTE ON CHANNEL 2 DURATION: 59.459763ms NOTE F  OCTAVE 5
NOTE OFF CHANNEL 2 DURATION: 59.48617ms NOTE F  OCTAVE 5
NOTE ON CHANNEL 2 DURATION: 59.502013ms NOTE E  OCTAVE 5
NOTE OFF CHANNEL 2 DURATION: 59.52842ms NOTE E  OCTAVE 5
NOTE ON CHANNEL 2 DURATION: 59.542503ms NOTE F  OCTAVE 5
NOTE OFF CHANNEL 2 DURATION: 59.57243ms NOTE F  OCTAVE 5
NOTE ON CHANNEL 2 DURATION: 59.586513ms NOTE F# OCTAVE 5
NOTE OFF CHANNEL 2 DURATION: 59.61468ms NOTE F# OCTAVE 5
NOTE ON CHANNEL 2 DURATION: 59.628763ms NOTE G  OCTAVE 5
NOTE OFF CHANNEL 2 DURATION: 59.655169ms NOTE G  OCTAVE 5
NOTE ON CHANNEL 2 DURATION: 59.671013ms NOTE G# OCTAVE 5
NOTE OFF CHANNEL 2 DURATION: 59.697419ms NOTE G# OCTAVE 5
NOTE ON CHANNEL 2 DURATION: 59.713263ms NOTE G  OCTAVE 5
NOTE OFF CHANNEL 2 DURATION: 59.74143ms NOTE G  OCTAVE 5
NOTE ON CHANNEL 2 DURATION: 59.755513ms NOTE F# OCTAVE 5
NOTE OFF CHANNEL 2 DURATION: 59.78368ms NOTE F# OCTAVE 5
NOTE ON CHANNEL 2 DURATION: 59.797763ms NOTE F  OCTAVE 5
NOTE OFF CHANNEL 2 DURATION: 59.824169ms NOTE F  OCTAVE 5
NOTE ON CHANNEL 2 DURATION: 59.840013ms NOTE E  OCTAVE 5
NOTE OFF CHANNEL 2 DURATION: 59.86818ms NOTE E  OCTAVE 5
NOTE ON CHANNEL 2 DURATION: 59.882263ms NOTE F  OCTAVE 5
NOTE OFF CHANNEL 2 DURATION: 59.91043ms NOTE F  OCTAVE 5
NOTE ON CHANNEL 2 DURATION: 59.926273ms NOTE F# OCTAVE 5
NOTE OFF CHANNEL 2 DURATION: 59.95268ms NOTE F# OCTAVE 5
NOTE ON CHANNEL 2 DURATION: 59.968523ms NOTE G  OCTAVE 5
NOTE OFF CHANNEL 2 DURATION: 59.99493ms NOTE G  OCTAVE 5
NOTE ON CHANNEL 2 DURATION: 60.010773ms NOTE C# OCTAVE 5
NOTE ON CHANNEL 2 DURATION: 60.010773ms NOTE C# OCTAVE 6
NOTE OFF CHANNEL 2 DURATION: 60.339971ms NOTE C# OCTAVE 6
NOTE OFF CHANNEL 2 DURATION: 60.339971ms NOTE C# OCTAVE 5
NOTE ON CHANNEL 2 DURATION: 60.352294ms NOTE C# OCTAVE 5
NOTE ON CHANNEL 2 DURATION: 60.352294ms NOTE C# OCTAVE 6
NOTE ON CHANNEL 2 DURATION: 60.352294ms NOTE G# OCTAVE 5
NOTE OFF CHANNEL 2 DURATION: 60.383981ms NOTE G# OCTAVE 5
NOTE OFF CHANNEL 2 DURATION: 60.391023ms NOTE C# OCTAVE 5
NOTE ON CHANNEL 2 DURATION: 60.391023ms NOTE G  OCTAVE 5
NOTE OFF CHANNEL 2 DURATION: 60.399825ms NOTE C# OCTAVE 6
NOTE OFF CHANNEL 2 DURATION: 60.426231ms NOTE G  OCTAVE 5
NOTE ON CHANNEL 2 DURATION: 60.435033ms NOTE F# OCTAVE 5
NOTE ON CHANNEL 2 DURATION: 60.435033ms NOTE D  OCTAVE 5
NOTE ON CHANNEL 2 DURATION: 60.435033ms NOTE D  OCTAVE 6
NOTE OFF CHANNEL 2 DURATION: 60.470241ms NOTE F# OCTAVE 5
NOTE ON CHANNEL 2 DURATION: 60.477283ms NOTE F  OCTAVE 5
NOTE OFF CHANNEL 2 DURATION: 60.508971ms NOTE F  OCTAVE 5
NOTE ON CHANNEL 2 DURATION: 60.517773ms NOTE E  OCTAVE 5
NOTE OFF CHANNEL 2 DURATION: 60.552981ms NOTE E  OCTAVE 5
NOTE ON CHANNEL 2 DURATION: 60.560023ms NOTE F  OCTAVE 5
NOTE OFF CHANNEL 2 DURATION: 60.595231ms NOTE F  OCTAVE 5
NOTE ON CHANNEL 2 DURATION: 60.604033ms NOTE F# OCTAVE 5
NOTE OFF CHANNEL 2 DURATION: 60.639241ms NOTE F# OCTAVE 5
NOTE ON CHANNEL 2 DURATION: 60.646283ms NOTE G  OCTAVE 5
NOTE OFF CHANNEL 2 DURATION: 60.679731ms NOTE G  OCTAVE 5
NOTE ON CHANNEL 2 DURATION: 60.688533ms NOTE G# OCTAVE 5
NOTE OFF CHANNEL 2 DURATION: 60.721981ms NOTE G# OCTAVE 5
NOTE ON CHANNEL 2 DURATION: 60.729022ms NOTE G  OCTAVE 5
NOTE OFF CHANNEL 2 DURATION: 60.765991ms NOTE G  OCTAVE 5
NOTE ON CHANNEL 2 DURATION: 60.774793ms NOTE F# OCTAVE 5
NOTE OFF CHANNEL 2 DURATION: 60.808241ms NOTE F# OCTAVE 5
NOTE ON CHANNEL 2 DURATION: 60.815283ms NOTE F  OCTAVE 5
NOTE OFF CHANNEL 2 DURATION: 60.848731ms NOTE F  OCTAVE 5
NOTE ON CHANNEL 2 DURATION: 60.857533ms NOTE E  OCTAVE 5
NOTE OFF CHANNEL 2 DURATION: 60.892741ms NOTE E  OCTAVE 5
NOTE ON CHANNEL 2 DURATION: 60.899783ms NOTE F  OCTAVE 5
NOTE OFF CHANNEL 2 DURATION: 60.934991ms NOTE F  OCTAVE 5
NOTE ON CHANNEL 2 DURATION: 60.942033ms NOTE F# OCTAVE 5
NOTE OFF CHANNEL 2 DURATION: 60.977241ms NOTE F# OCTAVE 5
NOTE ON CHANNEL 2 DURATION: 60.986043ms NOTE G  OCTAVE 5
NOTE OFF CHANNEL 2 DURATION: 61.01773ms NOTE G  OCTAVE 5
NOTE ON CHANNEL 2 DURATION: 61.026532ms NOTE G# OCTAVE 5
NOTE OFF CHANNEL 2 DURATION: 61.061741ms NOTE G# OCTAVE 5
NOTE ON CHANNEL 2 DURATION: 61.068782ms NOTE G  OCTAVE 5
NOTE OFF CHANNEL 2 DURATION: 61.103991ms NOTE G  OCTAVE 5
NOTE ON CHANNEL 2 DURATION: 61.112793ms NOTE F# OCTAVE 5
NOTE OFF CHANNEL 2 DURATION: 61.148001ms NOTE F# OCTAVE 5
NOTE OFF CHANNEL 2 DURATION: 61.155043ms NOTE D  OCTAVE 6
NOTE OFF CHANNEL 2 DURATION: 61.155043ms NOTE D  OCTAVE 5
NOTE ON CHANNEL 2 DURATION: 61.155043ms NOTE F  OCTAVE 5
NOTE OFF CHANNEL 2 DURATION: 61.188491ms NOTE F  OCTAVE 5
NOTE ON CHANNEL 2 DURATION: 61.195532ms NOTE E  OCTAVE 5
NOTE OFF CHANNEL 2 DURATION: 61.230741ms NOTE E  OCTAVE 5
NOTE ON CHANNEL 2 DURATION: 61.237782ms NOTE F  OCTAVE 5
NOTE OFF CHANNEL 2 DURATION: 61.272991ms NOTE F  OCTAVE 5
NOTE ON CHANNEL 2 DURATION: 61.281793ms NOTE F# OCTAVE 5
NOTE OFF CHANNEL 2 DURATION: 61.317001ms NOTE F# OCTAVE 5
NOTE ON CHANNEL 2 DURATION: 61.324043ms NOTE G  OCTAVE 5
NOTE OFF CHANNEL 2 DURATION: 61.35749ms NOTE G  OCTAVE 5
NOTE ON CHANNEL 2 DURATION: 61.366292ms NOTE G# OCTAVE 5
NOTE ON CHANNEL 2 DURATION: 61.366292ms NOTE A  OCTAVE 4
NOTE ON CHANNEL 2 DURATION: 61.368053ms NOTE A  OCTAVE 5
NOTE OFF CHANNEL 2 DURATION: 61.39974ms NOTE G# OCTAVE 5
NOTE ON CHANNEL 2 DURATION: 61.406782ms NOTE G  OCTAVE 5
NOTE OFF CHANNEL 2 DURATION: 61.443751ms NOTE G  OCTAVE 5
NOTE ON CHANNEL 2 DURATION: 61.452553ms NOTE F# OCTAVE 5
NOTE OFF CHANNEL 2 DURATION: 61.486001ms NOTE F# OCTAVE 5
NOTE ON CHANNEL 2 DURATION: 61.494803ms NOTE F  OCTAVE 5
NOTE OFF CHANNEL 2 DURATION: 61.52649ms NOTE F  OCTAVE 5
NOTE ON CHANNEL 2 DURATION: 61.535292ms NOTE E  OCTAVE 5
NOTE OFF CHANNEL 2 DURATION: 61.570501ms NOTE E  OCTAVE 5
NOTE OFF CHANNEL 2 DURATION: 61.575782ms NOTE A  OCTAVE 5
NOTE ON CHANNEL 2 DURATION: 61.577542ms NOTE F  OCTAVE 5
NOTE OFF CHANNEL 2 DURATION: 61.581063ms NOTE A  OCTAVE 4
NOTE OFF CHANNEL 2 DURATION: 61.612751ms NOTE F  OCTAVE 5
NOTE ON CHANNEL 2 DURATION: 61.621553ms NOTE F# OCTAVE 5
NOTE OFF CHANNEL 2 DURATION: 61.656761ms NOTE F# OCTAVE 5
NOTE ON CHANNEL 2 DURATION: 61.663803ms NOTE G  OCTAVE 5
NOTE OFF CHANNEL 2 DURATION: 61.69725ms NOTE G  OCTAVE 5
NOTE ON CHANNEL 2 DURATION: 61.707813ms NOTE A  OCTAVE 4
NOTE ON CHANNEL 2 DURATION: 61.709573ms NOTE A  OCTAVE 5
NOTE ON CHANNEL 2 DURATION: 61.709573ms NOTE G# OCTAVE 5
NOTE OFF CHANNEL 2 DURATION: 61.7395ms NOTE G# OCTAVE 5
NOTE ON CHANNEL 2 DURATION: 61.746542ms NOTE G  OCTAVE 5
NOTE OFF CHANNEL 2 DURATION: 61.751823ms NOTE A  OCTAVE 5
NOTE OFF CHANNEL 2 DURATION: 61.755344ms NOTE A  OCTAVE 4
NOTE OFF CHANNEL 2 DURATION: 61.78175ms NOTE G  OCTAVE 5
NOTE ON CHANNEL 2 DURATION: 61.790552ms NOTE B  OCTAVE 4
NOTE ON CHANNEL 2 DURATION: 61.790552ms NOTE B  OCTAVE 5
NOTE ON CHANNEL 2 DURATION: 61.790552ms NOTE F# OCTAVE 5
NOTE OFF CHANNEL 2 DURATION: 61.825761ms NOTE F# OCTAVE 5
NOTE ON CHANNEL 2 DURATION: 61.832802ms NOTE F  OCTAVE 5
NOTE OFF CHANNEL 2 DURATION: 61.86625ms NOTE F  OCTAVE 5
NOTE ON CHANNEL 2 DURATION: 61.875052ms NOTE E  OCTAVE 5
NOTE OFF CHANNEL 2 DURATION: 61.9085ms NOTE E  OCTAVE 5
NOTE ON CHANNEL 2 DURATION: 61.915542ms NOTE F  OCTAVE 5
NOTE OFF CHANNEL 2 DURATION: 61.952511ms NOTE F  OCTAVE 5
NOTE ON CHANNEL 2 DURATION: 61.959552ms NOTE F# OCTAVE 5
NOTE OFF CHANNEL 2 DURATION: 61.994761ms NOTE F# OCTAVE 5
NOTE ON CHANNEL 2 DURATION: 62.001802ms NOTE G  OCTAVE 5
NOTE OFF CHANNEL 2 DURATION: 62.03525ms NOTE G  OCTAVE 5
NOTE ON CHANNEL 2 DURATION: 62.044052ms NOTE G# OCTAVE 5
NOTE OFF CHANNEL 2 DURATION: 62.07926ms NOTE G# OCTAVE 5
NOTE ON CHANNEL 2 DURATION: 62.086302ms NOTE G  OCTAVE 5
NOTE OFF CHANNEL 2 DURATION: 62.12151ms NOTE G  OCTAVE 5
NOTE ON CHANNEL 2 DURATION: 62.130312ms NOTE F# OCTAVE 5
NOTE OFF CHANNEL 2 DURATION: 62.16376ms NOTE F# OCTAVE 5
NOTE ON CHANNEL 2 DURATION: 62.172562ms NOTE F  OCTAVE 5
NOTE OFF CHANNEL 2 DURATION: 62.20425ms NOTE F  OCTAVE 5
NOTE ON CHANNEL 2 DURATION: 62.213052ms NOTE E  OCTAVE 5
NOTE OFF CHANNEL 2 DURATION: 62.24826ms NOTE E  OCTAVE 5
NOTE ON CHANNEL 2 DURATION: 62.255302ms NOTE F  OCTAVE 5
NOTE OFF CHANNEL 2 DURATION: 62.29051ms NOTE F  OCTAVE 5
NOTE ON CHANNEL 2 DURATION: 62.299312ms NOTE F# OCTAVE 5
NOTE OFF CHANNEL 2 DURATION: 62.334521ms NOTE F# OCTAVE 5
NOTE ON CHANNEL 2 DURATION: 62.341562ms NOTE G  OCTAVE 5
NOTE OFF CHANNEL 2 DURATION: 62.37501ms NOTE G  OCTAVE 5
NOTE ON CHANNEL 2 DURATION: 62.382052ms NOTE G# OCTAVE 5
NOTE OFF CHANNEL 2 DURATION: 62.41726ms NOTE G# OCTAVE 5
NOTE ON CHANNEL 2 DURATION: 62.424302ms NOTE G  OCTAVE 5
NOTE OFF CHANNEL 2 DURATION: 62.46127ms NOTE G  OCTAVE 5
NOTE ON CHANNEL 2 DURATION: 62.468312ms NOTE F# OCTAVE 5
NOTE OFF CHANNEL 2 DURATION: 62.50352ms NOTE F# OCTAVE 5
NOTE ON CHANNEL 2 DURATION: 62.510562ms NOTE F  OCTAVE 5
NOTE OFF CHANNEL 2 DURATION: 62.54401ms NOTE F  OCTAVE 5
NOTE ON CHANNEL 2 DURATION: 62.552812ms NOTE E  OCTAVE 5
NOTE OFF CHANNEL 2 DURATION: 62.58802ms NOTE E  OCTAVE 5
NOTE ON CHANNEL 2 DURATION: 62.595062ms NOTE F  OCTAVE 5
NOTE OFF CHANNEL 2 DURATION: 62.63027ms NOTE F  OCTAVE 5
NOTE ON CHANNEL 2 DURATION: 62.637312ms NOTE F# OCTAVE 5
NOTE OFF CHANNEL 2 DURATION: 62.67252ms NOTE F# OCTAVE 5
NOTE ON CHANNEL 2 DURATION: 62.679562ms NOTE G  OCTAVE 5
NOTE OFF CHANNEL 2 DURATION: 62.71301ms NOTE G  OCTAVE 5
NOTE ON CHANNEL 2 DURATION: 62.723572ms NOTE G# OCTAVE 5
NOTE OFF CHANNEL 2 DURATION: 62.75702ms NOTE G# OCTAVE 5
NOTE ON CHANNEL 2 DURATION: 62.764062ms NOTE G  OCTAVE 5
NOTE OFF CHANNEL 2 DURATION: 62.79927ms NOTE G  OCTAVE 5
NOTE ON CHANNEL 2 DURATION: 62.808072ms NOTE F# OCTAVE 5
NOTE OFF CHANNEL 2 DURATION: 62.84328ms NOTE F# OCTAVE 5
NOTE OFF CHANNEL 2 DURATION: 62.84328ms NOTE B  OCTAVE 5
NOTE OFF CHANNEL 2 DURATION: 62.850322ms NOTE B  OCTAVE 4
NOTE ON CHANNEL 2 DURATION: 62.850322ms NOTE F  OCTAVE 5
NOTE OFF CHANNEL 2 DURATION: 62.88377ms NOTE F  OCTAVE 5
NOTE ON CHANNEL 2 DURATION: 62.890812ms NOTE E  OCTAVE 5
NOTE OFF CHANNEL 2 DURATION: 62.92602ms NOTE E  OCTAVE 5
NOTE ON CHANNEL 2 DURATION: 62.933061ms NOTE F  OCTAVE 5
NOTE OFF CHANNEL 2 DURATION: 62.96827ms NOTE F  OCTAVE 5
NOTE ON CHANNEL 2 DURATION: 62.977072ms NOTE F# OCTAVE 5
NOTE OFF CHANNEL 2 DURATION: 63.01228ms NOTE F# OCTAVE 5
NOTE ON CHANNEL 2 DURATION: 63.019322ms NOTE G  OCTAVE 5
NOTE OFF CHANNEL 2 DURATION: 63.05277ms NOTE G  OCTAVE 5
NOTE ON CHANNEL 2 DURATION: 63.059811ms NOTE F# OCTAVE 5
NOTE OFF CHANNEL 2 DURATION: 63.100301ms NOTE F# OCTAVE 5
NOTE ON CHANNEL 2 DURATION: 63.146072ms NOTE F# OCTAVE 5
NOTE OFF CHANNEL 2 DURATION: 63.198884ms NOTE F# OCTAVE 5
NOTE ON CHANNEL 2 DURATION: 63.230572ms NOTE D  OCTAVE 5
NOTE OFF CHANNEL 2 DURATION: 63.283384ms NOTE D  OCTAVE 5
NOTE ON CHANNEL 2 DURATION: 63.316832ms NOTE B  OCTAVE 4
NOTE OFF CHANNEL 2 DURATION: 63.362603ms NOTE B  OCTAVE 4
NOTE ON CHANNEL 2 DURATION: 63.485832ms NOTE B  OCTAVE 4
NOTE OFF CHANNEL 2 DURATION: 63.540405ms NOTE B  OCTAVE 4
NOTE ON CHANNEL 2 DURATION: 63.654831ms NOTE E  OCTAVE 5
NOTE OFF CHANNEL 2 DURATION: 63.702363ms NOTE E  OCTAVE 5
NOTE ON CHANNEL 2 DURATION: 63.823831ms NOTE E  OCTAVE 5
NOTE OFF CHANNEL 2 DURATION: 63.876644ms NOTE E  OCTAVE 5
NOTE ON CHANNEL 2 DURATION: 63.994592ms NOTE E  OCTAVE 5
NOTE OFF CHANNEL 2 DURATION: 64.045644ms NOTE E  OCTAVE 5
NOTE ON CHANNEL 2 DURATION: 64.079091ms NOTE G# OCTAVE 5
NOTE OFF CHANNEL 2 DURATION: 64.123102ms NOTE G# OCTAVE 5
NOTE ON CHANNEL 2 DURATION: 64.163591ms NOTE G# OCTAVE 5
NOTE OFF CHANNEL 2 DURATION: 64.211123ms NOTE G# OCTAVE 5
NOTE ON CHANNEL 2 DURATION: 64.246331ms NOTE A  OCTAVE 5
NOTE OFF CHANNEL 2 DURATION: 64.297383ms NOTE A  OCTAVE 5
NOTE ON CHANNEL 2 DURATION: 64.332591ms NOTE B  OCTAVE 5
NOTE OFF CHANNEL 2 DURATION: 64.385404ms NOTE B  OCTAVE 5
NOTE ON CHANNEL 2 DURATION: 64.417091ms NOTE F# OCTAVE 5
NOTE OFF CHANNEL 2 DURATION: 64.45582ms NOTE F# OCTAVE 5
NOTE ON CHANNEL 2 DURATION: 64.503351ms NOTE F# OCTAVE 5
NOTE OFF CHANNEL 2 DURATION: 64.554403ms NOTE F# OCTAVE 5
NOTE ON CHANNEL 2 DURATION: 64.586091ms NOTE D  OCTAVE 5
NOTE OFF CHANNEL 2 DURATION: 64.640664ms NOTE D  OCTAVE 5
NOTE ON CHANNEL 2 DURATION: 64.672351ms NOTE B  OCTAVE 4
NOTE OFF CHANNEL 2 DURATION: 64.719882ms NOTE B  OCTAVE 4
NOTE ON CHANNEL 2 DURATION: 64.841351ms NOTE B  OCTAVE 4
NOTE OFF CHANNEL 2 DURATION: 64.895924ms NOTE B  OCTAVE 4
NOTE ON CHANNEL 2 DURATION: 65.012111ms NOTE E  OCTAVE 5
NOTE OFF CHANNEL 2 DURATION: 65.057882ms NOTE E  OCTAVE 5
NOTE ON CHANNEL 2 DURATION: 65.181111ms NOTE E  OCTAVE 5
NOTE OFF CHANNEL 2 DURATION: 65.232163ms NOTE E  OCTAVE 5
NOTE ON CHANNEL 2 DURATION: 65.351871ms NOTE E  OCTAVE 5
NOTE OFF CHANNEL 2 DURATION: 65.401163ms NOTE E  OCTAVE 5
NOTE ON CHANNEL 2 DURATION: 65.436371ms NOTE G# OCTAVE 5
NOTE OFF CHANNEL 2 DURATION: 65.478621ms NOTE G# OCTAVE 5
NOTE ON CHANNEL 2 DURATION: 65.520871ms NOTE G# OCTAVE 5
NOTE OFF CHANNEL 2 DURATION: 65.566642ms NOTE G# OCTAVE 5
NOTE ON CHANNEL 2 DURATION: 65.60361ms NOTE A  OCTAVE 5
NOTE OFF CHANNEL 2 DURATION: 65.652902ms NOTE A  OCTAVE 5
NOTE ON CHANNEL 2 DURATION: 65.689871ms NOTE B  OCTAVE 5
NOTE OFF CHANNEL 2 DURATION: 65.740923ms NOTE B  OCTAVE 5
NOTE ON CHANNEL 2 DURATION: 65.776131ms NOTE F# OCTAVE 5
NOTE OFF CHANNEL 2 DURATION: 65.8131ms NOTE F# OCTAVE 5
NOTE ON CHANNEL 2 DURATION: 65.858871ms NOTE F# OCTAVE 5
NOTE OFF CHANNEL 2 DURATION: 65.909923ms NOTE F# OCTAVE 5
NOTE ON CHANNEL 2 DURATION: 65.945131ms NOTE D  OCTAVE 5
NOTE OFF CHANNEL 2 DURATION: 65.996183ms NOTE D  OCTAVE 5
NOTE ON CHANNEL 2 DURATION: 66.029631ms NOTE B  OCTAVE 4
NOTE OFF CHANNEL 2 DURATION: 66.075402ms NOTE B  OCTAVE 4
NOTE ON CHANNEL 2 DURATION: 66.198631ms NOTE B  OCTAVE 4
NOTE OFF CHANNEL 2 DURATION: 66.251443ms NOTE B  OCTAVE 4
NOTE ON CHANNEL 2 DURATION: 66.36763ms NOTE E  OCTAVE 5
NOTE OFF CHANNEL 2 DURATION: 66.415162ms NOTE E  OCTAVE 5
NOTE ON CHANNEL 2 DURATION: 66.538391ms NOTE E  OCTAVE 5
NOTE OFF CHANNEL 2 DURATION: 66.589443ms NOTE E  OCTAVE 5
NOTE ON CHANNEL 2 DURATION: 66.70739ms NOTE E  OCTAVE 5
NOTE OFF CHANNEL 2 DURATION: 66.758442ms NOTE E  OCTAVE 5
NOTE ON CHANNEL 2 DURATION: 66.793651ms NOTE G# OCTAVE 5
NOTE OFF CHANNEL 2 DURATION: 66.835901ms NOTE G# OCTAVE 5
NOTE ON CHANNEL 2 DURATION: 66.878151ms NOTE G# OCTAVE 5
NOTE OFF CHANNEL 2 DURATION: 66.922161ms NOTE G# OCTAVE 5
NOTE ON CHANNEL 2 DURATION: 66.96089ms NOTE A  OCTAVE 5
NOTE OFF CHANNEL 2 DURATION: 67.008421ms NOTE A  OCTAVE 5
NOTE ON CHANNEL 2 DURATION: 67.04715ms NOTE B  OCTAVE 5
NOTE OFF CHANNEL 2 DURATION: 67.096442ms NOTE B  OCTAVE 5
NOTE ON CHANNEL 2 DURATION: 67.133411ms NOTE A  OCTAVE 5
NOTE OFF CHANNEL 2 DURATION: 67.170379ms NOTE A  OCTAVE 5
NOTE ON CHANNEL 2 DURATION: 67.21615ms NOTE A  OCTAVE 5
NOTE OFF CHANNEL 2 DURATION: 67.260161ms NOTE A  OCTAVE 5
NOTE ON CHANNEL 2 DURATION: 67.30065ms NOTE A  OCTAVE 5
NOTE OFF CHANNEL 2 DURATION: 67.34114ms NOTE A  OCTAVE 5
NOTE ON CHANNEL 2 DURATION: 67.38515ms NOTE E  OCTAVE 5
NOTE OFF CHANNEL 2 DURATION: 67.42916ms NOTE E  OCTAVE 5
NOTE ON CHANNEL 2 DURATION: 67.55591ms NOTE D  OCTAVE 5
NOTE OFF CHANNEL 2 DURATION: 67.5964ms NOTE D  OCTAVE 5
NOTE ON CHANNEL 2 DURATION: 67.72491ms NOTE F# OCTAVE 5
NOTE OFF CHANNEL 2 DURATION: 67.770681ms NOTE F# OCTAVE 5
NOTE ON CHANNEL 2 DURATION: 67.89391ms NOTE F# OCTAVE 5
NOTE OFF CHANNEL 2 DURATION: 67.939681ms NOTE F# OCTAVE 5
NOTE ON CHANNEL 2 DURATION: 68.06291ms NOTE F# OCTAVE 5
NOTE OFF CHANNEL 2 DURATION: 68.10692ms NOTE F# OCTAVE 5
NOTE ON CHANNEL 2 DURATION: 68.14917ms NOTE E  OCTAVE 5
NOTE OFF CHANNEL 2 DURATION: 68.194941ms NOTE E  OCTAVE 5
NOTE ON CHANNEL 2 DURATION: 68.23367ms NOTE E  OCTAVE 5
NOTE OFF CHANNEL 2 DURATION: 68.281201ms NOTE E  OCTAVE 5
NOTE ON CHANNEL 2 DURATION: 68.316409ms NOTE F# OCTAVE 5
NOTE OFF CHANNEL 2 DURATION: 68.36042ms NOTE F# OCTAVE 5
NOTE ON CHANNEL 2 DURATION: 68.40267ms NOTE E  OCTAVE 5
NOTE OFF CHANNEL 2 DURATION: 68.450201ms NOTE E  OCTAVE 5
NOTE ON CHANNEL 2 DURATION: 68.48893ms NOTE F# OCTAVE 5
NOTE OFF CHANNEL 2 DURATION: 68.52942ms NOTE F# OCTAVE 5
NOTE ON CHANNEL 2 DURATION: 68.571669ms NOTE F# OCTAVE 5
NOTE OFF CHANNEL 2 DURATION: 68.61744ms NOTE F# OCTAVE 5
NOTE ON CHANNEL 2 DURATION: 68.656169ms NOTE D  OCTAVE 5
NOTE OFF CHANNEL 2 DURATION: 68.70194ms NOTE D  OCTAVE 5
NOTE ON CHANNEL 2 DURATION: 68.740669ms NOTE B  OCTAVE 4
NOTE OFF CHANNEL 2 DURATION: 68.781159ms NOTE B  OCTAVE 4
NOTE ON CHANNEL 2 DURATION: 68.91143ms NOTE B  OCTAVE 4
NOTE OFF CHANNEL 2 DURATION: 68.958961ms NOTE B  OCTAVE 4
NOTE ON CHANNEL 2 DURATION: 69.080429ms NOTE E  OCTAVE 5
NOTE OFF CHANNEL 2 DURATION: 69.129721ms NOTE E  OCTAVE 5
NOTE ON CHANNEL 2 DURATION: 69.249429ms NOTE E  OCTAVE 5
NOTE OFF CHANNEL 2 DURATION: 69.305762ms NOTE E  OCTAVE 5
NOTE ON CHANNEL 2 DURATION: 69.420189ms NOTE E  OCTAVE 5
NOTE OFF CHANNEL 2 DURATION: 69.467721ms NOTE E  OCTAVE 5
NOTE ON CHANNEL 2 DURATION: 69.504689ms NOTE G# OCTAVE 5
NOTE OFF CHANNEL 2 DURATION: 69.5487ms NOTE G# OCTAVE 5
NOTE ON CHANNEL 2 DURATION: 69.589189ms NOTE G# OCTAVE 5
NOTE OFF CHANNEL 2 DURATION: 69.629679ms NOTE G# OCTAVE 5
NOTE ON CHANNEL 2 DURATION: 69.673689ms NOTE A  OCTAVE 5
NOTE OFF CHANNEL 2 DURATION: 69.715939ms NOTE A  OCTAVE 5
NOTE ON CHANNEL 2 DURATION: 69.758189ms NOTE B  OCTAVE 5
NOTE OFF CHANNEL 2 DURATION: 69.802199ms NOTE B  OCTAVE 5
NOTE ON CHANNEL 2 DURATION: 69.844449ms NOTE A  OCTAVE 5
NOTE OFF CHANNEL 2 DURATION: 69.881418ms NOTE A  OCTAVE 5
NOTE ON CHANNEL 2 DURATION: 69.927189ms NOTE A  OCTAVE 5
NOTE OFF CHANNEL 2 DURATION: 69.969439ms NOTE A  OCTAVE 5
NOTE ON CHANNEL 2 DURATION: 70.011689ms NOTE A  OCTAVE 5
NOTE OFF CHANNEL 2 DURATION: 70.043376ms NOTE A  OCTAVE 5
NOTE ON CHANNEL 2 DURATION: 70.097949ms NOTE E  OCTAVE 5
NOTE OFF CHANNEL 2 DURATION: 70.133157ms NOTE E  OCTAVE 5
NOTE ON CHANNEL 2 DURATION: 70.268709ms NOTE D  OCTAVE 5
NOTE OFF CHANNEL 2 DURATION: 70.296876ms NOTE D  OCTAVE 5
NOTE ON CHANNEL 2 DURATION: 70.435949ms NOTE F# OCTAVE 5
NOTE OFF CHANNEL 2 DURATION: 70.472917ms NOTE F# OCTAVE 5
NOTE ON CHANNEL 2 DURATION: 70.606709ms NOTE F# OCTAVE 5
NOTE OFF CHANNEL 2 DURATION: 70.647198ms NOTE F# OCTAVE 5
NOTE ON CHANNEL 2 DURATION: 70.775709ms NOTE F# OCTAVE 5
NOTE OFF CHANNEL 2 DURATION: 70.819719ms NOTE F# OCTAVE 5
NOTE ON CHANNEL 2 DURATION: 70.860208ms NOTE E  OCTAVE 5
NOTE OFF CHANNEL 2 DURATION: 70.900698ms NOTE E  OCTAVE 5
NOTE ON CHANNEL 2 DURATION: 70.946469ms NOTE E  OCTAVE 5
NOTE OFF CHANNEL 2 DURATION: 70.99576ms NOTE E  OCTAVE 5
NOTE ON CHANNEL 2 DURATION: 71.029208ms NOTE F# OCTAVE 5
NOTE OFF CHANNEL 2 DURATION: 71.074979ms NOTE F# OCTAVE 5
NOTE ON CHANNEL 2 DURATION: 71.115469ms NOTE E  OCTAVE 5
NOTE OFF CHANNEL 2 DURATION: 71.163ms NOTE E  OCTAVE 5
NOTE ON CHANNEL 2 DURATION: 71.199969ms NOTE F# OCTAVE 5
NOTE OFF CHANNEL 2 DURATION: 71.238698ms NOTE F# OCTAVE 5
NOTE ON CHANNEL 2 DURATION: 71.368968ms NOTE D  OCTAVE 5
NOTE OFF CHANNEL 2 DURATION: 71.421781ms NOTE D  OCTAVE 5
NOTE ON CHANNEL 2 DURATION: 71.453468ms NOTE B  OCTAVE 4
NOTE OFF CHANNEL 2 DURATION: 71.499239ms NOTE B  OCTAVE 4
NOTE ON CHANNEL 2 DURATION: 71.624228ms NOTE B  OCTAVE 4
NOTE OFF CHANNEL 2 DURATION: 71.677041ms NOTE B  OCTAVE 4
NOTE ON CHANNEL 2 DURATION: 71.793228ms NOTE E  OCTAVE 5
NOTE OFF CHANNEL 2 DURATION: 71.838999ms NOTE E  OCTAVE 5
NOTE ON CHANNEL 2 DURATION: 71.962228ms NOTE E  OCTAVE 5
NOTE OFF CHANNEL 2 DURATION: 72.01328ms NOTE E  OCTAVE 5
NOTE ON CHANNEL 2 DURATION: 72.131228ms NOTE E  OCTAVE 5
NOTE OFF CHANNEL 2 DURATION: 72.18228ms NOTE E  OCTAVE 5
NOTE ON CHANNEL 2 DURATION: 72.301988ms NOTE G# OCTAVE 5
NOTE OFF CHANNEL 2 DURATION: 72.347759ms NOTE G# OCTAVE 5
NOTE ON CHANNEL 2 DURATION: 72.384728ms NOTE A  OCTAVE 5
NOTE OFF CHANNEL 2 DURATION: 72.434019ms NOTE A  OCTAVE 5
NOTE ON CHANNEL 2 DURATION: 72.470988ms NOTE B  OCTAVE 5
NOTE OFF CHANNEL 2 DURATION: 72.52204ms NOTE B  OCTAVE 5
NOTE ON CHANNEL 2 DURATION: 72.557248ms NOTE A  OCTAVE 5
NOTE OFF CHANNEL 2 DURATION: 72.595977ms NOTE A  OCTAVE 5
NOTE ON CHANNEL 2 DURATION: 72.639988ms NOTE A  OCTAVE 5
NOTE OFF CHANNEL 2 DURATION: 72.683998ms NOTE A  OCTAVE 5
NOTE ON CHANNEL 2 DURATION: 72.724488ms NOTE A  OCTAVE 5
NOTE OFF CHANNEL 2 DURATION: 72.764977ms NOTE A  OCTAVE 5
NOTE ON CHANNEL 2 DURATION: 72.979748ms NOTE D  OCTAVE 5
NOTE OFF CHANNEL 2 DURATION: 73.020237ms NOTE D  OCTAVE 5
NOTE ON CHANNEL 2 DURATION: 73.573007ms NOTE E  OCTAVE 5
NOTE OFF CHANNEL 2 DURATION: 73.620539ms NOTE E  OCTAVE 5
NOTE ON CHANNEL 2 DURATION: 73.657507ms NOTE E  OCTAVE 5
NOTE OFF CHANNEL 2 DURATION: 73.706799ms NOTE E  OCTAVE 5
TEMPOOOOOOOooo 168.99980283356336
NOTE ON CHANNEL 3 DURATION: 16.951032ms NOTE D  OCTAVE 4
NOTE OFF CHANNEL 3 DURATION: 17.15524ms NOTE D  OCTAVE 4
NOTE ON CHANNEL 3 DURATION: 17.204532ms NOTE D  OCTAVE 4
NOTE OFF CHANNEL 3 DURATION: 17.359448ms NOTE D  OCTAVE 4
NOTE ON CHANNEL 3 DURATION: 17.375292ms NOTE C# OCTAVE 4
NOTE OFF CHANNEL 3 DURATION: 17.45451ms NOTE C# OCTAVE 4
NOTE ON CHANNEL 3 DURATION: 17.461552ms NOTE B  OCTAVE 3
NOTE OFF CHANNEL 3 DURATION: 18.239655ms NOTE B  OCTAVE 3
NOTE ON CHANNEL 3 DURATION: 18.308311ms NOTE C# OCTAVE 4
NOTE OFF CHANNEL 3 DURATION: 18.375207ms NOTE C# OCTAVE 4
NOTE ON CHANNEL 3 DURATION: 18.391051ms NOTE C# OCTAVE 4
NOTE OFF CHANNEL 3 DURATION: 18.505478ms NOTE C# OCTAVE 4
NOTE ON CHANNEL 3 DURATION: 18.560051ms NOTE C# OCTAVE 4
NOTE OFF CHANNEL 3 DURATION: 18.722009ms NOTE C# OCTAVE 4
NOTE ON CHANNEL 3 DURATION: 18.730811ms NOTE A  OCTAVE 3
NOTE OFF CHANNEL 3 DURATION: 18.846998ms NOTE A  OCTAVE 3
NOTE ON CHANNEL 3 DURATION: 19.068811ms NOTE F# OCTAVE 4
NOTE OFF CHANNEL 3 DURATION: 19.137467ms NOTE F# OCTAVE 4
NOTE ON CHANNEL 3 DURATION: 19.239571ms NOTE F# OCTAVE 4
NOTE OFF CHANNEL 3 DURATION: 19.285342ms NOTE F# OCTAVE 4
NOTE ON CHANNEL 3 DURATION: 19.325831ms NOTE F# OCTAVE 4
NOTE OFF CHANNEL 3 DURATION: 19.486029ms NOTE F# OCTAVE 4
NOTE ON CHANNEL 3 DURATION: 19.494831ms NOTE E  OCTAVE 4
NOTE OFF CHANNEL 3 DURATION: 19.656789ms NOTE E  OCTAVE 4
NOTE ON CHANNEL 3 DURATION: 19.663831ms NOTE D  OCTAVE 4
NOTE OFF CHANNEL 3 DURATION: 19.87156ms NOTE D  OCTAVE 4
NOTE ON CHANNEL 3 DURATION: 19.91733ms NOTE D  OCTAVE 4
NOTE OFF CHANNEL 3 DURATION: 19.977185ms NOTE D  OCTAVE 4
NOTE ON CHANNEL 3 DURATION: 20.003591ms NOTE D  OCTAVE 4
NOTE OFF CHANNEL 3 DURATION: 20.077528ms NOTE D  OCTAVE 4
NOTE ON CHANNEL 3 DURATION: 20.08633ms NOTE C# OCTAVE 4
NOTE OFF CHANNEL 3 DURATION: 20.241247ms NOTE C# OCTAVE 4
NOTE ON CHANNEL 3 DURATION: 20.25533ms NOTE B  OCTAVE 3
NOTE OFF CHANNEL 3 DURATION: 20.878517ms NOTE B  OCTAVE 3
NOTE ON CHANNEL 3 DURATION: 21.01935ms NOTE C# OCTAVE 4
NOTE OFF CHANNEL 3 DURATION: 21.091527ms NOTE C# OCTAVE 4
NOTE ON CHANNEL 3 DURATION: 21.10385ms NOTE C# OCTAVE 4
NOTE OFF CHANNEL 3 DURATION: 21.207714ms NOTE C# OCTAVE 4
NOTE ON CHANNEL 3 DURATION: 21.27285ms NOTE C# OCTAVE 4
NOTE OFF CHANNEL 3 DURATION: 21.434808ms NOTE C# OCTAVE 4
NOTE ON CHANNEL 3 DURATION: 21.44361ms NOTE B  OCTAVE 3
NOTE OFF CHANNEL 3 DURATION: 21.603808ms NOTE B  OCTAVE 3
NOTE ON CHANNEL 3 DURATION: 21.61261ms NOTE A  OCTAVE 3
NOTE OFF CHANNEL 3 DURATION: 21.772807ms NOTE A  OCTAVE 3
NOTE ON CHANNEL 3 DURATION: 21.78161ms NOTE B  OCTAVE 3
NOTE OFF CHANNEL 3 DURATION: 21.943568ms NOTE B  OCTAVE 3
NOTE ON CHANNEL 3 DURATION: 21.950609ms NOTE C# OCTAVE 4
NOTE OFF CHANNEL 3 DURATION: 22.033349ms NOTE C# OCTAVE 4
NOTE ON CHANNEL 3 DURATION: 22.03863ms NOTE B  OCTAVE 3
NOTE OFF CHANNEL 3 DURATION: 22.195307ms NOTE B  OCTAVE 3
NOTE ON CHANNEL 3 DURATION: 22.20763ms NOTE A  OCTAVE 3
NOTE OFF CHANNEL 3 DURATION: 22.360786ms NOTE A  OCTAVE 3
NOTE ON CHANNEL 3 DURATION: 22.545629ms NOTE D  OCTAVE 4
NOTE OFF CHANNEL 3 DURATION: 22.770963ms NOTE D  OCTAVE 4
NOTE ON CHANNEL 3 DURATION: 22.799129ms NOTE D  OCTAVE 4
NOTE OFF CHANNEL 3 DURATION: 22.860744ms NOTE D  OCTAVE 4
NOTE ON CHANNEL 3 DURATION: 22.885389ms NOTE D  OCTAVE 4
NOTE OFF CHANNEL 3 DURATION: 22.943483ms NOTE D  OCTAVE 4
NOTE ON CHANNEL 3 DURATION: 22.968129ms NOTE D  OCTAVE 4
NOTE OFF CHANNEL 3 DURATION: 23.084316ms NOTE D  OCTAVE 4
NOTE ON CHANNEL 3 DURATION: 23.902909ms NOTE A  OCTAVE 3
NOTE OFF CHANNEL 3 DURATION: 23.955722ms NOTE A  OCTAVE 3
NOTE ON CHANNEL 3 DURATION: 23.985649ms NOTE A  OCTAVE 3
NOTE OFF CHANNEL 3 DURATION: 24.036701ms NOTE A  OCTAVE 3
NOTE ON CHANNEL 3 DURATION: 24.071909ms NOTE A  OCTAVE 3
NOTE OFF CHANNEL 3 DURATION: 24.121201ms NOTE A  OCTAVE 3
NOTE ON CHANNEL 3 DURATION: 24.154648ms NOTE A  OCTAVE 3
NOTE OFF CHANNEL 3 DURATION: 24.20218ms NOTE A  OCTAVE 3
NOTE ON CHANNEL 3 DURATION: 24.240909ms NOTE A  OCTAVE 3
NOTE OFF CHANNEL 3 DURATION: 24.28844ms NOTE A  OCTAVE 3
NOTE ON CHANNEL 3 DURATION: 24.323648ms NOTE A  OCTAVE 3
NOTE OFF CHANNEL 3 DURATION: 24.371179ms NOTE A  OCTAVE 3
NOTE ON CHANNEL 3 DURATION: 24.409909ms NOTE A  OCTAVE 3
NOTE ON CHANNEL 3 DURATION: 24.494408ms NOTE G# OCTAVE 3
NOTE OFF CHANNEL 3 DURATION: 24.519054ms NOTE A  OCTAVE 3
NOTE OFF CHANNEL 3 DURATION: 24.654606ms NOTE G# OCTAVE 3
NOTE ON CHANNEL 3 DURATION: 24.663408ms NOTE F# OCTAVE 3
NOTE OFF CHANNEL 3 DURATION: 24.872898ms NOTE F# OCTAVE 3
NOTE ON CHANNEL 3 DURATION: 25.089429ms NOTE A  OCTAVE 2
NOTE OFF CHANNEL 3 DURATION: 25.758386ms NOTE A  OCTAVE 2
NOTE ON CHANNEL 3 DURATION: 25.767188ms NOTE G# OCTAVE 3
NOTE OFF CHANNEL 3 DURATION: 26.436146ms NOTE G# OCTAVE 3
NOTE ON CHANNEL 3 DURATION: 26.444948ms NOTE A  OCTAVE 3
NOTE ON CHANNEL 3 DURATION: 27.122707ms NOTE E  OCTAVE 4
NOTE OFF CHANNEL 3 DURATION: 27.333957ms NOTE E  OCTAVE 4
NOTE ON CHANNEL 3 DURATION: 27.374447ms NOTE F# OCTAVE 4
NOTE OFF CHANNEL 3 DURATION: 27.580415ms NOTE F# OCTAVE 4
NOTE ON CHANNEL 3 DURATION: 27.587457ms NOTE E  OCTAVE 4
NOTE OFF CHANNEL 3 DURATION: 27.793425ms NOTE A  OCTAVE 3
NOTE OFF CHANNEL 3 DURATION: 27.796946ms NOTE E  OCTAVE 4
NOTE ON CHANNEL 3 DURATION: 27.802227ms NOTE A  OCTAVE 3
NOTE OFF CHANNEL 3 DURATION: 28.471185ms NOTE A  OCTAVE 3
NOTE ON CHANNEL 3 DURATION: 28.478227ms NOTE E  OCTAVE 4
NOTE OFF CHANNEL 3 DURATION: 29.148945ms NOTE E  OCTAVE 4
NOTE ON CHANNEL 3 DURATION: 29.155986ms NOTE F# OCTAVE 4
NOTE OFF CHANNEL 3 DURATION: 29.835506ms NOTE F# OCTAVE 4
NOTE ON CHANNEL 3 DURATION: 29.835506ms NOTE E  OCTAVE 4
NOTE OFF CHANNEL 3 DURATION: 30.046756ms NOTE E  OCTAVE 4
NOTE ON CHANNEL 3 DURATION: 30.090766ms NOTE F# OCTAVE 4
NOTE OFF CHANNEL 3 DURATION: 30.300256ms NOTE F# OCTAVE 4
NOTE ON CHANNEL 3 DURATION: 30.300256ms NOTE E  OCTAVE 4
NOTE OFF CHANNEL 3 DURATION: 30.506224ms NOTE E  OCTAVE 4
NOTE ON CHANNEL 3 DURATION: 30.513266ms NOTE C# OCTAVE 4
NOTE OFF CHANNEL 3 DURATION: 31.182224ms NOTE C# OCTAVE 4
NOTE ON CHANNEL 3 DURATION: 31.191026ms NOTE G# OCTAVE 4
NOTE OFF CHANNEL 3 DURATION: 31.851181ms NOTE G# OCTAVE 4
NOTE ON CHANNEL 3 DURATION: 31.868785ms NOTE A  OCTAVE 4
NOTE OFF CHANNEL 3 DURATION: 32.708503ms NOTE A  OCTAVE 4
NOTE ON CHANNEL 3 DURATION: 32.715545ms NOTE B  OCTAVE 4
NOTE OFF CHANNEL 3 DURATION: 32.794763ms NOTE B  OCTAVE 4
NOTE ON CHANNEL 3 DURATION: 32.801805ms NOTE C# OCTAVE 5
NOTE OFF CHANNEL 3 DURATION: 32.963763ms NOTE C# OCTAVE 5
NOTE ON CHANNEL 3 DURATION: 32.972565ms NOTE B  OCTAVE 4
NOTE OFF CHANNEL 3 DURATION: 33.048263ms NOTE B  OCTAVE 4
NOTE ON CHANNEL 3 DURATION: 33.055305ms NOTE A  OCTAVE 4
NOTE OFF CHANNEL 3 DURATION: 33.183815ms NOTE A  OCTAVE 4
NOTE ON CHANNEL 3 DURATION: 33.227825ms NOTE E  OCTAVE 5
NOTE OFF CHANNEL 3 DURATION: 35.930062ms NOTE E  OCTAVE 5
NOTE ON CHANNEL 3 DURATION: 35.937103ms NOTE D  OCTAVE 4
NOTE OFF CHANNEL 3 DURATION: 36.141312ms NOTE D  OCTAVE 4
NOTE ON CHANNEL 3 DURATION: 36.192364ms NOTE D  OCTAVE 4
NOTE OFF CHANNEL 3 DURATION: 36.34552ms NOTE D  OCTAVE 4
NOTE ON CHANNEL 3 DURATION: 36.363124ms NOTE C# OCTAVE 4
NOTE OFF CHANNEL 3 DURATION: 36.440582ms NOTE C# OCTAVE 4
NOTE ON CHANNEL 3 DURATION: 36.447624ms NOTE B  OCTAVE 3
NOTE OFF CHANNEL 3 DURATION: 37.225727ms NOTE B  OCTAVE 3
NOTE ON CHANNEL 3 DURATION: 37.294383ms NOTE C# OCTAVE 4
NOTE OFF CHANNEL 3 DURATION: 37.3648ms NOTE C# OCTAVE 4
NOTE ON CHANNEL 3 DURATION: 37.378883ms NOTE C# OCTAVE 4
NOTE OFF CHANNEL 3 DURATION: 37.49155ms NOTE C# OCTAVE 4
NOTE ON CHANNEL 3 DURATION: 37.549643ms NOTE C# OCTAVE 4
NOTE OFF CHANNEL 3 DURATION: 37.711601ms NOTE C# OCTAVE 4
NOTE ON CHANNEL 3 DURATION: 37.718643ms NOTE A  OCTAVE 3
NOTE OFF CHANNEL 3 DURATION: 37.83307ms NOTE A  OCTAVE 3
NOTE ON CHANNEL 3 DURATION: 38.058403ms NOTE F# OCTAVE 4
NOTE OFF CHANNEL 3 DURATION: 38.123538ms NOTE F# OCTAVE 4
NOTE ON CHANNEL 3 DURATION: 38.227403ms NOTE F# OCTAVE 4
NOTE OFF CHANNEL 3 DURATION: 38.274934ms NOTE F# OCTAVE 4
NOTE ON CHANNEL 3 DURATION: 38.311903ms NOTE F# OCTAVE 4
NOTE OFF CHANNEL 3 DURATION: 38.4721ms NOTE F# OCTAVE 4
NOTE ON CHANNEL 3 DURATION: 38.480903ms NOTE E  OCTAVE 4
NOTE OFF CHANNEL 3 DURATION: 38.6411ms NOTE E  OCTAVE 4
NOTE ON CHANNEL 3 DURATION: 38.649902ms NOTE D  OCTAVE 4
NOTE OFF CHANNEL 3 DURATION: 38.857631ms NOTE D  OCTAVE 4
NOTE ON CHANNEL 3 DURATION: 38.905162ms NOTE D  OCTAVE 4
NOTE OFF CHANNEL 3 DURATION: 38.963256ms NOTE D  OCTAVE 4
NOTE ON CHANNEL 3 DURATION: 38.989662ms NOTE D  OCTAVE 4
NOTE OFF CHANNEL 3 DURATION: 39.067121ms NOTE D  OCTAVE 4
NOTE ON CHANNEL 3 DURATION: 39.075923ms NOTE C# OCTAVE 4
NOTE OFF CHANNEL 3 DURATION: 39.229079ms NOTE C# OCTAVE 4
NOTE ON CHANNEL 3 DURATION: 39.244922ms NOTE B  OCTAVE 3
NOTE OFF CHANNEL 3 DURATION: 39.866349ms NOTE B  OCTAVE 3
NOTE ON CHANNEL 3 DURATION: 40.007182ms NOTE C# OCTAVE 4
NOTE OFF CHANNEL 3 DURATION: 40.077599ms NOTE C# OCTAVE 4
NOTE ON CHANNEL 3 DURATION: 40.091682ms NOTE C# OCTAVE 4
NOTE OFF CHANNEL 3 DURATION: 40.193786ms NOTE C# OCTAVE 4
NOTE ON CHANNEL 3 DURATION: 40.260682ms NOTE C# OCTAVE 4
NOTE OFF CHANNEL 3 DURATION: 40.42264ms NOTE C# OCTAVE 4
NOTE ON CHANNEL 3 DURATION: 40.431442ms NOTE B  OCTAVE 3
NOTE OFF CHANNEL 3 DURATION: 40.59164ms NOTE B  OCTAVE 3
NOTE ON CHANNEL 3 DURATION: 40.600442ms NOTE A  OCTAVE 3
NOTE OFF CHANNEL 3 DURATION: 40.7624ms NOTE A  OCTAVE 3
NOTE ON CHANNEL 3 DURATION: 40.769442ms NOTE B  OCTAVE 3
NOTE OFF CHANNEL 3 DURATION: 40.9314ms NOTE B  OCTAVE 3
NOTE ON CHANNEL 3 DURATION: 40.940202ms NOTE C# OCTAVE 4
NOTE OFF CHANNEL 3 DURATION: 41.01942ms NOTE C# OCTAVE 4
NOTE ON CHANNEL 3 DURATION: 41.024702ms NOTE B  OCTAVE 3
NOTE OFF CHANNEL 3 DURATION: 41.181379ms NOTE B  OCTAVE 3
NOTE ON CHANNEL 3 DURATION: 41.193701ms NOTE A  OCTAVE 3
NOTE OFF CHANNEL 3 DURATION: 41.346858ms NOTE A  OCTAVE 3
NOTE ON CHANNEL 3 DURATION: 41.531701ms NOTE D  OCTAVE 4
NOTE OFF CHANNEL 3 DURATION: 41.760555ms NOTE D  OCTAVE 4
NOTE ON CHANNEL 3 DURATION: 41.788722ms NOTE D  OCTAVE 4
NOTE OFF CHANNEL 3 DURATION: 41.848576ms NOTE D  OCTAVE 4
NOTE ON CHANNEL 3 DURATION: 41.871461ms NOTE D  OCTAVE 4
NOTE OFF CHANNEL 3 DURATION: 41.929555ms NOTE D  OCTAVE 4
NOTE ON CHANNEL 3 DURATION: 41.955961ms NOTE D  OCTAVE 4
NOTE OFF CHANNEL 3 DURATION: 42.070388ms NOTE D  OCTAVE 4
NOTE ON CHANNEL 3 DURATION: 42.888981ms NOTE A  OCTAVE 3
NOTE OFF CHANNEL 3 DURATION: 42.941793ms NOTE A  OCTAVE 3
NOTE ON CHANNEL 3 DURATION: 42.973481ms NOTE A  OCTAVE 3
NOTE OFF CHANNEL 3 DURATION: 43.022772ms NOTE A  OCTAVE 3
NOTE ON CHANNEL 3 DURATION: 43.057981ms NOTE A  OCTAVE 3
NOTE OFF CHANNEL 3 DURATION: 43.109033ms NOTE A  OCTAVE 3
NOTE ON CHANNEL 3 DURATION: 43.144241ms NOTE A  OCTAVE 3
NOTE OFF CHANNEL 3 DURATION: 43.190012ms NOTE A  OCTAVE 3
NOTE ON CHANNEL 3 DURATION: 43.22698ms NOTE A  OCTAVE 3
NOTE OFF CHANNEL 3 DURATION: 43.274512ms NOTE A  OCTAVE 3
NOTE ON CHANNEL 3 DURATION: 43.313241ms NOTE A  OCTAVE 3
NOTE OFF CHANNEL 3 DURATION: 43.357251ms NOTE A  OCTAVE 3
NOTE ON CHANNEL 3 DURATION: 43.39598ms NOTE A  OCTAVE 3
NOTE ON CHANNEL 3 DURATION: 43.48224ms NOTE G# OCTAVE 3
NOTE OFF CHANNEL 3 DURATION: 43.505126ms NOTE A  OCTAVE 3
NOTE OFF CHANNEL 3 DURATION: 43.644199ms NOTE G# OCTAVE 3
NOTE ON CHANNEL 3 DURATION: 43.65124ms NOTE F# OCTAVE 3
NOTE OFF CHANNEL 3 DURATION: 43.86249ms NOTE F# OCTAVE 3
NOTE ON CHANNEL 3 DURATION: 44.0755ms NOTE A  OCTAVE 2
NOTE OFF CHANNEL 3 DURATION: 44.744458ms NOTE A  OCTAVE 2
NOTE ON CHANNEL 3 DURATION: 44.75326ms NOTE G# OCTAVE 3
NOTE OFF CHANNEL 3 DURATION: 45.422217ms NOTE G# OCTAVE 3
NOTE ON CHANNEL 3 DURATION: 45.431019ms NOTE A  OCTAVE 3
NOTE ON CHANNEL 3 DURATION: 46.108779ms NOTE E  OCTAVE 4
NOTE OFF CHANNEL 3 DURATION: 46.320029ms NOTE E  OCTAVE 4
NOTE ON CHANNEL 3 DURATION: 46.364039ms NOTE F# OCTAVE 4
NOTE OFF CHANNEL 3 DURATION: 46.566487ms NOTE F# OCTAVE 4
NOTE ON CHANNEL 3 DURATION: 46.573528ms NOTE E  OCTAVE 4
NOTE OFF CHANNEL 3 DURATION: 46.779497ms NOTE A  OCTAVE 3
NOTE OFF CHANNEL 3 DURATION: 46.783018ms NOTE E  OCTAVE 4
NOTE ON CHANNEL 3 DURATION: 46.788299ms NOTE A  OCTAVE 3
NOTE OFF CHANNEL 3 DURATION: 47.457257ms NOTE A  OCTAVE 3
NOTE ON CHANNEL 3 DURATION: 47.466059ms NOTE E  OCTAVE 4
NOTE OFF CHANNEL 3 DURATION: 48.135016ms NOTE E  OCTAVE 4
NOTE ON CHANNEL 3 DURATION: 48.142058ms NOTE F# OCTAVE 4
NOTE OFF CHANNEL 3 DURATION: 48.821578ms NOTE F# OCTAVE 4
NOTE ON CHANNEL 3 DURATION: 48.821578ms NOTE E  OCTAVE 4
NOTE OFF CHANNEL 3 DURATION: 49.032828ms NOTE E  OCTAVE 4
NOTE ON CHANNEL 3 DURATION: 49.076838ms NOTE F# OCTAVE 4
NOTE OFF CHANNEL 3 DURATION: 49.286327ms NOTE F# OCTAVE 4
NOTE ON CHANNEL 3 DURATION: 49.286327ms NOTE E  OCTAVE 4
NOTE OFF CHANNEL 3 DURATION: 49.492296ms NOTE E  OCTAVE 4
NOTE ON CHANNEL 3 DURATION: 49.499338ms NOTE C# OCTAVE 4
NOTE OFF CHANNEL 3 DURATION: 50.168295ms NOTE C# OCTAVE 4
NOTE ON CHANNEL 3 DURATION: 50.177097ms NOTE G# OCTAVE 4
NOTE OFF CHANNEL 3 DURATION: 50.840774ms NOTE G# OCTAVE 4
NOTE ON CHANNEL 3 DURATION: 50.854857ms NOTE A  OCTAVE 4
NOTE OFF CHANNEL 3 DURATION: 51.694575ms NOTE A  OCTAVE 4
NOTE ON CHANNEL 3 DURATION: 51.701616ms NOTE B  OCTAVE 4
NOTE OFF CHANNEL 3 DURATION: 51.780835ms NOTE B  OCTAVE 4
NOTE ON CHANNEL 3 DURATION: 51.787877ms NOTE C# OCTAVE 5
NOTE OFF CHANNEL 3 DURATION: 51.949835ms NOTE C# OCTAVE 5
NOTE ON CHANNEL 3 DURATION: 51.958637ms NOTE B  OCTAVE 4
NOTE OFF CHANNEL 3 DURATION: 52.034335ms NOTE B  OCTAVE 4
NOTE ON CHANNEL 3 DURATION: 52.041376ms NOTE A  OCTAVE 4
NOTE OFF CHANNEL 3 DURATION: 52.169887ms NOTE A  OCTAVE 4
NOTE ON CHANNEL 3 DURATION: 52.213897ms NOTE E  OCTAVE 5
NOTE OFF CHANNEL 3 DURATION: 54.917894ms NOTE E  OCTAVE 5
NOTE ON CHANNEL 3 DURATION: 73.903965ms NOTE D  OCTAVE 4
NOTE OFF CHANNEL 3 DURATION: 74.072965ms NOTE D  OCTAVE 4
NOTE ON CHANNEL 3 DURATION: 74.072965ms NOTE D  OCTAVE 4
NOTE OFF CHANNEL 3 DURATION: 74.157465ms NOTE D  OCTAVE 4
NOTE ON CHANNEL 3 DURATION: 74.164507ms NOTE D  OCTAVE 4
NOTE OFF CHANNEL 3 DURATION: 74.317663ms NOTE D  OCTAVE 4
NOTE ON CHANNEL 3 DURATION: 74.335267ms NOTE C# OCTAVE 4
NOTE OFF CHANNEL 3 DURATION: 74.412725ms NOTE C# OCTAVE 4
NOTE ON CHANNEL 3 DURATION: 74.419767ms NOTE B  OCTAVE 3
NOTE OFF CHANNEL 3 DURATION: 75.19787ms NOTE B  OCTAVE 3
NOTE ON CHANNEL 3 DURATION: 75.266526ms NOTE C# OCTAVE 4
NOTE OFF CHANNEL 3 DURATION: 75.336943ms NOTE C# OCTAVE 4
NOTE ON CHANNEL 3 DURATION: 75.351026ms NOTE C# OCTAVE 4
NOTE OFF CHANNEL 3 DURATION: 75.463693ms NOTE C# OCTAVE 4
NOTE ON CHANNEL 3 DURATION: 75.521786ms NOTE C# OCTAVE 4
NOTE OFF CHANNEL 3 DURATION: 75.681984ms NOTE C# OCTAVE 4
NOTE ON CHANNEL 3 DURATION: 75.690786ms NOTE A  OCTAVE 3
NOTE OFF CHANNEL 3 DURATION: 75.806974ms NOTE A  OCTAVE 3
NOTE ON CHANNEL 3 DURATION: 76.030546ms NOTE F# OCTAVE 4
NOTE OFF CHANNEL 3 DURATION: 76.095682ms NOTE F# OCTAVE 4
NOTE ON CHANNEL 3 DURATION: 76.199546ms NOTE F# OCTAVE 4
NOTE OFF CHANNEL 3 DURATION: 76.247077ms NOTE F# OCTAVE 4
NOTE ON CHANNEL 3 DURATION: 76.284046ms NOTE F# OCTAVE 4
NOTE OFF CHANNEL 3 DURATION: 76.444244ms NOTE F# OCTAVE 4
NOTE ON CHANNEL 3 DURATION: 76.453046ms NOTE E  OCTAVE 4
NOTE OFF CHANNEL 3 DURATION: 76.613243ms NOTE E  OCTAVE 4
NOTE ON CHANNEL 3 DURATION: 76.622046ms NOTE D  OCTAVE 4
NOTE OFF CHANNEL 3 DURATION: 76.831535ms NOTE D  OCTAVE 4
NOTE ON CHANNEL 3 DURATION: 76.877306ms NOTE D  OCTAVE 4
NOTE OFF CHANNEL 3 DURATION: 76.93716ms NOTE D  OCTAVE 4
NOTE ON CHANNEL 3 DURATION: 76.961806ms NOTE D  OCTAVE 4
NOTE OFF CHANNEL 3 DURATION: 77.039264ms NOTE D  OCTAVE 4
NOTE ON CHANNEL 3 DURATION: 77.048066ms NOTE C# OCTAVE 4
NOTE OFF CHANNEL 3 DURATION: 77.201222ms NOTE C# OCTAVE 4
NOTE ON CHANNEL 3 DURATION: 77.217066ms NOTE B  OCTAVE 3
NOTE OFF CHANNEL 3 DURATION: 77.838492ms NOTE B  OCTAVE 3
NOTE ON CHANNEL 3 DURATION: 77.979325ms NOTE C# OCTAVE 4
NOTE OFF CHANNEL 3 DURATION: 78.051502ms NOTE C# OCTAVE 4
NOTE ON CHANNEL 3 DURATION: 78.063825ms NOTE C# OCTAVE 4
NOTE OFF CHANNEL 3 DURATION: 78.16769ms NOTE C# OCTAVE 4
NOTE ON CHANNEL 3 DURATION: 78.232825ms NOTE C# OCTAVE 4
NOTE OFF CHANNEL 3 DURATION: 78.394783ms NOTE C# OCTAVE 4
NOTE ON CHANNEL 3 DURATION: 78.403585ms NOTE B  OCTAVE 3
NOTE OFF CHANNEL 3 DURATION: 78.563783ms NOTE B  OCTAVE 3
NOTE ON CHANNEL 3 DURATION: 78.572585ms NOTE A  OCTAVE 3
NOTE OFF CHANNEL 3 DURATION: 78.734543ms NOTE A  OCTAVE 3
NOTE ON CHANNEL 3 DURATION: 78.741585ms NOTE B  OCTAVE 3
NOTE OFF CHANNEL 3 DURATION: 78.903543ms NOTE B  OCTAVE 3
NOTE ON CHANNEL 3 DURATION: 78.912345ms NOTE C# OCTAVE 4
NOTE OFF CHANNEL 3 DURATION: 78.996845ms NOTE C# OCTAVE 4
NOTE ON CHANNEL 3 DURATION: 78.996845ms NOTE B  OCTAVE 3
NOTE OFF CHANNEL 3 DURATION: 79.157043ms NOTE B  OCTAVE 3
NOTE ON CHANNEL 3 DURATION: 79.165845ms NOTE A  OCTAVE 3
NOTE OFF CHANNEL 3 DURATION: 79.320761ms NOTE A  OCTAVE 3
NOTE ON CHANNEL 3 DURATION: 79.503844ms NOTE D  OCTAVE 4
NOTE OFF CHANNEL 3 DURATION: 79.732698ms NOTE D  OCTAVE 4
NOTE ON CHANNEL 3 DURATION: 79.759104ms NOTE D  OCTAVE 4
NOTE OFF CHANNEL 3 DURATION: 79.820719ms NOTE D  OCTAVE 4
NOTE ON CHANNEL 3 DURATION: 79.843604ms NOTE D  OCTAVE 4
NOTE OFF CHANNEL 3 DURATION: 79.903458ms NOTE D  OCTAVE 4
NOTE ON CHANNEL 3 DURATION: 79.928104ms NOTE D  OCTAVE 4
NOTE OFF CHANNEL 3 DURATION: 80.044292ms NOTE D  OCTAVE 4
NOTE ON CHANNEL 3 DURATION: 80.861124ms NOTE A  OCTAVE 3
NOTE OFF CHANNEL 3 DURATION: 80.913936ms NOTE A  OCTAVE 3
NOTE ON CHANNEL 3 DURATION: 80.945624ms NOTE A  OCTAVE 3
NOTE OFF CHANNEL 3 DURATION: 80.994915ms NOTE A  OCTAVE 3
NOTE ON CHANNEL 3 DURATION: 81.030124ms NOTE A  OCTAVE 3
NOTE OFF CHANNEL 3 DURATION: 81.081176ms NOTE A  OCTAVE 3
NOTE ON CHANNEL 3 DURATION: 81.116384ms NOTE A  OCTAVE 3
NOTE OFF CHANNEL 3 DURATION: 81.162155ms NOTE A  OCTAVE 3
NOTE ON CHANNEL 3 DURATION: 81.199124ms NOTE A  OCTAVE 3
NOTE OFF CHANNEL 3 DURATION: 81.246655ms NOTE A  OCTAVE 3
NOTE ON CHANNEL 3 DURATION: 81.285384ms NOTE A  OCTAVE 3
NOTE OFF CHANNEL 3 DURATION: 81.329394ms NOTE A  OCTAVE 3
NOTE ON CHANNEL 3 DURATION: 81.369884ms NOTE A  OCTAVE 3
NOTE ON CHANNEL 3 DURATION: 81.454384ms NOTE G# OCTAVE 3
NOTE OFF CHANNEL 3 DURATION: 81.477269ms NOTE A  OCTAVE 3
NOTE OFF CHANNEL 3 DURATION: 81.616342ms NOTE G# OCTAVE 3
NOTE ON CHANNEL 3 DURATION: 81.623383ms NOTE F# OCTAVE 3
NOTE OFF CHANNEL 3 DURATION: 81.834633ms NOTE F# OCTAVE 3
NOTE ON CHANNEL 3 DURATION: 82.047643ms NOTE A  OCTAVE 2
NOTE OFF CHANNEL 3 DURATION: 82.720122ms NOTE A  OCTAVE 2
NOTE ON CHANNEL 3 DURATION: 82.727163ms NOTE G# OCTAVE 3
NOTE OFF CHANNEL 3 DURATION: 83.397881ms NOTE G# OCTAVE 3
NOTE ON CHANNEL 3 DURATION: 83.404923ms NOTE A  OCTAVE 3
NOTE ON CHANNEL 3 DURATION: 84.082683ms NOTE E  OCTAVE 4
NOTE OFF CHANNEL 3 DURATION: 84.293932ms NOTE E  OCTAVE 4
NOTE ON CHANNEL 3 DURATION: 84.336182ms NOTE F# OCTAVE 4
NOTE OFF CHANNEL 3 DURATION: 84.54039ms NOTE F# OCTAVE 4
NOTE ON CHANNEL 3 DURATION: 84.547432ms NOTE E  OCTAVE 4
NOTE OFF CHANNEL 3 DURATION: 84.753401ms NOTE A  OCTAVE 3
NOTE OFF CHANNEL 3 DURATION: 84.758682ms NOTE E  OCTAVE 4
NOTE ON CHANNEL 3 DURATION: 84.762203ms NOTE A  OCTAVE 3
NOTE OFF CHANNEL 3 DURATION: 85.432921ms NOTE A  OCTAVE 3
NOTE ON CHANNEL 3 DURATION: 85.439962ms NOTE E  OCTAVE 4
NOTE OFF CHANNEL 3 DURATION: 86.10892ms NOTE E  OCTAVE 4
NOTE ON CHANNEL 3 DURATION: 86.117722ms NOTE F# OCTAVE 4
NOTE OFF CHANNEL 3 DURATION: 86.795482ms NOTE F# OCTAVE 4
NOTE ON CHANNEL 3 DURATION: 86.795482ms NOTE E  OCTAVE 4
NOTE OFF CHANNEL 3 DURATION: 87.004971ms NOTE E  OCTAVE 4
NOTE ON CHANNEL 3 DURATION: 87.047221ms NOTE F# OCTAVE 4
NOTE OFF CHANNEL 3 DURATION: 87.260231ms NOTE F# OCTAVE 4
NOTE ON CHANNEL 3 DURATION: 87.261991ms NOTE E  OCTAVE 4
NOTE OFF CHANNEL 3 DURATION: 87.4662ms NOTE E  OCTAVE 4
NOTE ON CHANNEL 3 DURATION: 87.475002ms NOTE C# OCTAVE 4
NOTE OFF CHANNEL 3 DURATION: 88.143959ms NOTE C# OCTAVE 4
NOTE ON CHANNEL 3 DURATION: 88.151001ms NOTE G# OCTAVE 4
NOTE OFF CHANNEL 3 DURATION: 88.812917ms NOTE G# OCTAVE 4
NOTE ON CHANNEL 3 DURATION: 88.830521ms NOTE A  OCTAVE 4
NOTE OFF CHANNEL 3 DURATION: 89.668478ms NOTE A  OCTAVE 4
NOTE ON CHANNEL 3 DURATION: 89.67728ms NOTE B  OCTAVE 4
NOTE OFF CHANNEL 3 DURATION: 89.752978ms NOTE B  OCTAVE 4
NOTE ON CHANNEL 3 DURATION: 89.76002ms NOTE C# OCTAVE 5
NOTE OFF CHANNEL 3 DURATION: 89.925499ms NOTE C# OCTAVE 5
NOTE ON CHANNEL 3 DURATION: 89.93078ms NOTE B  OCTAVE 4
NOTE OFF CHANNEL 3 DURATION: 90.008238ms NOTE B  OCTAVE 4
NOTE ON CHANNEL 3 DURATION: 90.01704ms NOTE A  OCTAVE 4
NOTE OFF CHANNEL 3 DURATION: 90.14379ms NOTE A  OCTAVE 4
NOTE ON CHANNEL 3 DURATION: 90.187801ms NOTE A  OCTAVE 2
NOTE ON CHANNEL 3 DURATION: 90.187801ms NOTE E  OCTAVE 5
NOTE OFF CHANNEL 3 DURATION: 90.856758ms NOTE A  OCTAVE 2
NOTE ON CHANNEL 3 DURATION: 90.8638ms NOTE G# OCTAVE 3
NOTE OFF CHANNEL 3 DURATION: 91.534518ms NOTE G# OCTAVE 3
NOTE ON CHANNEL 3 DURATION: 91.541559ms NOTE A  OCTAVE 3
NOTE ON CHANNEL 3 DURATION: 92.219319ms NOTE E  OCTAVE 4
NOTE ON CHANNEL 3 DURATION: 92.219319ms NOTE E  OCTAVE 4
NOTE OFF CHANNEL 3 DURATION: 92.221079ms NOTE E  OCTAVE 4
NOTE OFF CHANNEL 3 DURATION: 92.430569ms NOTE E  OCTAVE 4
NOTE ON CHANNEL 3 DURATION: 92.472819ms NOTE F# OCTAVE 4
NOTE ON CHANNEL 3 DURATION: 92.472819ms NOTE F# OCTAVE 4
NOTE OFF CHANNEL 3 DURATION: 92.474579ms NOTE F# OCTAVE 4
NOTE OFF CHANNEL 3 DURATION: 92.669985ms NOTE F# OCTAVE 4
NOTE ON CHANNEL 3 DURATION: 92.729839ms NOTE E  OCTAVE 4
NOTE OFF CHANNEL 3 DURATION: 92.890037ms NOTE E  OCTAVE 4
NOTE OFF CHANNEL 3 DURATION: 92.890037ms NOTE A  OCTAVE 3
NOTE OFF CHANNEL 3 DURATION: 92.890037ms NOTE E  OCTAVE 5
NOTE ON CHANNEL 3 DURATION: 92.898839ms NOTE A  OCTAVE 3
NOTE OFF CHANNEL 3 DURATION: 93.569557ms NOTE A  OCTAVE 3
NOTE ON CHANNEL 3 DURATION: 93.576599ms NOTE E  OCTAVE 4
NOTE OFF CHANNEL 3 DURATION: 94.245556ms NOTE E  OCTAVE 4
NOTE ON CHANNEL 3 DURATION: 94.254358ms NOTE F# OCTAVE 4
NOTE OFF CHANNEL 3 DURATION: 94.932118ms NOTE F# OCTAVE 4
NOTE ON CHANNEL 3 DURATION: 94.933878ms NOTE E  OCTAVE 4
NOTE OFF CHANNEL 3 DURATION: 95.141607ms NOTE E  OCTAVE 4
NOTE ON CHANNEL 3 DURATION: 95.185618ms NOTE F# OCTAVE 4
NOTE OFF CHANNEL 3 DURATION: 95.396867ms NOTE F# OCTAVE 4
NOTE ON CHANNEL 3 DURATION: 95.398628ms NOTE E  OCTAVE 4
NOTE OFF CHANNEL 3 DURATION: 95.602836ms NOTE E  OCTAVE 4
NOTE ON CHANNEL 3 DURATION: 95.611638ms NOTE C# OCTAVE 4
NOTE OFF CHANNEL 3 DURATION: 96.280596ms NOTE C# OCTAVE 4
NOTE ON CHANNEL 3 DURATION: 96.289398ms NOTE G# OCTAVE 4
NOTE OFF CHANNEL 3 DURATION: 96.949553ms NOTE G# OCTAVE 4
NOTE ON CHANNEL 3 DURATION: 96.967157ms NOTE A  OCTAVE 4
NOTE OFF CHANNEL 3 DURATION: 97.806875ms NOTE A  OCTAVE 4
NOTE ON CHANNEL 3 DURATION: 97.813917ms NOTE B  OCTAVE 4
NOTE OFF CHANNEL 3 DURATION: 97.889614ms NOTE B  OCTAVE 4
NOTE ON CHANNEL 3 DURATION: 97.896656ms NOTE C# OCTAVE 5
NOTE OFF CHANNEL 3 DURATION: 98.062135ms NOTE C# OCTAVE 5
NOTE ON CHANNEL 3 DURATION: 98.067416ms NOTE B  OCTAVE 4
NOTE OFF CHANNEL 3 DURATION: 98.144875ms NOTE B  OCTAVE 4
NOTE ON CHANNEL 3 DURATION: 98.153677ms NOTE A  OCTAVE 4
NOTE OFF CHANNEL 3 DURATION: 98.282187ms NOTE A  OCTAVE 4
NOTE ON CHANNEL 3 DURATION: 98.324437ms NOTE E  OCTAVE 5
NOTE ON CHANNEL 3 DURATION: 98.324437ms NOTE A  OCTAVE 2
NOTE OFF CHANNEL 3 DURATION: 98.993394ms NOTE A  OCTAVE 2
NOTE ON CHANNEL 3 DURATION: 99.000436ms NOTE G# OCTAVE 3
NOTE OFF CHANNEL 3 DURATION: 99.671154ms NOTE G# OCTAVE 3
NOTE ON CHANNEL 3 DURATION: 99.678196ms NOTE A  OCTAVE 3
NOTE ON CHANNEL 3 DURATION: 100.357716ms NOTE E  OCTAVE 4
NOTE OFF CHANNEL 3 DURATION: 100.567205ms NOTE E  OCTAVE 4
NOTE ON CHANNEL 3 DURATION: 100.609455ms NOTE F# OCTAVE 4
NOTE OFF CHANNEL 3 DURATION: 100.806621ms NOTE F# OCTAVE 4
NOTE ON CHANNEL 3 DURATION: 100.822465ms NOTE E  OCTAVE 4
NOTE OFF CHANNEL 3 DURATION: 101.026673ms NOTE E  OCTAVE 4
NOTE OFF CHANNEL 3 DURATION: 101.026673ms NOTE A  OCTAVE 3
NOTE OFF CHANNEL 3 DURATION: 101.026673ms NOTE E  OCTAVE 5
NOTE ON CHANNEL 3 DURATION: 101.035475ms NOTE A  OCTAVE 3
NOTE OFF CHANNEL 3 DURATION: 101.706193ms NOTE A  OCTAVE 3
NOTE ON CHANNEL 3 DURATION: 101.713235ms NOTE E  OCTAVE 4
NOTE OFF CHANNEL 3 DURATION: 102.383953ms NOTE E  OCTAVE 4
NOTE ON CHANNEL 3 DURATION: 102.392755ms NOTE F# OCTAVE 4
NOTE OFF CHANNEL 3 DURATION: 103.068754ms NOTE F# OCTAVE 4
NOTE ON CHANNEL 3 DURATION: 103.070515ms NOTE E  OCTAVE 4
NOTE OFF CHANNEL 3 DURATION: 103.280004ms NOTE E  OCTAVE 4
NOTE ON CHANNEL 3 DURATION: 103.322254ms NOTE F# OCTAVE 4
NOTE OFF CHANNEL 3 DURATION: 103.493014ms NOTE F# OCTAVE 4
NOTE ON CHANNEL 3 DURATION: 103.535264ms NOTE E  OCTAVE 4
NOTE OFF CHANNEL 3 DURATION: 103.739472ms NOTE E  OCTAVE 4
NOTE ON CHANNEL 3 DURATION: 103.750035ms NOTE C# OCTAVE 4
NOTE OFF CHANNEL 3 DURATION: 104.417232ms NOTE C# OCTAVE 4
NOTE ON CHANNEL 3 DURATION: 104.426034ms NOTE G# OCTAVE 4
NOTE OFF CHANNEL 3 DURATION: 105.086189ms NOTE G# OCTAVE 4
NOTE ON CHANNEL 3 DURATION: 105.105554ms NOTE A  OCTAVE 4
NOTE OFF CHANNEL 3 DURATION: 105.943511ms NOTE A  OCTAVE 4
NOTE ON CHANNEL 3 DURATION: 105.952313ms NOTE B  OCTAVE 4
NOTE OFF CHANNEL 3 DURATION: 106.026251ms NOTE B  OCTAVE 4
NOTE ON CHANNEL 3 DURATION: 106.035053ms NOTE C# OCTAVE 5
NOTE OFF CHANNEL 3 DURATION: 106.198771ms NOTE C# OCTAVE 5
NOTE ON CHANNEL 3 DURATION: 106.204053ms NOTE B  OCTAVE 4
NOTE OFF CHANNEL 3 DURATION: 106.281511ms NOTE B  OCTAVE 4
NOTE ON CHANNEL 3 DURATION: 106.290313ms NOTE A  OCTAVE 4
NOTE OFF CHANNEL 3 DURATION: 106.418823ms NOTE A  OCTAVE 4
TEMPOOOOOOOooo 168.99980283356336
NOTE ON CHANNEL 4 DURATION: 6.103357ms NOTE D  OCTAVE 4
NOTE ON CHANNEL 4 DURATION: 6.103357ms NOTE B  OCTAVE 3
NOTE ON CHANNEL 4 DURATION: 6.103357ms NOTE F# OCTAVE 3
NOTE OFF CHANNEL 4 DURATION: 8.807354ms NOTE F# OCTAVE 3
NOTE OFF CHANNEL 4 DURATION: 8.807354ms NOTE B  OCTAVE 3
NOTE OFF CHANNEL 4 DURATION: 8.807354ms NOTE D  OCTAVE 4
NOTE ON CHANNEL 4 DURATION: 8.816156ms NOTE D  OCTAVE 5
NOTE ON CHANNEL 4 DURATION: 8.816156ms NOTE F# OCTAVE 5
NOTE ON CHANNEL 4 DURATION: 8.816156ms NOTE B  OCTAVE 4
NOTE OFF CHANNEL 4 DURATION: 9.485113ms NOTE B  OCTAVE 4
NOTE OFF CHANNEL 4 DURATION: 9.485113ms NOTE F# OCTAVE 5
NOTE OFF CHANNEL 4 DURATION: 9.485113ms NOTE D  OCTAVE 5
NOTE ON CHANNEL 4 DURATION: 9.492155ms NOTE E  OCTAVE 5
NOTE ON CHANNEL 4 DURATION: 9.492155ms NOTE B  OCTAVE 4
NOTE ON CHANNEL 4 DURATION: 9.493916ms NOTE G# OCTAVE 5
NOTE OFF CHANNEL 4 DURATION: 10.162873ms NOTE G# OCTAVE 5
NOTE OFF CHANNEL 4 DURATION: 10.162873ms NOTE B  OCTAVE 4
NOTE OFF CHANNEL 4 DURATION: 10.162873ms NOTE E  OCTAVE 5
NOTE ON CHANNEL 4 DURATION: 10.171675ms NOTE E  OCTAVE 5
NOTE ON CHANNEL 4 DURATION: 10.171675ms NOTE A  OCTAVE 5
NOTE ON CHANNEL 4 DURATION: 10.173436ms NOTE C# OCTAVE 5
NOTE OFF CHANNEL 4 DURATION: 10.840633ms NOTE C# OCTAVE 5
NOTE OFF CHANNEL 4 DURATION: 10.840633ms NOTE A  OCTAVE 5
NOTE OFF CHANNEL 4 DURATION: 10.840633ms NOTE E  OCTAVE 5
NOTE ON CHANNEL 4 DURATION: 10.849435ms NOTE F# OCTAVE 5
NOTE ON CHANNEL 4 DURATION: 10.849435ms NOTE D  OCTAVE 5
NOTE ON CHANNEL 4 DURATION: 10.851195ms NOTE A  OCTAVE 5
NOTE OFF CHANNEL 4 DURATION: 11.518392ms NOTE A  OCTAVE 5
NOTE OFF CHANNEL 4 DURATION: 11.518392ms NOTE D  OCTAVE 5
NOTE OFF CHANNEL 4 DURATION: 11.518392ms NOTE F# OCTAVE 5
NOTE ON CHANNEL 4 DURATION: 11.528955ms NOTE D  OCTAVE 5
NOTE ON CHANNEL 4 DURATION: 11.528955ms NOTE F# OCTAVE 5
NOTE ON CHANNEL 4 DURATION: 11.528955ms NOTE B  OCTAVE 4
NOTE OFF CHANNEL 4 DURATION: 12.196152ms NOTE B  OCTAVE 4
NOTE OFF CHANNEL 4 DURATION: 12.196152ms NOTE F# OCTAVE 5
NOTE OFF CHANNEL 4 DURATION: 12.196152ms NOTE D  OCTAVE 5
NOTE ON CHANNEL 4 DURATION: 12.204954ms NOTE E  OCTAVE 5
NOTE ON CHANNEL 4 DURATION: 12.204954ms NOTE B  OCTAVE 4
NOTE ON CHANNEL 4 DURATION: 12.206714ms NOTE G# OCTAVE 5
NOTE OFF CHANNEL 4 DURATION: 12.875672ms NOTE G# OCTAVE 5
NOTE OFF CHANNEL 4 DURATION: 12.875672ms NOTE B  OCTAVE 4
NOTE OFF CHANNEL 4 DURATION: 12.875672ms NOTE E  OCTAVE 5
NOTE ON CHANNEL 4 DURATION: 12.884474ms NOTE E  OCTAVE 5
NOTE ON CHANNEL 4 DURATION: 12.884474ms NOTE A  OCTAVE 5
NOTE ON CHANNEL 4 DURATION: 12.886234ms NOTE C# OCTAVE 5
NOTE OFF CHANNEL 4 DURATION: 13.553432ms NOTE C# OCTAVE 5
NOTE OFF CHANNEL 4 DURATION: 13.553432ms NOTE A  OCTAVE 5
NOTE OFF CHANNEL 4 DURATION: 13.553432ms NOTE E  OCTAVE 5
NOTE ON CHANNEL 4 DURATION: 13.562234ms NOTE F# OCTAVE 5
NOTE ON CHANNEL 4 DURATION: 13.562234ms NOTE D  OCTAVE 5
NOTE ON CHANNEL 4 DURATION: 13.562234ms NOTE A  OCTAVE 5
NOTE OFF CHANNEL 4 DURATION: 14.231191ms NOTE A  OCTAVE 5
NOTE OFF CHANNEL 4 DURATION: 14.231191ms NOTE D  OCTAVE 5
NOTE OFF CHANNEL 4 DURATION: 14.231191ms NOTE F# OCTAVE 5
NOTE ON CHANNEL 4 DURATION: 14.241754ms NOTE D  OCTAVE 5
NOTE ON CHANNEL 4 DURATION: 14.241754ms NOTE F# OCTAVE 5
NOTE ON CHANNEL 4 DURATION: 14.243514ms NOTE B  OCTAVE 4
NOTE OFF CHANNEL 4 DURATION: 14.908951ms NOTE B  OCTAVE 4
NOTE OFF CHANNEL 4 DURATION: 14.908951ms NOTE F# OCTAVE 5
NOTE OFF CHANNEL 4 DURATION: 14.908951ms NOTE D  OCTAVE 5
NOTE ON CHANNEL 4 DURATION: 14.919513ms NOTE E  OCTAVE 5
NOTE ON CHANNEL 4 DURATION: 14.919513ms NOTE B  OCTAVE 4
NOTE ON CHANNEL 4 DURATION: 14.919513ms NOTE G# OCTAVE 5
NOTE OFF CHANNEL 4 DURATION: 15.58671ms NOTE G# OCTAVE 5
NOTE OFF CHANNEL 4 DURATION: 15.58671ms NOTE B  OCTAVE 4
NOTE OFF CHANNEL 4 DURATION: 15.58671ms NOTE E  OCTAVE 5
NOTE ON CHANNEL 4 DURATION: 15.597273ms NOTE D  OCTAVE 5
NOTE ON CHANNEL 4 DURATION: 15.597273ms NOTE F# OCTAVE 5
NOTE ON CHANNEL 4 DURATION: 15.599033ms NOTE B  OCTAVE 4
NOTE OFF CHANNEL 4 DURATION: 16.266231ms NOTE B  OCTAVE 4
NOTE OFF CHANNEL 4 DURATION: 16.266231ms NOTE F# OCTAVE 5
NOTE OFF CHANNEL 4 DURATION: 16.266231ms NOTE D  OCTAVE 5
NOTE ON CHANNEL 4 DURATION: 16.275033ms NOTE E  OCTAVE 5
NOTE ON CHANNEL 4 DURATION: 16.275033ms NOTE B  OCTAVE 4
NOTE ON CHANNEL 4 DURATION: 16.275033ms NOTE G# OCTAVE 5
NOTE OFF CHANNEL 4 DURATION: 16.94399ms NOTE G# OCTAVE 5
NOTE OFF CHANNEL 4 DURATION: 16.94399ms NOTE B  OCTAVE 4
NOTE OFF CHANNEL 4 DURATION: 16.94399ms NOTE E  OCTAVE 5
NOTE ON CHANNEL 4 DURATION: 16.952792ms NOTE B  OCTAVE 3
NOTE ON CHANNEL 4 DURATION: 16.952792ms NOTE F# OCTAVE 4
NOTE ON CHANNEL 4 DURATION: 16.954553ms NOTE D  OCTAVE 4
NOTE OFF CHANNEL 4 DURATION: 17.62175ms NOTE D  OCTAVE 4
NOTE OFF CHANNEL 4 DURATION: 17.62175ms NOTE F# OCTAVE 4
NOTE OFF CHANNEL 4 DURATION: 17.62175ms NOTE B  OCTAVE 3
NOTE ON CHANNEL 4 DURATION: 17.630552ms NOTE G# OCTAVE 4
NOTE ON CHANNEL 4 DURATION: 17.630552ms NOTE B  OCTAVE 3
NOTE ON CHANNEL 4 DURATION: 17.632312ms NOTE E  OCTAVE 4
NOTE OFF CHANNEL 4 DURATION: 18.299509ms NOTE E  OCTAVE 4
NOTE OFF CHANNEL 4 DURATION: 18.299509ms NOTE B  OCTAVE 3
NOTE OFF CHANNEL 4 DURATION: 18.299509ms NOTE G# OCTAVE 4
NOTE ON CHANNEL 4 DURATION: 18.308311ms NOTE A  OCTAVE 3
NOTE ON CHANNEL 4 DURATION: 18.308311ms NOTE E  OCTAVE 4
NOTE ON CHANNEL 4 DURATION: 18.310072ms NOTE C# OCTAVE 4
NOTE OFF CHANNEL 4 DURATION: 18.977269ms NOTE C# OCTAVE 4
NOTE OFF CHANNEL 4 DURATION: 18.977269ms NOTE A  OCTAVE 3
NOTE OFF CHANNEL 4 DURATION: 18.98079ms NOTE E  OCTAVE 4
NOTE ON CHANNEL 4 DURATION: 18.986071ms NOTE D  OCTAVE 4
NOTE ON CHANNEL 4 DURATION: 18.986071ms NOTE F# OCTAVE 4
NOTE ON CHANNEL 4 DURATION: 18.987832ms NOTE A  OCTAVE 3
NOTE OFF CHANNEL 4 DURATION: 19.656789ms NOTE A  OCTAVE 3
NOTE OFF CHANNEL 4 DURATION: 19.656789ms NOTE F# OCTAVE 4
NOTE OFF CHANNEL 4 DURATION: 19.656789ms NOTE D  OCTAVE 4
NOTE ON CHANNEL 4 DURATION: 19.665591ms NOTE B  OCTAVE 3
NOTE ON CHANNEL 4 DURATION: 19.665591ms NOTE F# OCTAVE 4
NOTE ON CHANNEL 4 DURATION: 19.665591ms NOTE D  OCTAVE 4
NOTE OFF CHANNEL 4 DURATION: 20.334549ms NOTE D  OCTAVE 4
NOTE OFF CHANNEL 4 DURATION: 20.334549ms NOTE F# OCTAVE 4
NOTE OFF CHANNEL 4 DURATION: 20.334549ms NOTE B  OCTAVE 3
NOTE ON CHANNEL 4 DURATION: 20.343351ms NOTE G# OCTAVE 4
NOTE ON CHANNEL 4 DURATION: 20.343351ms NOTE B  OCTAVE 3
NOTE ON CHANNEL 4 DURATION: 20.345111ms NOTE E  OCTAVE 4
NOTE OFF CHANNEL 4 DURATION: 21.012308ms NOTE E  OCTAVE 4
NOTE OFF CHANNEL 4 DURATION: 21.012308ms NOTE B  OCTAVE 3
NOTE OFF CHANNEL 4 DURATION: 21.012308ms NOTE G# OCTAVE 4
NOTE ON CHANNEL 4 DURATION: 21.02111ms NOTE A  OCTAVE 3
NOTE ON CHANNEL 4 DURATION: 21.02111ms NOTE E  OCTAVE 4
NOTE ON CHANNEL 4 DURATION: 21.022871ms NOTE C# OCTAVE 4
NOTE OFF CHANNEL 4 DURATION: 21.690068ms NOTE C# OCTAVE 4
NOTE OFF CHANNEL 4 DURATION: 21.690068ms NOTE E  OCTAVE 4
NOTE OFF CHANNEL 4 DURATION: 21.690068ms NOTE A  OCTAVE 3
NOTE ON CHANNEL 4 DURATION: 21.69887ms NOTE D  OCTAVE 4
NOTE ON CHANNEL 4 DURATION: 21.69887ms NOTE F# OCTAVE 4
NOTE ON CHANNEL 4 DURATION: 21.70063ms NOTE A  OCTAVE 3
NOTE OFF CHANNEL 4 DURATION: 22.367828ms NOTE A  OCTAVE 3
NOTE OFF CHANNEL 4 DURATION: 22.367828ms NOTE F# OCTAVE 4
NOTE OFF CHANNEL 4 DURATION: 22.367828ms NOTE D  OCTAVE 4
NOTE ON CHANNEL 4 DURATION: 22.37663ms NOTE B  OCTAVE 3
NOTE ON CHANNEL 4 DURATION: 22.37663ms NOTE D  OCTAVE 4
NOTE ON CHANNEL 4 DURATION: 22.37839ms NOTE F# OCTAVE 4
NOTE OFF CHANNEL 4 DURATION: 23.045587ms NOTE B  OCTAVE 3
NOTE OFF CHANNEL 4 DURATION: 23.047348ms NOTE F# OCTAVE 4
NOTE OFF CHANNEL 4 DURATION: 23.047348ms NOTE D  OCTAVE 4
NOTE ON CHANNEL 4 DURATION: 23.054389ms NOTE E  OCTAVE 4
NOTE ON CHANNEL 4 DURATION: 23.054389ms NOTE B  OCTAVE 3
NOTE ON CHANNEL 4 DURATION: 23.05615ms NOTE G# OCTAVE 4
NOTE OFF CHANNEL 4 DURATION: 23.725107ms NOTE G# OCTAVE 4
NOTE OFF CHANNEL 4 DURATION: 23.725107ms NOTE B  OCTAVE 3
NOTE OFF CHANNEL 4 DURATION: 23.725107ms NOTE E  OCTAVE 4
NOTE ON CHANNEL 4 DURATION: 23.732149ms NOTE C# OCTAVE 4
NOTE ON CHANNEL 4 DURATION: 23.732149ms NOTE F# OCTAVE 4
NOTE ON CHANNEL 4 DURATION: 23.733909ms NOTE A  OCTAVE 4
NOTE OFF CHANNEL 4 DURATION: 24.402867ms NOTE A  OCTAVE 4
NOTE OFF CHANNEL 4 DURATION: 24.402867ms NOTE F# OCTAVE 4
NOTE OFF CHANNEL 4 DURATION: 24.402867ms NOTE C# OCTAVE 4
NOTE ON CHANNEL 4 DURATION: 24.411669ms NOTE D  OCTAVE 4
NOTE ON CHANNEL 4 DURATION: 24.411669ms NOTE F# OCTAVE 4
NOTE ON CHANNEL 4 DURATION: 24.413429ms NOTE A  OCTAVE 4
NOTE OFF CHANNEL 4 DURATION: 25.080626ms NOTE A  OCTAVE 4
NOTE OFF CHANNEL 4 DURATION: 25.080626ms NOTE F# OCTAVE 4
NOTE OFF CHANNEL 4 DURATION: 25.080626ms NOTE D  OCTAVE 4
NOTE ON CHANNEL 4 DURATION: 25.091189ms NOTE C# OCTAVE 4
NOTE ON CHANNEL 4 DURATION: 25.091189ms NOTE A  OCTAVE 4
NOTE ON CHANNEL 4 DURATION: 25.091189ms NOTE E  OCTAVE 4
NOTE OFF CHANNEL 4 DURATION: 25.760147ms NOTE A  OCTAVE 4
NOTE OFF CHANNEL 4 DURATION: 25.760147ms NOTE C# OCTAVE 4
NOTE ON CHANNEL 4 DURATION: 25.767188ms NOTE G# OCTAVE 4
NOTE ON CHANNEL 4 DURATION: 25.767188ms NOTE B  OCTAVE 3
NOTE OFF CHANNEL 4 DURATION: 26.437906ms NOTE B  OCTAVE 3
NOTE OFF CHANNEL 4 DURATION: 26.437906ms NOTE G# OCTAVE 4
NOTE OFF CHANNEL 4 DURATION: 26.437906ms NOTE E  OCTAVE 4
NOTE ON CHANNEL 4 DURATION: 26.444948ms NOTE A  OCTAVE 4
NOTE ON CHANNEL 4 DURATION: 26.444948ms NOTE C# OCTAVE 4
NOTE ON CHANNEL 4 DURATION: 26.446708ms NOTE F# OCTAVE 4
NOTE OFF CHANNEL 4 DURATION: 27.793425ms NOTE F# OCTAVE 4
NOTE OFF CHANNEL 4 DURATION: 27.793425ms NOTE C# OCTAVE 4
NOTE OFF CHANNEL 4 DURATION: 27.793425ms NOTE A  OCTAVE 4
NOTE ON CHANNEL 4 DURATION: 27.802227ms NOTE E  OCTAVE 4
NOTE ON CHANNEL 4 DURATION: 27.802227ms NOTE C# OCTAVE 5
NOTE ON CHANNEL 4 DURATION: 27.803988ms NOTE A  OCTAVE 4
NOTE OFF CHANNEL 4 DURATION: 28.472945ms NOTE A  OCTAVE 4
NOTE OFF CHANNEL 4 DURATION: 28.472945ms NOTE C# OCTAVE 5
NOTE OFF CHANNEL 4 DURATION: 28.472945ms NOTE E  OCTAVE 4
NOTE ON CHANNEL 4 DURATION: 28.479987ms NOTE B  OCTAVE 4
NOTE ON CHANNEL 4 DURATION: 28.479987ms NOTE G# OCTAVE 4
NOTE ON CHANNEL 4 DURATION: 28.479987ms NOTE E  OCTAVE 5
NOTE OFF CHANNEL 4 DURATION: 29.148945ms NOTE E  OCTAVE 5
NOTE OFF CHANNEL 4 DURATION: 29.148945ms NOTE G# OCTAVE 4
NOTE OFF CHANNEL 4 DURATION: 29.148945ms NOTE B  OCTAVE 4
NOTE ON CHANNEL 4 DURATION: 29.157747ms NOTE F# OCTAVE 5
NOTE ON CHANNEL 4 DURATION: 29.157747ms NOTE C# OCTAVE 5
NOTE ON CHANNEL 4 DURATION: 29.157747ms NOTE A  OCTAVE 4
NOTE OFF CHANNEL 4 DURATION: 30.506224ms NOTE A  OCTAVE 4
NOTE OFF CHANNEL 4 DURATION: 30.506224ms NOTE C# OCTAVE 5
NOTE OFF CHANNEL 4 DURATION: 30.506224ms NOTE F# OCTAVE 5
NOTE ON CHANNEL 4 DURATION: 30.515026ms NOTE C# OCTAVE 3
NOTE ON CHANNEL 4 DURATION: 30.515026ms NOTE C# OCTAVE 4
NOTE OFF CHANNEL 4 DURATION: 31.183984ms NOTE C# OCTAVE 4
NOTE OFF CHANNEL 4 DURATION: 31.183984ms NOTE C# OCTAVE 3
NOTE ON CHANNEL 4 DURATION: 31.191026ms NOTE E  OCTAVE 3
NOTE ON CHANNEL 4 DURATION: 31.191026ms NOTE E  OCTAVE 4
NOTE OFF CHANNEL 4 DURATION: 31.861744ms NOTE E  OCTAVE 4
NOTE OFF CHANNEL 4 DURATION: 31.861744ms NOTE E  OCTAVE 3
NOTE ON CHANNEL 4 DURATION: 31.868785ms NOTE F# OCTAVE 3
NOTE ON CHANNEL 4 DURATION: 31.870546ms NOTE F# OCTAVE 4
NOTE OFF CHANNEL 4 DURATION: 33.217263ms NOTE F# OCTAVE 4
NOTE OFF CHANNEL 4 DURATION: 33.217263ms NOTE F# OCTAVE 3
NOTE ON CHANNEL 4 DURATION: 35.938864ms NOTE B  OCTAVE 3
NOTE ON CHANNEL 4 DURATION: 35.938864ms NOTE F# OCTAVE 4
NOTE ON CHANNEL 4 DURATION: 35.940624ms NOTE D  OCTAVE 4
NOTE OFF CHANNEL 4 DURATION: 36.607821ms NOTE D  OCTAVE 4
NOTE OFF CHANNEL 4 DURATION: 36.607821ms NOTE F# OCTAVE 4
NOTE OFF CHANNEL 4 DURATION: 36.607821ms NOTE B  OCTAVE 3
NOTE ON CHANNEL 4 DURATION: 36.616623ms NOTE G# OCTAVE 4
NOTE ON CHANNEL 4 DURATION: 36.616623ms NOTE B  OCTAVE 3
NOTE ON CHANNEL 4 DURATION: 36.618384ms NOTE E  OCTAVE 4
NOTE OFF CHANNEL 4 DURATION: 37.285581ms NOTE E  OCTAVE 4
NOTE OFF CHANNEL 4 DURATION: 37.285581ms NOTE B  OCTAVE 3
NOTE OFF CHANNEL 4 DURATION: 37.285581ms NOTE G# OCTAVE 4
NOTE ON CHANNEL 4 DURATION: 37.294383ms NOTE A  OCTAVE 3
NOTE ON CHANNEL 4 DURATION: 37.294383ms NOTE E  OCTAVE 4
NOTE ON CHANNEL 4 DURATION: 37.296143ms NOTE C# OCTAVE 4
NOTE OFF CHANNEL 4 DURATION: 37.963341ms NOTE C# OCTAVE 4
NOTE OFF CHANNEL 4 DURATION: 37.963341ms NOTE E  OCTAVE 4
NOTE OFF CHANNEL 4 DURATION: 37.963341ms NOTE A  OCTAVE 3
NOTE ON CHANNEL 4 DURATION: 37.972143ms NOTE D  OCTAVE 4
NOTE ON CHANNEL 4 DURATION: 37.973903ms NOTE F# OCTAVE 4
NOTE ON CHANNEL 4 DURATION: 37.973903ms NOTE A  OCTAVE 3
NOTE OFF CHANNEL 4 DURATION: 38.642861ms NOTE A  OCTAVE 3
NOTE OFF CHANNEL 4 DURATION: 38.642861ms NOTE F# OCTAVE 4
NOTE OFF CHANNEL 4 DURATION: 38.642861ms NOTE D  OCTAVE 4
NOTE ON CHANNEL 4 DURATION: 38.651663ms NOTE B  OCTAVE 3
NOTE ON CHANNEL 4 DURATION: 38.651663ms NOTE F# OCTAVE 4
NOTE ON CHANNEL 4 DURATION: 38.651663ms NOTE D  OCTAVE 4
NOTE OFF CHANNEL 4 DURATION: 39.32062ms NOTE D  OCTAVE 4
NOTE OFF CHANNEL 4 DURATION: 39.32062ms NOTE F# OCTAVE 4
NOTE OFF CHANNEL 4 DURATION: 39.32062ms NOTE B  OCTAVE 3
NOTE ON CHANNEL 4 DURATION: 39.329422ms NOTE G# OCTAVE 4
NOTE ON CHANNEL 4 DURATION: 39.329422ms NOTE B  OCTAVE 3
NOTE ON CHANNEL 4 DURATION: 39.329422ms NOTE E  OCTAVE 4
NOTE OFF CHANNEL 4 DURATION: 39.99838ms NOTE E  OCTAVE 4
NOTE OFF CHANNEL 4 DURATION: 39.99838ms NOTE B  OCTAVE 3
NOTE OFF CHANNEL 4 DURATION: 39.99838ms NOTE G# OCTAVE 4
NOTE ON CHANNEL 4 DURATION: 40.007182ms NOTE A  OCTAVE 3
NOTE ON CHANNEL 4 DURATION: 40.007182ms NOTE E  OCTAVE 4
NOTE ON CHANNEL 4 DURATION: 40.008942ms NOTE C# OCTAVE 4
NOTE OFF CHANNEL 4 DURATION: 40.67614ms NOTE C# OCTAVE 4
NOTE OFF CHANNEL 4 DURATION: 40.67614ms NOTE E  OCTAVE 4
NOTE OFF CHANNEL 4 DURATION: 40.67614ms NOTE A  OCTAVE 3
NOTE ON CHANNEL 4 DURATION: 40.684942ms NOTE D  OCTAVE 4
NOTE ON CHANNEL 4 DURATION: 40.684942ms NOTE F# OCTAVE 4
NOTE ON CHANNEL 4 DURATION: 40.686702ms NOTE A  OCTAVE 3
NOTE OFF CHANNEL 4 DURATION: 41.353899ms NOTE A  OCTAVE 3
NOTE OFF CHANNEL 4 DURATION: 41.353899ms NOTE F# OCTAVE 4
NOTE OFF CHANNEL 4 DURATION: 41.353899ms NOTE D  OCTAVE 4
NOTE ON CHANNEL 4 DURATION: 41.362701ms NOTE B  OCTAVE 3
NOTE ON CHANNEL 4 DURATION: 41.362701ms NOTE D  OCTAVE 4
NOTE ON CHANNEL 4 DURATION: 41.364462ms NOTE F# OCTAVE 4
NOTE OFF CHANNEL 4 DURATION: 42.031659ms NOTE F# OCTAVE 4
NOTE OFF CHANNEL 4 DURATION: 42.031659ms NOTE D  OCTAVE 4
NOTE OFF CHANNEL 4 DURATION: 42.031659ms NOTE B  OCTAVE 3
NOTE ON CHANNEL 4 DURATION: 42.040461ms NOTE E  OCTAVE 4
NOTE ON CHANNEL 4 DURATION: 42.042221ms NOTE B  OCTAVE 3
NOTE ON CHANNEL 4 DURATION: 42.042221ms NOTE G# OCTAVE 4
NOTE OFF CHANNEL 4 DURATION: 42.711179ms NOTE G# OCTAVE 4
NOTE OFF CHANNEL 4 DURATION: 42.711179ms NOTE B  OCTAVE 3
NOTE OFF CHANNEL 4 DURATION: 42.711179ms NOTE E  OCTAVE 4
NOTE ON CHANNEL 4 DURATION: 42.71822ms NOTE C# OCTAVE 4
NOTE ON CHANNEL 4 DURATION: 42.719981ms NOTE F# OCTAVE 4
NOTE ON CHANNEL 4 DURATION: 42.719981ms NOTE A  OCTAVE 4
NOTE OFF CHANNEL 4 DURATION: 43.388938ms NOTE A  OCTAVE 4
NOTE OFF CHANNEL 4 DURATION: 43.388938ms NOTE F# OCTAVE 4
NOTE OFF CHANNEL 4 DURATION: 43.388938ms NOTE C# OCTAVE 4
NOTE ON CHANNEL 4 DURATION: 43.397741ms NOTE D  OCTAVE 4
NOTE ON CHANNEL 4 DURATION: 43.397741ms NOTE F# OCTAVE 4
NOTE ON CHANNEL 4 DURATION: 43.399501ms NOTE A  OCTAVE 4
NOTE OFF CHANNEL 4 DURATION: 44.066698ms NOTE A  OCTAVE 4
NOTE OFF CHANNEL 4 DURATION: 44.066698ms NOTE F# OCTAVE 4
NOTE OFF CHANNEL 4 DURATION: 44.066698ms NOTE D  OCTAVE 4
NOTE ON CHANNEL 4 DURATION: 44.077261ms NOTE C# OCTAVE 4
NOTE ON CHANNEL 4 DURATION: 44.077261ms NOTE A  OCTAVE 4
NOTE ON CHANNEL 4 DURATION: 44.077261ms NOTE E  OCTAVE 4
NOTE OFF CHANNEL 4 DURATION: 44.746218ms NOTE A  OCTAVE 4
NOTE OFF CHANNEL 4 DURATION: 44.746218ms NOTE C# OCTAVE 4
NOTE ON CHANNEL 4 DURATION: 44.75326ms NOTE G# OCTAVE 4
NOTE ON CHANNEL 4 DURATION: 44.75326ms NOTE B  OCTAVE 3
NOTE OFF CHANNEL 4 DURATION: 45.423978ms NOTE B  OCTAVE 3
NOTE OFF CHANNEL 4 DURATION: 45.423978ms NOTE G# OCTAVE 4
NOTE OFF CHANNEL 4 DURATION: 45.423978ms NOTE E  OCTAVE 4
NOTE ON CHANNEL 4 DURATION: 45.431019ms NOTE A  OCTAVE 4
NOTE ON CHANNEL 4 DURATION: 45.431019ms NOTE C# OCTAVE 4
NOTE ON CHANNEL 4 DURATION: 45.43278ms NOTE F# OCTAVE 4
NOTE OFF CHANNEL 4 DURATION: 46.779497ms NOTE F# OCTAVE 4
NOTE OFF CHANNEL 4 DURATION: 46.779497ms NOTE C# OCTAVE 4
NOTE OFF CHANNEL 4 DURATION: 46.779497ms NOTE A  OCTAVE 4
NOTE ON CHANNEL 4 DURATION: 46.788299ms NOTE E  OCTAVE 4
NOTE ON CHANNEL 4 DURATION: 46.788299ms NOTE C# OCTAVE 5
NOTE ON CHANNEL 4 DURATION: 46.790059ms NOTE A  OCTAVE 4
NOTE OFF CHANNEL 4 DURATION: 47.459017ms NOTE A  OCTAVE 4
NOTE OFF CHANNEL 4 DURATION: 47.459017ms NOTE C# OCTAVE 5
NOTE OFF CHANNEL 4 DURATION: 47.459017ms NOTE E  OCTAVE 4
NOTE ON CHANNEL 4 DURATION: 47.466059ms NOTE B  OCTAVE 4
NOTE ON CHANNEL 4 DURATION: 47.466059ms NOTE G# OCTAVE 4
NOTE ON CHANNEL 4 DURATION: 47.466059ms NOTE E  OCTAVE 5
NOTE OFF CHANNEL 4 DURATION: 48.135016ms NOTE B  OCTAVE 4
NOTE OFF CHANNEL 4 DURATION: 48.136777ms NOTE E  OCTAVE 5
NOTE OFF CHANNEL 4 DURATION: 48.136777ms NOTE G# OCTAVE 4
NOTE ON CHANNEL 4 DURATION: 48.143818ms NOTE F# OCTAVE 5
NOTE ON CHANNEL 4 DURATION: 48.143818ms NOTE C# OCTAVE 5
NOTE ON CHANNEL 4 DURATION: 48.143818ms NOTE A  OCTAVE 4
NOTE OFF CHANNEL 4 DURATION: 49.492296ms NOTE A  OCTAVE 4
NOTE OFF CHANNEL 4 DURATION: 49.492296ms NOTE C# OCTAVE 5
NOTE OFF CHANNEL 4 DURATION: 49.492296ms NOTE F# OCTAVE 5
NOTE ON CHANNEL 4 DURATION: 49.501098ms NOTE C# OCTAVE 3
NOTE ON CHANNEL 4 DURATION: 49.501098ms NOTE C# OCTAVE 4
NOTE OFF CHANNEL 4 DURATION: 50.170056ms NOTE C# OCTAVE 4
NOTE OFF CHANNEL 4 DURATION: 50.170056ms NOTE C# OCTAVE 3
NOTE ON CHANNEL 4 DURATION: 50.177097ms NOTE E  OCTAVE 3
NOTE ON CHANNEL 4 DURATION: 50.177097ms NOTE E  OCTAVE 4
NOTE OFF CHANNEL 4 DURATION: 50.847815ms NOTE E  OCTAVE 4
NOTE OFF CHANNEL 4 DURATION: 50.847815ms NOTE E  OCTAVE 3
NOTE ON CHANNEL 4 DURATION: 50.854857ms NOTE F# OCTAVE 3
NOTE ON CHANNEL 4 DURATION: 50.856617ms NOTE F# OCTAVE 4
NOTE OFF CHANNEL 4 DURATION: 52.203334ms NOTE F# OCTAVE 4
NOTE OFF CHANNEL 4 DURATION: 52.203334ms NOTE F# OCTAVE 3
NOTE ON CHANNEL 4 DURATION: 56.269892ms NOTE G  OCTAVE 4
NOTE ON CHANNEL 4 DURATION: 56.269892ms NOTE B  OCTAVE 4
NOTE OFF CHANNEL 4 DURATION: 56.780412ms NOTE G  OCTAVE 4
NOTE OFF CHANNEL 4 DURATION: 56.785694ms NOTE B  OCTAVE 4
NOTE ON CHANNEL 4 DURATION: 57.635974ms NOTE C# OCTAVE 3
NOTE ON CHANNEL 4 DURATION: 57.635974ms NOTE C# OCTAVE 2
NOTE ON CHANNEL 4 DURATION: 57.637734ms NOTE C# OCTAVE 4
NOTE OFF CHANNEL 4 DURATION: 57.653578ms NOTE C# OCTAVE 4
NOTE ON CHANNEL 4 DURATION: 57.722234ms NOTE C# OCTAVE 4
NOTE ON CHANNEL 4 DURATION: 57.975734ms NOTE G# OCTAVE 3
NOTE OFF CHANNEL 4 DURATION: 58.301411ms NOTE G# OCTAVE 3
NOTE ON CHANNEL 4 DURATION: 58.313734ms NOTE E  OCTAVE 4
NOTE OFF CHANNEL 4 DURATION: 58.815452ms NOTE E  OCTAVE 4
NOTE ON CHANNEL 4 DURATION: 58.822493ms NOTE G# OCTAVE 4
NOTE OFF CHANNEL 4 DURATION: 58.915795ms NOTE C# OCTAVE 4
NOTE OFF CHANNEL 4 DURATION: 58.984452ms NOTE G# OCTAVE 4
NOTE OFF CHANNEL 4 DURATION: 58.984452ms NOTE C# OCTAVE 3
NOTE OFF CHANNEL 4 DURATION: 58.993254ms NOTE C# OCTAVE 2
NOTE ON CHANNEL 4 DURATION: 58.993254ms NOTE G  OCTAVE 2
NOTE ON CHANNEL 4 DURATION: 58.993254ms NOTE G  OCTAVE 4
NOTE ON CHANNEL 4 DURATION: 58.993254ms NOTE D  OCTAVE 4
NOTE ON CHANNEL 4 DURATION: 58.995014ms NOTE G  OCTAVE 1
NOTE OFF CHANNEL 4 DURATION: 60.339971ms NOTE G  OCTAVE 1
NOTE OFF CHANNEL 4 DURATION: 60.339971ms NOTE G  OCTAVE 2
NOTE OFF CHANNEL 4 DURATION: 60.339971ms NOTE G  OCTAVE 4
NOTE OFF CHANNEL 4 DURATION: 60.339971ms NOTE D  OCTAVE 4
NOTE ON CHANNEL 4 DURATION: 60.348773ms NOTE F# OCTAVE 4
NOTE ON CHANNEL 4 DURATION: 60.348773ms NOTE D  OCTAVE 4
NOTE ON CHANNEL 4 DURATION: 60.348773ms NOTE B  OCTAVE 4
NOTE ON CHANNEL 4 DURATION: 60.350533ms NOTE B  OCTAVE 2
NOTE ON CHANNEL 4 DURATION: 60.352294ms NOTE B  OCTAVE 1
NOTE OFF CHANNEL 4 DURATION: 61.688448ms NOTE B  OCTAVE 4
NOTE OFF CHANNEL 4 DURATION: 61.688448ms NOTE F# OCTAVE 4
NOTE OFF CHANNEL 4 DURATION: 61.688448ms NOTE D  OCTAVE 4
NOTE OFF CHANNEL 4 DURATION: 61.69549ms NOTE B  OCTAVE 1
NOTE OFF CHANNEL 4 DURATION: 61.69725ms NOTE B  OCTAVE 2
NOTE ON CHANNEL 4 DURATION: 61.704292ms NOTE E  OCTAVE 4
NOTE ON CHANNEL 4 DURATION: 61.706053ms NOTE B  OCTAVE 4
NOTE ON CHANNEL 4 DURATION: 61.706053ms NOTE E  OCTAVE 3
NOTE ON CHANNEL 4 DURATION: 61.706053ms NOTE G# OCTAVE 4
NOTE ON CHANNEL 4 DURATION: 61.707813ms NOTE E  OCTAVE 2
NOTE OFF CHANNEL 4 DURATION: 63.045728ms NOTE G# OCTAVE 4
NOTE OFF CHANNEL 4 DURATION: 63.045728ms NOTE B  OCTAVE 4
NOTE OFF CHANNEL 4 DURATION: 63.045728ms NOTE E  OCTAVE 4
NOTE OFF CHANNEL 4 DURATION: 63.05277ms NOTE E  OCTAVE 3
NOTE OFF CHANNEL 4 DURATION: 63.05277ms NOTE E  OCTAVE 2
NOTE ON CHANNEL 4 DURATION: 65.774371ms NOTE D  OCTAVE 5
NOTE ON CHANNEL 4 DURATION: 65.774371ms NOTE F# OCTAVE 5
NOTE ON CHANNEL 4 DURATION: 65.776131ms NOTE B  OCTAVE 4
NOTE OFF CHANNEL 4 DURATION: 66.443328ms NOTE B  OCTAVE 4
NOTE OFF CHANNEL 4 DURATION: 66.443328ms NOTE F# OCTAVE 5
NOTE OFF CHANNEL 4 DURATION: 66.443328ms NOTE D  OCTAVE 5
NOTE ON CHANNEL 4 DURATION: 66.45213ms NOTE E  OCTAVE 5
NOTE ON CHANNEL 4 DURATION: 66.45213ms NOTE B  OCTAVE 4
NOTE ON CHANNEL 4 DURATION: 66.45213ms NOTE G# OCTAVE 5
NOTE OFF CHANNEL 4 DURATION: 67.121088ms NOTE G# OCTAVE 5
NOTE OFF CHANNEL 4 DURATION: 67.121088ms NOTE B  OCTAVE 4
NOTE OFF CHANNEL 4 DURATION: 67.121088ms NOTE E  OCTAVE 5
NOTE ON CHANNEL 4 DURATION: 67.13165ms NOTE E  OCTAVE 5
NOTE ON CHANNEL 4 DURATION: 67.13165ms NOTE A  OCTAVE 5
NOTE ON CHANNEL 4 DURATION: 67.13165ms NOTE C# OCTAVE 5
NOTE OFF CHANNEL 4 DURATION: 67.798847ms NOTE C# OCTAVE 5
NOTE OFF CHANNEL 4 DURATION: 67.798847ms NOTE A  OCTAVE 5
NOTE OFF CHANNEL 4 DURATION: 67.798847ms NOTE E  OCTAVE 5
NOTE ON CHANNEL 4 DURATION: 67.80765ms NOTE F# OCTAVE 5
NOTE ON CHANNEL 4 DURATION: 67.80765ms NOTE D  OCTAVE 5
NOTE ON CHANNEL 4 DURATION: 67.80941ms NOTE A  OCTAVE 5
NOTE OFF CHANNEL 4 DURATION: 68.478368ms NOTE A  OCTAVE 5
NOTE OFF CHANNEL 4 DURATION: 68.478368ms NOTE D  OCTAVE 5
NOTE OFF CHANNEL 4 DURATION: 68.478368ms NOTE F# OCTAVE 5
NOTE ON CHANNEL 4 DURATION: 68.48717ms NOTE D  OCTAVE 5
NOTE ON CHANNEL 4 DURATION: 68.48717ms NOTE F# OCTAVE 5
NOTE ON CHANNEL 4 DURATION: 68.48717ms NOTE B  OCTAVE 4
NOTE OFF CHANNEL 4 DURATION: 69.154367ms NOTE B  OCTAVE 4
NOTE OFF CHANNEL 4 DURATION: 69.154367ms NOTE F# OCTAVE 5
NOTE OFF CHANNEL 4 DURATION: 69.154367ms NOTE D  OCTAVE 5
NOTE ON CHANNEL 4 DURATION: 69.163169ms NOTE E  OCTAVE 5
NOTE ON CHANNEL 4 DURATION: 69.163169ms NOTE B  OCTAVE 4
NOTE ON CHANNEL 4 DURATION: 69.164929ms NOTE G# OCTAVE 5
NOTE OFF CHANNEL 4 DURATION: 69.833887ms NOTE G# OCTAVE 5
NOTE OFF CHANNEL 4 DURATION: 69.833887ms NOTE B  OCTAVE 4
NOTE OFF CHANNEL 4 DURATION: 69.833887ms NOTE E  OCTAVE 5
NOTE ON CHANNEL 4 DURATION: 69.842689ms NOTE E  OCTAVE 5
NOTE ON CHANNEL 4 DURATION: 69.842689ms NOTE A  OCTAVE 5
NOTE ON CHANNEL 4 DURATION: 69.844449ms NOTE C# OCTAVE 5
NOTE OFF CHANNEL 4 DURATION: 70.511646ms NOTE C# OCTAVE 5
NOTE OFF CHANNEL 4 DURATION: 70.511646ms NOTE A  OCTAVE 5
NOTE OFF CHANNEL 4 DURATION: 70.511646ms NOTE E  OCTAVE 5
NOTE ON CHANNEL 4 DURATION: 70.520448ms NOTE F# OCTAVE 5
NOTE ON CHANNEL 4 DURATION: 70.520448ms NOTE D  OCTAVE 5
NOTE ON CHANNEL 4 DURATION: 70.520448ms NOTE A  OCTAVE 5
NOTE OFF CHANNEL 4 DURATION: 71.191166ms NOTE A  OCTAVE 5
NOTE OFF CHANNEL 4 DURATION: 71.191166ms NOTE D  OCTAVE 5
NOTE OFF CHANNEL 4 DURATION: 71.191166ms NOTE F# OCTAVE 5
NOTE ON CHANNEL 4 DURATION: 71.199969ms NOTE D  OCTAVE 5
NOTE ON CHANNEL 4 DURATION: 71.199969ms NOTE F# OCTAVE 5
NOTE ON CHANNEL 4 DURATION: 71.199969ms NOTE B  OCTAVE 4
NOTE OFF CHANNEL 4 DURATION: 71.867166ms NOTE B  OCTAVE 4
NOTE OFF CHANNEL 4 DURATION: 71.867166ms NOTE F# OCTAVE 5
NOTE OFF CHANNEL 4 DURATION: 71.867166ms NOTE D  OCTAVE 5
NOTE ON CHANNEL 4 DURATION: 71.875968ms NOTE E  OCTAVE 5
NOTE ON CHANNEL 4 DURATION: 71.875968ms NOTE B  OCTAVE 4
NOTE ON CHANNEL 4 DURATION: 71.877728ms NOTE G# OCTAVE 5
NOTE OFF CHANNEL 4 DURATION: 72.544925ms NOTE G# OCTAVE 5
NOTE OFF CHANNEL 4 DURATION: 72.544925ms NOTE B  OCTAVE 4
NOTE OFF CHANNEL 4 DURATION: 72.544925ms NOTE E  OCTAVE 5
NOTE ON CHANNEL 4 DURATION: 72.555488ms NOTE D  OCTAVE 5
NOTE ON CHANNEL 4 DURATION: 72.555488ms NOTE F# OCTAVE 5
NOTE ON CHANNEL 4 DURATION: 72.557248ms NOTE B  OCTAVE 4
NOTE OFF CHANNEL 4 DURATION: 73.224445ms NOTE B  OCTAVE 4
NOTE OFF CHANNEL 4 DURATION: 73.224445ms NOTE F# OCTAVE 5
NOTE OFF CHANNEL 4 DURATION: 73.224445ms NOTE D  OCTAVE 5
NOTE ON CHANNEL 4 DURATION: 73.231487ms NOTE E  OCTAVE 5
NOTE ON CHANNEL 4 DURATION: 73.233247ms NOTE B  OCTAVE 4
NOTE ON CHANNEL 4 DURATION: 73.233247ms NOTE G# OCTAVE 5
NOTE OFF CHANNEL 4 DURATION: 73.902205ms NOTE G# OCTAVE 5
NOTE OFF CHANNEL 4 DURATION: 73.902205ms NOTE B  OCTAVE 4
NOTE OFF CHANNEL 4 DURATION: 73.902205ms NOTE E  OCTAVE 5
NOTE ON CHANNEL 4 DURATION: 73.911007ms NOTE B  OCTAVE 3
NOTE ON CHANNEL 4 DURATION: 73.911007ms NOTE F# OCTAVE 4
NOTE ON CHANNEL 4 DURATION: 73.912767ms NOTE D  OCTAVE 4
NOTE OFF CHANNEL 4 DURATION: 74.579965ms NOTE D  OCTAVE 4
NOTE OFF CHANNEL 4 DURATION: 74.579965ms NOTE F# OCTAVE 4
NOTE OFF CHANNEL 4 DURATION: 74.579965ms NOTE B  OCTAVE 3
NOTE ON CHANNEL 4 DURATION: 74.588767ms NOTE G# OCTAVE 4
NOTE ON CHANNEL 4 DURATION: 74.588767ms NOTE B  OCTAVE 3
NOTE ON CHANNEL 4 DURATION: 74.590527ms NOTE E  OCTAVE 4
NOTE OFF CHANNEL 4 DURATION: 75.257724ms NOTE E  OCTAVE 4
NOTE OFF CHANNEL 4 DURATION: 75.257724ms NOTE B  OCTAVE 3
NOTE OFF CHANNEL 4 DURATION: 75.257724ms NOTE G# OCTAVE 4
NOTE ON CHANNEL 4 DURATION: 75.266526ms NOTE A  OCTAVE 3
NOTE ON CHANNEL 4 DURATION: 75.266526ms NOTE E  OCTAVE 4
NOTE ON CHANNEL 4 DURATION: 75.268287ms NOTE C# OCTAVE 4
NOTE OFF CHANNEL 4 DURATION: 75.935484ms NOTE A  OCTAVE 3
NOTE OFF CHANNEL 4 DURATION: 75.937244ms NOTE C# OCTAVE 4
NOTE OFF CHANNEL 4 DURATION: 75.937244ms NOTE E  OCTAVE 4
NOTE ON CHANNEL 4 DURATION: 75.944286ms NOTE D  OCTAVE 4
NOTE ON CHANNEL 4 DURATION: 75.946046ms NOTE F# OCTAVE 4
NOTE ON CHANNEL 4 DURATION: 75.946046ms NOTE A  OCTAVE 3
NOTE OFF CHANNEL 4 DURATION: 76.615004ms NOTE A  OCTAVE 3
NOTE OFF CHANNEL 4 DURATION: 76.615004ms NOTE F# OCTAVE 4
NOTE OFF CHANNEL 4 DURATION: 76.615004ms NOTE D  OCTAVE 4
NOTE ON CHANNEL 4 DURATION: 76.623806ms NOTE B  OCTAVE 3
NOTE ON CHANNEL 4 DURATION: 76.623806ms NOTE F# OCTAVE 4
NOTE ON CHANNEL 4 DURATION: 76.623806ms NOTE D  OCTAVE 4
NOTE OFF CHANNEL 4 DURATION: 77.292763ms NOTE D  OCTAVE 4
NOTE OFF CHANNEL 4 DURATION: 77.292763ms NOTE F# OCTAVE 4
NOTE OFF CHANNEL 4 DURATION: 77.292763ms NOTE B  OCTAVE 3
NOTE ON CHANNEL 4 DURATION: 77.301566ms NOTE G# OCTAVE 4
NOTE ON CHANNEL 4 DURATION: 77.301566ms NOTE B  OCTAVE 3
NOTE ON CHANNEL 4 DURATION: 77.301566ms NOTE E  OCTAVE 4
NOTE OFF CHANNEL 4 DURATION: 77.970523ms NOTE E  OCTAVE 4
NOTE OFF CHANNEL 4 DURATION: 77.970523ms NOTE B  OCTAVE 3
NOTE OFF CHANNEL 4 DURATION: 77.970523ms NOTE G# OCTAVE 4
NOTE ON CHANNEL 4 DURATION: 77.979325ms NOTE A  OCTAVE 3
NOTE ON CHANNEL 4 DURATION: 77.979325ms NOTE E  OCTAVE 4
NOTE ON CHANNEL 4 DURATION: 77.981086ms NOTE C# OCTAVE 4
NOTE OFF CHANNEL 4 DURATION: 78.650043ms NOTE C# OCTAVE 4
NOTE OFF CHANNEL 4 DURATION: 78.650043ms NOTE E  OCTAVE 4
NOTE OFF CHANNEL 4 DURATION: 78.650043ms NOTE A  OCTAVE 3
NOTE ON CHANNEL 4 DURATION: 78.657085ms NOTE D  OCTAVE 4
NOTE ON CHANNEL 4 DURATION: 78.657085ms NOTE F# OCTAVE 4
NOTE ON CHANNEL 4 DURATION: 78.658845ms NOTE A  OCTAVE 3
NOTE OFF CHANNEL 4 DURATION: 79.329563ms NOTE A  OCTAVE 3
NOTE OFF CHANNEL 4 DURATION: 79.329563ms NOTE F# OCTAVE 4
NOTE OFF CHANNEL 4 DURATION: 79.329563ms NOTE D  OCTAVE 4
NOTE ON CHANNEL 4 DURATION: 79.334844ms NOTE B  OCTAVE 3
NOTE ON CHANNEL 4 DURATION: 79.334844ms NOTE D  OCTAVE 4
NOTE ON CHANNEL 4 DURATION: 79.336605ms NOTE F# OCTAVE 4
NOTE OFF CHANNEL 4 DURATION: 80.007323ms NOTE F# OCTAVE 4
NOTE OFF CHANNEL 4 DURATION: 80.007323ms NOTE D  OCTAVE 4
NOTE OFF CHANNEL 4 DURATION: 80.007323ms NOTE B  OCTAVE 3
NOTE ON CHANNEL 4 DURATION: 80.012604ms NOTE E  OCTAVE 4
NOTE ON CHANNEL 4 DURATION: 80.014364ms NOTE B  OCTAVE 3
NOTE ON CHANNEL 4 DURATION: 80.014364ms NOTE G# OCTAVE 4
NOTE OFF CHANNEL 4 DURATION: 80.685082ms NOTE G# OCTAVE 4
NOTE OFF CHANNEL 4 DURATION: 80.685082ms NOTE B  OCTAVE 3
NOTE OFF CHANNEL 4 DURATION: 80.685082ms NOTE E  OCTAVE 4
NOTE ON CHANNEL 4 DURATION: 80.692124ms NOTE C# OCTAVE 4
NOTE ON CHANNEL 4 DURATION: 80.692124ms NOTE F# OCTAVE 4
NOTE ON CHANNEL 4 DURATION: 80.692124ms NOTE A  OCTAVE 4
NOTE OFF CHANNEL 4 DURATION: 81.362842ms NOTE A  OCTAVE 4
NOTE OFF CHANNEL 4 DURATION: 81.362842ms NOTE F# OCTAVE 4
NOTE OFF CHANNEL 4 DURATION: 81.362842ms NOTE C# OCTAVE 4
NOTE ON CHANNEL 4 DURATION: 81.369884ms NOTE D  OCTAVE 4
NOTE ON CHANNEL 4 DURATION: 81.369884ms NOTE F# OCTAVE 4
NOTE ON CHANNEL 4 DURATION: 81.371644ms NOTE A  OCTAVE 4
NOTE OFF CHANNEL 4 DURATION: 82.040602ms NOTE D  OCTAVE 4
NOTE OFF CHANNEL 4 DURATION: 82.042362ms NOTE A  OCTAVE 4
NOTE OFF CHANNEL 4 DURATION: 82.042362ms NOTE F# OCTAVE 4
NOTE ON CHANNEL 4 DURATION: 82.047643ms NOTE C# OCTAVE 4
NOTE ON CHANNEL 4 DURATION: 82.049404ms NOTE A  OCTAVE 4
NOTE ON CHANNEL 4 DURATION: 82.049404ms NOTE E  OCTAVE 4
NOTE OFF CHANNEL 4 DURATION: 82.720122ms NOTE A  OCTAVE 4
NOTE OFF CHANNEL 4 DURATION: 82.720122ms NOTE C# OCTAVE 4
NOTE ON CHANNEL 4 DURATION: 82.727163ms NOTE G# OCTAVE 4
NOTE ON CHANNEL 4 DURATION: 82.728924ms NOTE B  OCTAVE 3
NOTE OFF CHANNEL 4 DURATION: 83.397881ms NOTE B  OCTAVE 3
NOTE OFF CHANNEL 4 DURATION: 83.397881ms NOTE G# OCTAVE 4
NOTE OFF CHANNEL 4 DURATION: 83.397881ms NOTE E  OCTAVE 4
NOTE ON CHANNEL 4 DURATION: 83.404923ms NOTE A  OCTAVE 4
NOTE ON CHANNEL 4 DURATION: 83.404923ms NOTE C# OCTAVE 4
NOTE ON CHANNEL 4 DURATION: 83.406683ms NOTE F# OCTAVE 4
NOTE OFF CHANNEL 4 DURATION: 84.753401ms NOTE F# OCTAVE 4
NOTE OFF CHANNEL 4 DURATION: 84.753401ms NOTE C# OCTAVE 4
NOTE OFF CHANNEL 4 DURATION: 84.753401ms NOTE A  OCTAVE 4
NOTE ON CHANNEL 4 DURATION: 84.762203ms NOTE E  OCTAVE 4
NOTE ON CHANNEL 4 DURATION: 84.762203ms NOTE C# OCTAVE 5
NOTE ON CHANNEL 4 DURATION: 84.763963ms NOTE A  OCTAVE 4
NOTE OFF CHANNEL 4 DURATION: 85.432921ms NOTE A  OCTAVE 4
NOTE OFF CHANNEL 4 DURATION: 85.432921ms NOTE C# OCTAVE 5
NOTE OFF CHANNEL 4 DURATION: 85.432921ms NOTE E  OCTAVE 4
NOTE ON CHANNEL 4 DURATION: 85.439962ms NOTE B  OCTAVE 4
NOTE ON CHANNEL 4 DURATION: 85.439962ms NOTE G# OCTAVE 4
NOTE ON CHANNEL 4 DURATION: 85.441723ms NOTE E  OCTAVE 5
NOTE OFF CHANNEL 4 DURATION: 86.11068ms NOTE E  OCTAVE 5
NOTE OFF CHANNEL 4 DURATION: 86.11068ms NOTE G# OCTAVE 4
NOTE OFF CHANNEL 4 DURATION: 86.11068ms NOTE B  OCTAVE 4
NOTE ON CHANNEL 4 DURATION: 86.117722ms NOTE F# OCTAVE 5
NOTE ON CHANNEL 4 DURATION: 86.117722ms NOTE C# OCTAVE 5
NOTE ON CHANNEL 4 DURATION: 86.119482ms NOTE A  OCTAVE 4
NOTE OFF CHANNEL 4 DURATION: 87.4662ms NOTE F# OCTAVE 5
NOTE OFF CHANNEL 4 DURATION: 87.46796ms NOTE A  OCTAVE 4
NOTE OFF CHANNEL 4 DURATION: 87.46796ms NOTE C# OCTAVE 5
NOTE ON CHANNEL 4 DURATION: 87.475002ms NOTE C# OCTAVE 3
NOTE ON CHANNEL 4 DURATION: 87.475002ms NOTE C# OCTAVE 4
NOTE OFF CHANNEL 4 DURATION: 88.143959ms NOTE C# OCTAVE 4
NOTE OFF CHANNEL 4 DURATION: 88.143959ms NOTE C# OCTAVE 3
NOTE ON CHANNEL 4 DURATION: 88.151001ms NOTE E  OCTAVE 3
NOTE ON CHANNEL 4 DURATION: 88.152761ms NOTE E  OCTAVE 4
NOTE OFF CHANNEL 4 DURATION: 88.821719ms NOTE E  OCTAVE 4
NOTE OFF CHANNEL 4 DURATION: 88.821719ms NOTE E  OCTAVE 3
NOTE ON CHANNEL 4 DURATION: 88.830521ms NOTE F# OCTAVE 3
NOTE ON CHANNEL 4 DURATION: 88.830521ms NOTE F# OCTAVE 4
NOTE OFF CHANNEL 4 DURATION: 90.177238ms NOTE F# OCTAVE 4
NOTE OFF CHANNEL 4 DURATION: 90.177238ms NOTE F# OCTAVE 3
NOTE ON CHANNEL 4 DURATION: 90.189561ms NOTE C# OCTAVE 4
NOTE ON CHANNEL 4 DURATION: 90.189561ms NOTE A  OCTAVE 4
NOTE ON CHANNEL 4 DURATION: 90.189561ms NOTE E  OCTAVE 4
NOTE OFF CHANNEL 4 DURATION: 90.856758ms NOTE A  OCTAVE 4
NOTE OFF CHANNEL 4 DURATION: 90.856758ms NOTE C# OCTAVE 4
NOTE ON CHANNEL 4 DURATION: 90.8638ms NOTE G# OCTAVE 4
NOTE ON CHANNEL 4 DURATION: 90.86556ms NOTE B  OCTAVE 3
NOTE OFF CHANNEL 4 DURATION: 91.534518ms NOTE B  OCTAVE 3
NOTE OFF CHANNEL 4 DURATION: 91.534518ms NOTE G# OCTAVE 4
NOTE OFF CHANNEL 4 DURATION: 91.534518ms NOTE E  OCTAVE 4
NOTE ON CHANNEL 4 DURATION: 91.54332ms NOTE A  OCTAVE 4
NOTE ON CHANNEL 4 DURATION: 91.54332ms NOTE C# OCTAVE 4
NOTE ON CHANNEL 4 DURATION: 91.54332ms NOTE F# OCTAVE 4
NOTE OFF CHANNEL 4 DURATION: 92.891797ms NOTE F# OCTAVE 4
NOTE OFF CHANNEL 4 DURATION: 92.891797ms NOTE C# OCTAVE 4
NOTE OFF CHANNEL 4 DURATION: 92.891797ms NOTE A  OCTAVE 4
NOTE ON CHANNEL 4 DURATION: 92.898839ms NOTE C# OCTAVE 5
NOTE ON CHANNEL 4 DURATION: 92.898839ms NOTE E  OCTAVE 4
NOTE ON CHANNEL 4 DURATION: 92.900599ms NOTE A  OCTAVE 4
NOTE OFF CHANNEL 4 DURATION: 93.569557ms NOTE A  OCTAVE 4
NOTE OFF CHANNEL 4 DURATION: 93.569557ms NOTE E  OCTAVE 4
NOTE OFF CHANNEL 4 DURATION: 93.569557ms NOTE C# OCTAVE 5
NOTE ON CHANNEL 4 DURATION: 93.576599ms NOTE E  OCTAVE 5
NOTE ON CHANNEL 4 DURATION: 93.576599ms NOTE B  OCTAVE 4
NOTE ON CHANNEL 4 DURATION: 93.578359ms NOTE G# OCTAVE 4
NOTE OFF CHANNEL 4 DURATION: 94.247317ms NOTE G# OCTAVE 4
NOTE OFF CHANNEL 4 DURATION: 94.247317ms NOTE B  OCTAVE 4
NOTE OFF CHANNEL 4 DURATION: 94.247317ms NOTE E  OCTAVE 5
NOTE ON CHANNEL 4 DURATION: 94.254358ms NOTE A  OCTAVE 4
NOTE ON CHANNEL 4 DURATION: 94.254358ms NOTE F# OCTAVE 5
NOTE ON CHANNEL 4 DURATION: 94.256119ms NOTE C# OCTAVE 5
NOTE OFF CHANNEL 4 DURATION: 95.604596ms NOTE C# OCTAVE 5
NOTE OFF CHANNEL 4 DURATION: 95.604596ms NOTE F# OCTAVE 5
NOTE OFF CHANNEL 4 DURATION: 95.604596ms NOTE A  OCTAVE 4
NOTE ON CHANNEL 4 DURATION: 95.611638ms NOTE C# OCTAVE 4
NOTE ON CHANNEL 4 DURATION: 95.613398ms NOTE A  OCTAVE 4
NOTE ON CHANNEL 4 DURATION: 95.613398ms NOTE E  OCTAVE 4
NOTE OFF CHANNEL 4 DURATION: 96.280596ms NOTE A  OCTAVE 4
NOTE OFF CHANNEL 4 DURATION: 96.280596ms NOTE C# OCTAVE 4
NOTE ON CHANNEL 4 DURATION: 96.289398ms NOTE G# OCTAVE 4
NOTE ON CHANNEL 4 DURATION: 96.289398ms NOTE B  OCTAVE 3
NOTE OFF CHANNEL 4 DURATION: 96.958355ms NOTE B  OCTAVE 3
NOTE OFF CHANNEL 4 DURATION: 96.958355ms NOTE G# OCTAVE 4
NOTE OFF CHANNEL 4 DURATION: 96.958355ms NOTE E  OCTAVE 4
NOTE ON CHANNEL 4 DURATION: 96.967157ms NOTE A  OCTAVE 4
NOTE ON CHANNEL 4 DURATION: 96.967157ms NOTE C# OCTAVE 4
NOTE ON CHANNEL 4 DURATION: 96.968918ms NOTE F# OCTAVE 4
NOTE OFF CHANNEL 4 DURATION: 98.315635ms NOTE F# OCTAVE 4
NOTE OFF CHANNEL 4 DURATION: 98.315635ms NOTE C# OCTAVE 4
NOTE OFF CHANNEL 4 DURATION: 98.315635ms NOTE A  OCTAVE 4
NOTE ON CHANNEL 4 DURATION: 98.324437ms NOTE C# OCTAVE 4
NOTE ON CHANNEL 4 DURATION: 98.326197ms NOTE A  OCTAVE 4
NOTE ON CHANNEL 4 DURATION: 98.326197ms NOTE E  OCTAVE 4
NOTE OFF CHANNEL 4 DURATION: 98.993394ms NOTE A  OCTAVE 4
NOTE OFF CHANNEL 4 DURATION: 98.993394ms NOTE C# OCTAVE 4
NOTE ON CHANNEL 4 DURATION: 99.002196ms NOTE G# OCTAVE 4
NOTE ON CHANNEL 4 DURATION: 99.002196ms NOTE B  OCTAVE 3
NOTE OFF CHANNEL 4 DURATION: 99.671154ms NOTE B  OCTAVE 3
NOTE OFF CHANNEL 4 DURATION: 99.671154ms NOTE G# OCTAVE 4
NOTE OFF CHANNEL 4 DURATION: 99.671154ms NOTE E  OCTAVE 4
NOTE ON CHANNEL 4 DURATION: 99.679956ms NOTE A  OCTAVE 4
NOTE ON CHANNEL 4 DURATION: 99.679956ms NOTE C# OCTAVE 4
NOTE ON CHANNEL 4 DURATION: 99.681717ms NOTE F# OCTAVE 4
NOTE OFF CHANNEL 4 DURATION: 101.026673ms NOTE F# OCTAVE 4
NOTE OFF CHANNEL 4 DURATION: 101.026673ms NOTE C# OCTAVE 4
NOTE OFF CHANNEL 4 DURATION: 101.026673ms NOTE A  OCTAVE 4
NOTE ON CHANNEL 4 DURATION: 101.037236ms NOTE C# OCTAVE 5
NOTE ON CHANNEL 4 DURATION: 101.037236ms NOTE E  OCTAVE 4
NOTE ON CHANNEL 4 DURATION: 101.037236ms NOTE A  OCTAVE 4
NOTE OFF CHANNEL 4 DURATION: 101.706193ms NOTE A  OCTAVE 4
NOTE OFF CHANNEL 4 DURATION: 101.706193ms NOTE E  OCTAVE 4
NOTE OFF CHANNEL 4 DURATION: 101.706193ms NOTE C# OCTAVE 5
NOTE ON CHANNEL 4 DURATION: 101.714995ms NOTE E  OCTAVE 5
NOTE ON CHANNEL 4 DURATION: 101.714995ms NOTE B  OCTAVE 4
NOTE ON CHANNEL 4 DURATION: 101.714995ms NOTE G# OCTAVE 4
NOTE OFF CHANNEL 4 DURATION: 102.383953ms NOTE G# OCTAVE 4
NOTE OFF CHANNEL 4 DURATION: 102.383953ms NOTE B  OCTAVE 4
NOTE OFF CHANNEL 4 DURATION: 102.383953ms NOTE E  OCTAVE 5
NOTE ON CHANNEL 4 DURATION: 102.392755ms NOTE A  OCTAVE 4
NOTE ON CHANNEL 4 DURATION: 102.392755ms NOTE F# OCTAVE 5
NOTE ON CHANNEL 4 DURATION: 102.392755ms NOTE C# OCTAVE 5
NOTE OFF CHANNEL 4 DURATION: 103.739472ms NOTE A  OCTAVE 4
NOTE OFF CHANNEL 4 DURATION: 103.741233ms NOTE C# OCTAVE 5
NOTE OFF CHANNEL 4 DURATION: 103.741233ms NOTE F# OCTAVE 5
NOTE ON CHANNEL 4 DURATION: 103.751795ms NOTE E  OCTAVE 4
NOTE ON CHANNEL 4 DURATION: 103.751795ms NOTE A  OCTAVE 4
NOTE ON CHANNEL 4 DURATION: 103.751795ms NOTE C# OCTAVE 4
NOTE OFF CHANNEL 4 DURATION: 104.417232ms NOTE C# OCTAVE 4
NOTE OFF CHANNEL 4 DURATION: 104.417232ms NOTE A  OCTAVE 4
NOTE ON CHANNEL 4 DURATION: 104.427794ms NOTE G# OCTAVE 4
NOTE ON CHANNEL 4 DURATION: 104.427794ms NOTE B  OCTAVE 3
NOTE OFF CHANNEL 4 DURATION: 105.094991ms NOTE B  OCTAVE 3
NOTE OFF CHANNEL 4 DURATION: 105.094991ms NOTE G# OCTAVE 4
NOTE OFF CHANNEL 4 DURATION: 105.094991ms NOTE E  OCTAVE 4
NOTE ON CHANNEL 4 DURATION: 105.107314ms NOTE A  OCTAVE 4
NOTE ON CHANNEL 4 DURATION: 105.107314ms NOTE C# OCTAVE 4
NOTE ON CHANNEL 4 DURATION: 105.107314ms NOTE F# OCTAVE 4
NOTE OFF CHANNEL 4 DURATION: 106.452271ms NOTE F# OCTAVE 4
NOTE OFF CHANNEL 4 DURATION: 106.452271ms NOTE C# OCTAVE 4
NOTE OFF CHANNEL 4 DURATION: 106.452271ms NOTE A  OCTAVE 4
TEMPOOOOOOOooo 168.99980283356336
NOTE ON CHANNEL 5 DURATION: 8.814395ms NOTE F# OCTAVE 5
NOTE ON CHANNEL 5 DURATION: 8.814395ms NOTE F# OCTAVE 6
NOTE OFF CHANNEL 5 DURATION: 8.87601ms NOTE F# OCTAVE 6
NOTE OFF CHANNEL 5 DURATION: 8.87601ms NOTE F# OCTAVE 5
NOTE ON CHANNEL 5 DURATION: 8.898895ms NOTE F# OCTAVE 6
NOTE ON CHANNEL 5 DURATION: 8.898895ms NOTE F# OCTAVE 5
NOTE OFF CHANNEL 5 DURATION: 8.981635ms NOTE F# OCTAVE 5
NOTE OFF CHANNEL 5 DURATION: 8.981635ms NOTE F# OCTAVE 6
NOTE ON CHANNEL 5 DURATION: 8.985156ms NOTE D  OCTAVE 6
NOTE ON CHANNEL 5 DURATION: 8.985156ms NOTE D  OCTAVE 5
NOTE OFF CHANNEL 5 DURATION: 9.067895ms NOTE D  OCTAVE 5
NOTE OFF CHANNEL 5 DURATION: 9.067895ms NOTE D  OCTAVE 6
NOTE ON CHANNEL 5 DURATION: 9.067895ms NOTE B  OCTAVE 4
NOTE ON CHANNEL 5 DURATION: 9.069656ms NOTE B  OCTAVE 5
NOTE OFF CHANNEL 5 DURATION: 9.140072ms NOTE B  OCTAVE 5
NOTE OFF CHANNEL 5 DURATION: 9.140072ms NOTE B  OCTAVE 4
NOTE ON CHANNEL 5 DURATION: 9.238655ms NOTE B  OCTAVE 5
NOTE ON CHANNEL 5 DURATION: 9.238655ms NOTE B  OCTAVE 4
NOTE OFF CHANNEL 5 DURATION: 9.323155ms NOTE B  OCTAVE 4
NOTE OFF CHANNEL 5 DURATION: 9.323155ms NOTE B  OCTAVE 5
NOTE ON CHANNEL 5 DURATION: 9.405895ms NOTE E  OCTAVE 6
NOTE ON CHANNEL 5 DURATION: 9.405895ms NOTE E  OCTAVE 5
NOTE OFF CHANNEL 5 DURATION: 9.479832ms NOTE E  OCTAVE 5
NOTE OFF CHANNEL 5 DURATION: 9.479832ms NOTE E  OCTAVE 6
NOTE ON CHANNEL 5 DURATION: 9.576655ms NOTE E  OCTAVE 5
NOTE ON CHANNEL 5 DURATION: 9.576655ms NOTE E  OCTAVE 6
NOTE OFF CHANNEL 5 DURATION: 9.659394ms NOTE E  OCTAVE 6
NOTE OFF CHANNEL 5 DURATION: 9.659394ms NOTE E  OCTAVE 5
NOTE ON CHANNEL 5 DURATION: 9.745655ms NOTE E  OCTAVE 6
NOTE ON CHANNEL 5 DURATION: 9.745655ms NOTE E  OCTAVE 5
NOTE OFF CHANNEL 5 DURATION: 9.828394ms NOTE E  OCTAVE 5
NOTE OFF CHANNEL 5 DURATION: 9.828394ms NOTE E  OCTAVE 6
NOTE ON CHANNEL 5 DURATION: 9.833676ms NOTE G# OCTAVE 6
NOTE ON CHANNEL 5 DURATION: 9.833676ms NOTE G# OCTAVE 5
NOTE OFF CHANNEL 5 DURATION: 9.900571ms NOTE G# OCTAVE 5
NOTE OFF CHANNEL 5 DURATION: 9.900571ms NOTE G# OCTAVE 6
NOTE ON CHANNEL 5 DURATION: 9.916415ms NOTE G# OCTAVE 5
NOTE ON CHANNEL 5 DURATION: 9.916415ms NOTE G# OCTAVE 6
NOTE OFF CHANNEL 5 DURATION: 9.988592ms NOTE G# OCTAVE 6
NOTE OFF CHANNEL 5 DURATION: 9.988592ms NOTE G# OCTAVE 5
NOTE ON CHANNEL 5 DURATION: 10.000915ms NOTE A  OCTAVE 6
NOTE ON CHANNEL 5 DURATION: 10.002675ms NOTE A  OCTAVE 5
NOTE OFF CHANNEL 5 DURATION: 10.076613ms NOTE A  OCTAVE 5
NOTE OFF CHANNEL 5 DURATION: 10.076613ms NOTE A  OCTAVE 6
NOTE ON CHANNEL 5 DURATION: 10.085415ms NOTE B  OCTAVE 6
NOTE ON CHANNEL 5 DURATION: 10.085415ms NOTE B  OCTAVE 5
NOTE OFF CHANNEL 5 DURATION: 10.168154ms NOTE B  OCTAVE 5
NOTE OFF CHANNEL 5 DURATION: 10.168154ms NOTE B  OCTAVE 6
NOTE ON CHANNEL 5 DURATION: 10.171675ms NOTE A  OCTAVE 5
NOTE ON CHANNEL 5 DURATION: 10.171675ms NOTE A  OCTAVE 6
NOTE OFF CHANNEL 5 DURATION: 10.23681ms NOTE A  OCTAVE 6
NOTE OFF CHANNEL 5 DURATION: 10.23681ms NOTE A  OCTAVE 5
NOTE ON CHANNEL 5 DURATION: 10.254415ms NOTE A  OCTAVE 6
NOTE ON CHANNEL 5 DURATION: 10.254415ms NOTE A  OCTAVE 5
NOTE OFF CHANNEL 5 DURATION: 10.326592ms NOTE A  OCTAVE 6
NOTE OFF CHANNEL 5 DURATION: 10.328352ms NOTE A  OCTAVE 5
NOTE ON CHANNEL 5 DURATION: 10.340675ms NOTE A  OCTAVE 6
NOTE ON CHANNEL 5 DURATION: 10.340675ms NOTE A  OCTAVE 5
NOTE OFF CHANNEL 5 DURATION: 10.40581ms NOTE A  OCTAVE 5
NOTE OFF CHANNEL 5 DURATION: 10.40581ms NOTE A  OCTAVE 6
NOTE ON CHANNEL 5 DURATION: 10.423414ms NOTE E  OCTAVE 5
NOTE ON CHANNEL 5 DURATION: 10.423414ms NOTE E  OCTAVE 6
NOTE OFF CHANNEL 5 DURATION: 10.497352ms NOTE E  OCTAVE 6
NOTE OFF CHANNEL 5 DURATION: 10.497352ms NOTE E  OCTAVE 5
NOTE ON CHANNEL 5 DURATION: 10.594175ms NOTE D  OCTAVE 6
NOTE ON CHANNEL 5 DURATION: 10.594175ms NOTE D  OCTAVE 5
NOTE OFF CHANNEL 5 DURATION: 10.65931ms NOTE D  OCTAVE 5
NOTE OFF CHANNEL 5 DURATION: 10.65931ms NOTE D  OCTAVE 6
NOTE ON CHANNEL 5 DURATION: 10.763174ms NOTE F# OCTAVE 6
NOTE ON CHANNEL 5 DURATION: 10.763174ms NOTE F# OCTAVE 5
NOTE OFF CHANNEL 5 DURATION: 10.835351ms NOTE F# OCTAVE 5
NOTE OFF CHANNEL 5 DURATION: 10.835351ms NOTE F# OCTAVE 6
NOTE ON CHANNEL 5 DURATION: 10.932174ms NOTE F# OCTAVE 5
NOTE ON CHANNEL 5 DURATION: 10.932174ms NOTE F# OCTAVE 6
NOTE OFF CHANNEL 5 DURATION: 11.006112ms NOTE F# OCTAVE 6
NOTE OFF CHANNEL 5 DURATION: 11.006112ms NOTE F# OCTAVE 5
NOTE ON CHANNEL 5 DURATION: 11.101174ms NOTE F# OCTAVE 6
NOTE ON CHANNEL 5 DURATION: 11.102934ms NOTE F# OCTAVE 5
NOTE OFF CHANNEL 5 DURATION: 11.175111ms NOTE F# OCTAVE 5
NOTE OFF CHANNEL 5 DURATION: 11.175111ms NOTE F# OCTAVE 6
NOTE ON CHANNEL 5 DURATION: 11.189195ms NOTE E  OCTAVE 6
NOTE ON CHANNEL 5 DURATION: 11.189195ms NOTE E  OCTAVE 5
NOTE OFF CHANNEL 5 DURATION: 11.263132ms NOTE E  OCTAVE 5
NOTE OFF CHANNEL 5 DURATION: 11.263132ms NOTE E  OCTAVE 6
NOTE ON CHANNEL 5 DURATION: 11.271934ms NOTE E  OCTAVE 5
NOTE ON CHANNEL 5 DURATION: 11.271934ms NOTE E  OCTAVE 6
NOTE OFF CHANNEL 5 DURATION: 11.347632ms NOTE E  OCTAVE 6
NOTE OFF CHANNEL 5 DURATION: 11.347632ms NOTE E  OCTAVE 5
NOTE ON CHANNEL 5 DURATION: 11.358195ms NOTE F# OCTAVE 6
NOTE ON CHANNEL 5 DURATION: 11.358195ms NOTE F# OCTAVE 5
NOTE OFF CHANNEL 5 DURATION: 11.42509ms NOTE F# OCTAVE 6
NOTE OFF CHANNEL 5 DURATION: 11.426851ms NOTE F# OCTAVE 5
NOTE ON CHANNEL 5 DURATION: 11.440934ms NOTE E  OCTAVE 6
NOTE ON CHANNEL 5 DURATION: 11.440934ms NOTE E  OCTAVE 5
NOTE OFF CHANNEL 5 DURATION: 11.516632ms NOTE E  OCTAVE 5
NOTE OFF CHANNEL 5 DURATION: 11.516632ms NOTE E  OCTAVE 6
NOTE ON CHANNEL 5 DURATION: 11.527194ms NOTE F# OCTAVE 5
NOTE ON CHANNEL 5 DURATION: 11.527194ms NOTE F# OCTAVE 6
NOTE OFF CHANNEL 5 DURATION: 11.595851ms NOTE F# OCTAVE 6
NOTE OFF CHANNEL 5 DURATION: 11.595851ms NOTE F# OCTAVE 5
NOTE ON CHANNEL 5 DURATION: 11.609934ms NOTE F# OCTAVE 6
NOTE ON CHANNEL 5 DURATION: 11.609934ms NOTE F# OCTAVE 5
NOTE OFF CHANNEL 5 DURATION: 11.683871ms NOTE F# OCTAVE 5
NOTE OFF CHANNEL 5 DURATION: 11.683871ms NOTE F# OCTAVE 6
NOTE ON CHANNEL 5 DURATION: 11.696194ms NOTE D  OCTAVE 6
NOTE ON CHANNEL 5 DURATION: 11.697955ms NOTE D  OCTAVE 5
NOTE OFF CHANNEL 5 DURATION: 11.770132ms NOTE D  OCTAVE 5
NOTE OFF CHANNEL 5 DURATION: 11.770132ms NOTE D  OCTAVE 6
NOTE ON CHANNEL 5 DURATION: 11.780694ms NOTE B  OCTAVE 4
NOTE ON CHANNEL 5 DURATION: 11.780694ms NOTE B  OCTAVE 5
NOTE OFF CHANNEL 5 DURATION: 11.840548ms NOTE B  OCTAVE 5
NOTE OFF CHANNEL 5 DURATION: 11.840548ms NOTE B  OCTAVE 4
NOTE ON CHANNEL 5 DURATION: 11.949694ms NOTE B  OCTAVE 5
NOTE ON CHANNEL 5 DURATION: 11.951454ms NOTE B  OCTAVE 4
NOTE OFF CHANNEL 5 DURATION: 12.025392ms NOTE B  OCTAVE 4
NOTE OFF CHANNEL 5 DURATION: 12.025392ms NOTE B  OCTAVE 5
NOTE ON CHANNEL 5 DURATION: 12.118694ms NOTE E  OCTAVE 6
NOTE ON CHANNEL 5 DURATION: 12.118694ms NOTE E  OCTAVE 5
NOTE OFF CHANNEL 5 DURATION: 12.199673ms NOTE E  OCTAVE 5
NOTE OFF CHANNEL 5 DURATION: 12.199673ms NOTE E  OCTAVE 6
NOTE ON CHANNEL 5 DURATION: 12.287693ms NOTE E  OCTAVE 5
NOTE ON CHANNEL 5 DURATION: 12.287693ms NOTE E  OCTAVE 6
NOTE OFF CHANNEL 5 DURATION: 12.375714ms NOTE E  OCTAVE 6
NOTE OFF CHANNEL 5 DURATION: 12.375714ms NOTE E  OCTAVE 5
NOTE ON CHANNEL 5 DURATION: 12.458454ms NOTE E  OCTAVE 6
NOTE ON CHANNEL 5 DURATION: 12.458454ms NOTE E  OCTAVE 5
NOTE OFF CHANNEL 5 DURATION: 12.537672ms NOTE E  OCTAVE 5
NOTE OFF CHANNEL 5 DURATION: 12.537672ms NOTE E  OCTAVE 6
NOTE ON CHANNEL 5 DURATION: 12.544714ms NOTE G# OCTAVE 6
NOTE ON CHANNEL 5 DURATION: 12.544714ms NOTE G# OCTAVE 5
NOTE OFF CHANNEL 5 DURATION: 12.615131ms NOTE G# OCTAVE 5
NOTE OFF CHANNEL 5 DURATION: 12.615131ms NOTE G# OCTAVE 6
NOTE ON CHANNEL 5 DURATION: 12.627454ms NOTE G# OCTAVE 5
NOTE ON CHANNEL 5 DURATION: 12.627454ms NOTE G# OCTAVE 6
NOTE OFF CHANNEL 5 DURATION: 12.69611ms NOTE G# OCTAVE 6
NOTE OFF CHANNEL 5 DURATION: 12.69611ms NOTE G# OCTAVE 5
NOTE ON CHANNEL 5 DURATION: 12.713714ms NOTE A  OCTAVE 6
NOTE ON CHANNEL 5 DURATION: 12.713714ms NOTE A  OCTAVE 5
NOTE OFF CHANNEL 5 DURATION: 12.78237ms NOTE A  OCTAVE 5
NOTE OFF CHANNEL 5 DURATION: 12.78237ms NOTE A  OCTAVE 6
NOTE ON CHANNEL 5 DURATION: 12.796453ms NOTE B  OCTAVE 6
NOTE ON CHANNEL 5 DURATION: 12.796453ms NOTE B  OCTAVE 5
NOTE OFF CHANNEL 5 DURATION: 12.870391ms NOTE B  OCTAVE 5
NOTE OFF CHANNEL 5 DURATION: 12.870391ms NOTE B  OCTAVE 6
NOTE ON CHANNEL 5 DURATION: 12.882714ms NOTE A  OCTAVE 5
NOTE ON CHANNEL 5 DURATION: 12.884474ms NOTE A  OCTAVE 6
NOTE OFF CHANNEL 5 DURATION: 12.942568ms NOTE A  OCTAVE 6
NOTE OFF CHANNEL 5 DURATION: 12.942568ms NOTE A  OCTAVE 5
NOTE ON CHANNEL 5 DURATION: 12.967214ms NOTE A  OCTAVE 6
NOTE ON CHANNEL 5 DURATION: 12.967214ms NOTE A  OCTAVE 5
NOTE OFF CHANNEL 5 DURATION: 13.032349ms NOTE A  OCTAVE 5
NOTE OFF CHANNEL 5 DURATION: 13.032349ms NOTE A  OCTAVE 6
NOTE ON CHANNEL 5 DURATION: 13.053474ms NOTE A  OCTAVE 6
NOTE ON CHANNEL 5 DURATION: 13.053474ms NOTE A  OCTAVE 5
NOTE OFF CHANNEL 5 DURATION: 13.102765ms NOTE A  OCTAVE 5
NOTE OFF CHANNEL 5 DURATION: 13.102765ms NOTE A  OCTAVE 6
NOTE ON CHANNEL 5 DURATION: 13.136213ms NOTE E  OCTAVE 5
NOTE ON CHANNEL 5 DURATION: 13.136213ms NOTE E  OCTAVE 6
NOTE OFF CHANNEL 5 DURATION: 13.194307ms NOTE E  OCTAVE 6
NOTE OFF CHANNEL 5 DURATION: 13.194307ms NOTE E  OCTAVE 5
NOTE ON CHANNEL 5 DURATION: 13.306974ms NOTE D  OCTAVE 6
NOTE ON CHANNEL 5 DURATION: 13.306974ms NOTE D  OCTAVE 5
NOTE OFF CHANNEL 5 DURATION: 13.352744ms NOTE D  OCTAVE 5
NOTE OFF CHANNEL 5 DURATION: 13.352744ms NOTE D  OCTAVE 6
NOTE ON CHANNEL 5 DURATION: 13.475973ms NOTE F# OCTAVE 6
NOTE ON CHANNEL 5 DURATION: 13.475973ms NOTE F# OCTAVE 5
NOTE OFF CHANNEL 5 DURATION: 13.534067ms NOTE F# OCTAVE 5
NOTE OFF CHANNEL 5 DURATION: 13.534067ms NOTE F# OCTAVE 6
NOTE ON CHANNEL 5 DURATION: 13.644973ms NOTE F# OCTAVE 5
NOTE ON CHANNEL 5 DURATION: 13.644973ms NOTE F# OCTAVE 6
NOTE OFF CHANNEL 5 DURATION: 13.713629ms NOTE F# OCTAVE 6
NOTE OFF CHANNEL 5 DURATION: 13.713629ms NOTE F# OCTAVE 5
NOTE ON CHANNEL 5 DURATION: 13.813973ms NOTE F# OCTAVE 6
NOTE ON CHANNEL 5 DURATION: 13.813973ms NOTE F# OCTAVE 5
NOTE OFF CHANNEL 5 DURATION: 13.88791ms NOTE F# OCTAVE 5
NOTE OFF CHANNEL 5 DURATION: 13.88791ms NOTE F# OCTAVE 6
NOTE ON CHANNEL 5 DURATION: 13.901994ms NOTE E  OCTAVE 6
NOTE ON CHANNEL 5 DURATION: 13.901994ms NOTE E  OCTAVE 5
NOTE OFF CHANNEL 5 DURATION: 13.965369ms NOTE E  OCTAVE 5
NOTE OFF CHANNEL 5 DURATION: 13.965369ms NOTE E  OCTAVE 6
NOTE ON CHANNEL 5 DURATION: 13.984733ms NOTE E  OCTAVE 5
NOTE ON CHANNEL 5 DURATION: 13.984733ms NOTE E  OCTAVE 6
NOTE OFF CHANNEL 5 DURATION: 14.065712ms NOTE E  OCTAVE 6
NOTE OFF CHANNEL 5 DURATION: 14.065712ms NOTE E  OCTAVE 5
NOTE ON CHANNEL 5 DURATION: 14.069233ms NOTE F# OCTAVE 6
NOTE ON CHANNEL 5 DURATION: 14.069233ms NOTE F# OCTAVE 5
NOTE OFF CHANNEL 5 DURATION: 14.13965ms NOTE F# OCTAVE 5
NOTE OFF CHANNEL 5 DURATION: 14.13965ms NOTE F# OCTAVE 6
NOTE ON CHANNEL 5 DURATION: 14.153733ms NOTE E  OCTAVE 6
NOTE ON CHANNEL 5 DURATION: 14.153733ms NOTE E  OCTAVE 5
NOTE OFF CHANNEL 5 DURATION: 14.229431ms NOTE E  OCTAVE 5
NOTE OFF CHANNEL 5 DURATION: 14.229431ms NOTE E  OCTAVE 6
NOTE ON CHANNEL 5 DURATION: 14.241754ms NOTE F# OCTAVE 5
NOTE ON CHANNEL 5 DURATION: 14.241754ms NOTE F# OCTAVE 6
NOTE OFF CHANNEL 5 DURATION: 14.299847ms NOTE F# OCTAVE 6
NOTE OFF CHANNEL 5 DURATION: 14.299847ms NOTE F# OCTAVE 5
NOTE ON CHANNEL 5 DURATION: 14.322733ms NOTE F# OCTAVE 6
NOTE ON CHANNEL 5 DURATION: 14.322733ms NOTE F# OCTAVE 5
NOTE OFF CHANNEL 5 DURATION: 14.405472ms NOTE F# OCTAVE 5
NOTE OFF CHANNEL 5 DURATION: 14.405472ms NOTE F# OCTAVE 6
NOTE ON CHANNEL 5 DURATION: 14.408993ms NOTE D  OCTAVE 6
NOTE ON CHANNEL 5 DURATION: 14.408993ms NOTE D  OCTAVE 5
NOTE OFF CHANNEL 5 DURATION: 14.491733ms NOTE D  OCTAVE 5
NOTE OFF CHANNEL 5 DURATION: 14.491733ms NOTE D  OCTAVE 6
NOTE ON CHANNEL 5 DURATION: 14.493493ms NOTE B  OCTAVE 4
NOTE ON CHANNEL 5 DURATION: 14.493493ms NOTE B  OCTAVE 5
NOTE OFF CHANNEL 5 DURATION: 14.56567ms NOTE B  OCTAVE 5
NOTE OFF CHANNEL 5 DURATION: 14.56567ms NOTE B  OCTAVE 4
NOTE ON CHANNEL 5 DURATION: 14.662493ms NOTE B  OCTAVE 5
NOTE ON CHANNEL 5 DURATION: 14.662493ms NOTE B  OCTAVE 4
NOTE OFF CHANNEL 5 DURATION: 14.748753ms NOTE B  OCTAVE 4
NOTE OFF CHANNEL 5 DURATION: 14.748753ms NOTE B  OCTAVE 5
NOTE ON CHANNEL 5 DURATION: 14.831493ms NOTE E  OCTAVE 6
NOTE ON CHANNEL 5 DURATION: 14.831493ms NOTE E  OCTAVE 5
NOTE OFF CHANNEL 5 DURATION: 14.90543ms NOTE E  OCTAVE 5
NOTE OFF CHANNEL 5 DURATION: 14.90543ms NOTE E  OCTAVE 6
NOTE ON CHANNEL 5 DURATION: 15.000492ms NOTE E  OCTAVE 5
NOTE ON CHANNEL 5 DURATION: 15.000492ms NOTE E  OCTAVE 6
NOTE OFF CHANNEL 5 DURATION: 15.083232ms NOTE E  OCTAVE 6
NOTE OFF CHANNEL 5 DURATION: 15.083232ms NOTE E  OCTAVE 5
NOTE ON CHANNEL 5 DURATION: 15.169492ms NOTE E  OCTAVE 6
NOTE ON CHANNEL 5 DURATION: 15.169492ms NOTE E  OCTAVE 5
NOTE OFF CHANNEL 5 DURATION: 15.252232ms NOTE E  OCTAVE 5
NOTE OFF CHANNEL 5 DURATION: 15.252232ms NOTE E  OCTAVE 6
NOTE ON CHANNEL 5 DURATION: 15.257513ms NOTE G# OCTAVE 6
NOTE ON CHANNEL 5 DURATION: 15.257513ms NOTE G# OCTAVE 5
NOTE OFF CHANNEL 5 DURATION: 15.324409ms NOTE G# OCTAVE 5
NOTE OFF CHANNEL 5 DURATION: 15.324409ms NOTE G# OCTAVE 6
NOTE ON CHANNEL 5 DURATION: 15.340252ms NOTE G# OCTAVE 5
NOTE ON CHANNEL 5 DURATION: 15.340252ms NOTE G# OCTAVE 6
NOTE OFF CHANNEL 5 DURATION: 15.412429ms NOTE G# OCTAVE 6
NOTE OFF CHANNEL 5 DURATION: 15.412429ms NOTE G# OCTAVE 5
NOTE ON CHANNEL 5 DURATION: 15.426513ms NOTE A  OCTAVE 6
NOTE ON CHANNEL 5 DURATION: 15.426513ms NOTE A  OCTAVE 5
NOTE OFF CHANNEL 5 DURATION: 15.50045ms NOTE A  OCTAVE 5
NOTE OFF CHANNEL 5 DURATION: 15.50045ms NOTE A  OCTAVE 6
NOTE ON CHANNEL 5 DURATION: 15.509252ms NOTE B  OCTAVE 6
NOTE ON CHANNEL 5 DURATION: 15.509252ms NOTE B  OCTAVE 5
NOTE OFF CHANNEL 5 DURATION: 15.591992ms NOTE B  OCTAVE 5
NOTE OFF CHANNEL 5 DURATION: 15.591992ms NOTE B  OCTAVE 6
NOTE ON CHANNEL 5 DURATION: 15.597273ms NOTE A  OCTAVE 5
NOTE ON CHANNEL 5 DURATION: 15.597273ms NOTE A  OCTAVE 6
NOTE OFF CHANNEL 5 DURATION: 15.660648ms NOTE A  OCTAVE 6
NOTE OFF CHANNEL 5 DURATION: 15.660648ms NOTE A  OCTAVE 5
NOTE ON CHANNEL 5 DURATION: 15.678252ms NOTE A  OCTAVE 6
NOTE ON CHANNEL 5 DURATION: 15.678252ms NOTE A  OCTAVE 5
NOTE OFF CHANNEL 5 DURATION: 15.752189ms NOTE A  OCTAVE 5
NOTE OFF CHANNEL 5 DURATION: 15.752189ms NOTE A  OCTAVE 6
NOTE ON CHANNEL 5 DURATION: 15.764512ms NOTE A  OCTAVE 6
NOTE ON CHANNEL 5 DURATION: 15.766273ms NOTE A  OCTAVE 5
NOTE OFF CHANNEL 5 DURATION: 15.831408ms NOTE A  OCTAVE 5
NOTE OFF CHANNEL 5 DURATION: 15.831408ms NOTE A  OCTAVE 6
NOTE ON CHANNEL 5 DURATION: 15.849012ms NOTE F# OCTAVE 5
NOTE ON CHANNEL 5 DURATION: 15.849012ms NOTE F# OCTAVE 6
NOTE OFF CHANNEL 5 DURATION: 15.921189ms NOTE F# OCTAVE 6
NOTE OFF CHANNEL 5 DURATION: 15.921189ms NOTE F# OCTAVE 5
NOTE ON CHANNEL 5 DURATION: 16.018012ms NOTE D  OCTAVE 6
NOTE ON CHANNEL 5 DURATION: 16.019772ms NOTE D  OCTAVE 5
NOTE OFF CHANNEL 5 DURATION: 16.083147ms NOTE D  OCTAVE 5
NOTE OFF CHANNEL 5 DURATION: 16.083147ms NOTE D  OCTAVE 6
NOTE ON CHANNEL 5 DURATION: 16.187012ms NOTE F# OCTAVE 6
NOTE ON CHANNEL 5 DURATION: 16.187012ms NOTE F# OCTAVE 5
NOTE OFF CHANNEL 5 DURATION: 16.260949ms NOTE F# OCTAVE 5
NOTE OFF CHANNEL 5 DURATION: 16.260949ms NOTE F# OCTAVE 6
NOTE ON CHANNEL 5 DURATION: 16.356012ms NOTE F# OCTAVE 5
NOTE ON CHANNEL 5 DURATION: 16.357772ms NOTE F# OCTAVE 6
NOTE OFF CHANNEL 5 DURATION: 16.429949ms NOTE F# OCTAVE 6
NOTE OFF CHANNEL 5 DURATION: 16.429949ms NOTE F# OCTAVE 5
NOTE ON CHANNEL 5 DURATION: 16.526772ms NOTE F# OCTAVE 6
NOTE ON CHANNEL 5 DURATION: 16.526772ms NOTE F# OCTAVE 5
NOTE OFF CHANNEL 5 DURATION: 16.598949ms NOTE F# OCTAVE 5
NOTE OFF CHANNEL 5 DURATION: 16.598949ms NOTE F# OCTAVE 6
NOTE ON CHANNEL 5 DURATION: 16.613032ms NOTE E  OCTAVE 6
NOTE ON CHANNEL 5 DURATION: 16.613032ms NOTE E  OCTAVE 5
NOTE OFF CHANNEL 5 DURATION: 16.68873ms NOTE E  OCTAVE 5
NOTE OFF CHANNEL 5 DURATION: 16.68873ms NOTE E  OCTAVE 6
NOTE ON CHANNEL 5 DURATION: 16.695772ms NOTE E  OCTAVE 5
NOTE ON CHANNEL 5 DURATION: 16.697532ms NOTE E  OCTAVE 6
NOTE OFF CHANNEL 5 DURATION: 16.77147ms NOTE E  OCTAVE 6
NOTE OFF CHANNEL 5 DURATION: 16.77147ms NOTE E  OCTAVE 5
NOTE ON CHANNEL 5 DURATION: 16.782032ms NOTE E  OCTAVE 5
NOTE ON CHANNEL 5 DURATION: 16.783792ms NOTE E  OCTAVE 6
NOTE OFF CHANNEL 5 DURATION: 16.850688ms NOTE E  OCTAVE 6
NOTE OFF CHANNEL 5 DURATION: 16.850688ms NOTE E  OCTAVE 5
NOTE ON CHANNEL 5 DURATION: 63.059811ms NOTE F# OCTAVE 5
NOTE ON CHANNEL 5 DURATION: 63.059811ms NOTE F# OCTAVE 6
NOTE OFF CHANNEL 5 DURATION: 63.121426ms NOTE F# OCTAVE 6
NOTE OFF CHANNEL 5 DURATION: 63.121426ms NOTE F# OCTAVE 5
NOTE ON CHANNEL 5 DURATION: 63.146072ms NOTE F# OCTAVE 6
NOTE ON CHANNEL 5 DURATION: 63.146072ms NOTE F# OCTAVE 5
NOTE OFF CHANNEL 5 DURATION: 63.228811ms NOTE F# OCTAVE 5
NOTE OFF CHANNEL 5 DURATION: 63.228811ms NOTE F# OCTAVE 6
NOTE ON CHANNEL 5 DURATION: 63.230572ms NOTE D  OCTAVE 6
NOTE ON CHANNEL 5 DURATION: 63.230572ms NOTE D  OCTAVE 5
NOTE OFF CHANNEL 5 DURATION: 63.313311ms NOTE D  OCTAVE 5
NOTE OFF CHANNEL 5 DURATION: 63.313311ms NOTE D  OCTAVE 6
NOTE ON CHANNEL 5 DURATION: 63.315071ms NOTE B  OCTAVE 4
NOTE ON CHANNEL 5 DURATION: 63.315071ms NOTE B  OCTAVE 5
NOTE OFF CHANNEL 5 DURATION: 63.389009ms NOTE B  OCTAVE 5
NOTE OFF CHANNEL 5 DURATION: 63.389009ms NOTE B  OCTAVE 4
NOTE ON CHANNEL 5 DURATION: 63.485832ms NOTE B  OCTAVE 5
NOTE ON CHANNEL 5 DURATION: 63.485832ms NOTE B  OCTAVE 4
NOTE OFF CHANNEL 5 DURATION: 63.568571ms NOTE B  OCTAVE 4
NOTE OFF CHANNEL 5 DURATION: 63.568571ms NOTE B  OCTAVE 5
NOTE ON CHANNEL 5 DURATION: 63.654831ms NOTE E  OCTAVE 6
NOTE ON CHANNEL 5 DURATION: 63.654831ms NOTE E  OCTAVE 5
NOTE OFF CHANNEL 5 DURATION: 63.728769ms NOTE E  OCTAVE 5
NOTE OFF CHANNEL 5 DURATION: 63.728769ms NOTE E  OCTAVE 6
NOTE ON CHANNEL 5 DURATION: 63.823831ms NOTE E  OCTAVE 5
NOTE ON CHANNEL 5 DURATION: 63.823831ms NOTE E  OCTAVE 6
NOTE OFF CHANNEL 5 DURATION: 63.906571ms NOTE E  OCTAVE 6
NOTE OFF CHANNEL 5 DURATION: 63.906571ms NOTE E  OCTAVE 5
NOTE ON CHANNEL 5 DURATION: 63.992831ms NOTE E  OCTAVE 6
NOTE ON CHANNEL 5 DURATION: 63.992831ms NOTE E  OCTAVE 5
NOTE OFF CHANNEL 5 DURATION: 64.077331ms NOTE E  OCTAVE 5
NOTE OFF CHANNEL 5 DURATION: 64.077331ms NOTE E  OCTAVE 6
NOTE ON CHANNEL 5 DURATION: 64.077331ms NOTE G# OCTAVE 6
NOTE ON CHANNEL 5 DURATION: 64.079091ms NOTE G# OCTAVE 5
NOTE OFF CHANNEL 5 DURATION: 64.145987ms NOTE G# OCTAVE 5
NOTE OFF CHANNEL 5 DURATION: 64.145987ms NOTE G# OCTAVE 6
NOTE ON CHANNEL 5 DURATION: 64.163591ms NOTE G# OCTAVE 5
NOTE ON CHANNEL 5 DURATION: 64.163591ms NOTE G# OCTAVE 6
NOTE OFF CHANNEL 5 DURATION: 64.237529ms NOTE G# OCTAVE 6
NOTE OFF CHANNEL 5 DURATION: 64.237529ms NOTE G# OCTAVE 5
NOTE ON CHANNEL 5 DURATION: 64.246331ms NOTE A  OCTAVE 6
NOTE ON CHANNEL 5 DURATION: 64.246331ms NOTE A  OCTAVE 5
NOTE OFF CHANNEL 5 DURATION: 64.322029ms NOTE A  OCTAVE 5
NOTE OFF CHANNEL 5 DURATION: 64.322029ms NOTE A  OCTAVE 6
NOTE ON CHANNEL 5 DURATION: 64.332591ms NOTE B  OCTAVE 6
NOTE ON CHANNEL 5 DURATION: 64.332591ms NOTE B  OCTAVE 5
NOTE OFF CHANNEL 5 DURATION: 64.415331ms NOTE B  OCTAVE 6
NOTE OFF CHANNEL 5 DURATION: 64.417091ms NOTE B  OCTAVE 5
NOTE ON CHANNEL 5 DURATION: 64.417091ms NOTE F# OCTAVE 5
NOTE ON CHANNEL 5 DURATION: 64.417091ms NOTE F# OCTAVE 6
NOTE OFF CHANNEL 5 DURATION: 64.478706ms NOTE F# OCTAVE 6
NOTE OFF CHANNEL 5 DURATION: 64.478706ms NOTE F# OCTAVE 5
NOTE ON CHANNEL 5 DURATION: 64.501591ms NOTE F# OCTAVE 6
NOTE ON CHANNEL 5 DURATION: 64.501591ms NOTE F# OCTAVE 5
NOTE OFF CHANNEL 5 DURATION: 64.586091ms NOTE F# OCTAVE 5
NOTE OFF CHANNEL 5 DURATION: 64.586091ms NOTE F# OCTAVE 6
NOTE ON CHANNEL 5 DURATION: 64.586091ms NOTE D  OCTAVE 6
NOTE ON CHANNEL 5 DURATION: 64.586091ms NOTE D  OCTAVE 5
NOTE OFF CHANNEL 5 DURATION: 64.66883ms NOTE D  OCTAVE 5
NOTE OFF CHANNEL 5 DURATION: 64.66883ms NOTE D  OCTAVE 6
NOTE ON CHANNEL 5 DURATION: 64.672351ms NOTE B  OCTAVE 4
NOTE ON CHANNEL 5 DURATION: 64.672351ms NOTE B  OCTAVE 5
NOTE OFF CHANNEL 5 DURATION: 64.746289ms NOTE B  OCTAVE 5
NOTE OFF CHANNEL 5 DURATION: 64.746289ms NOTE B  OCTAVE 4
NOTE ON CHANNEL 5 DURATION: 64.841351ms NOTE B  OCTAVE 5
NOTE ON CHANNEL 5 DURATION: 64.841351ms NOTE B  OCTAVE 4
NOTE OFF CHANNEL 5 DURATION: 64.92409ms NOTE B  OCTAVE 4
NOTE OFF CHANNEL 5 DURATION: 64.92409ms NOTE B  OCTAVE 5
NOTE ON CHANNEL 5 DURATION: 65.010351ms NOTE E  OCTAVE 6
NOTE ON CHANNEL 5 DURATION: 65.010351ms NOTE E  OCTAVE 5
NOTE OFF CHANNEL 5 DURATION: 65.084288ms NOTE E  OCTAVE 5
NOTE OFF CHANNEL 5 DURATION: 65.084288ms NOTE E  OCTAVE 6
NOTE ON CHANNEL 5 DURATION: 65.179351ms NOTE E  OCTAVE 5
NOTE ON CHANNEL 5 DURATION: 65.181111ms NOTE E  OCTAVE 6
NOTE OFF CHANNEL 5 DURATION: 65.26385ms NOTE E  OCTAVE 6
NOTE OFF CHANNEL 5 DURATION: 65.26385ms NOTE E  OCTAVE 5
NOTE ON CHANNEL 5 DURATION: 65.350111ms NOTE E  OCTAVE 6
NOTE ON CHANNEL 5 DURATION: 65.350111ms NOTE E  OCTAVE 5
NOTE OFF CHANNEL 5 DURATION: 65.43285ms NOTE E  OCTAVE 5
NOTE OFF CHANNEL 5 DURATION: 65.43285ms NOTE E  OCTAVE 6
NOTE ON CHANNEL 5 DURATION: 65.434611ms NOTE G# OCTAVE 6
NOTE ON CHANNEL 5 DURATION: 65.434611ms NOTE G# OCTAVE 5
NOTE OFF CHANNEL 5 DURATION: 65.501506ms NOTE G# OCTAVE 5
NOTE OFF CHANNEL 5 DURATION: 65.501506ms NOTE G# OCTAVE 6
NOTE ON CHANNEL 5 DURATION: 65.519111ms NOTE G# OCTAVE 5
NOTE ON CHANNEL 5 DURATION: 65.520871ms NOTE G# OCTAVE 6
NOTE OFF CHANNEL 5 DURATION: 65.593048ms NOTE G# OCTAVE 6
NOTE OFF CHANNEL 5 DURATION: 65.593048ms NOTE G# OCTAVE 5
NOTE ON CHANNEL 5 DURATION: 65.60361ms NOTE A  OCTAVE 6
NOTE ON CHANNEL 5 DURATION: 65.60361ms NOTE A  OCTAVE 5
NOTE OFF CHANNEL 5 DURATION: 65.679308ms NOTE A  OCTAVE 5
NOTE OFF CHANNEL 5 DURATION: 65.679308ms NOTE A  OCTAVE 6
NOTE ON CHANNEL 5 DURATION: 65.68811ms NOTE B  OCTAVE 6
NOTE ON CHANNEL 5 DURATION: 65.68811ms NOTE B  OCTAVE 5
NOTE OFF CHANNEL 5 DURATION: 65.765569ms NOTE B  OCTAVE 5
NOTE OFF CHANNEL 5 DURATION: 65.765569ms NOTE B  OCTAVE 6
NOTE ON CHANNEL 5 DURATION: 65.77261ms NOTE F# OCTAVE 5
NOTE ON CHANNEL 5 DURATION: 65.774371ms NOTE F# OCTAVE 6
NOTE OFF CHANNEL 5 DURATION: 65.834225ms NOTE F# OCTAVE 6
NOTE OFF CHANNEL 5 DURATION: 65.834225ms NOTE F# OCTAVE 5
NOTE ON CHANNEL 5 DURATION: 65.858871ms NOTE F# OCTAVE 6
NOTE ON CHANNEL 5 DURATION: 65.858871ms NOTE F# OCTAVE 5
NOTE OFF CHANNEL 5 DURATION: 65.94337ms NOTE F# OCTAVE 5
NOTE OFF CHANNEL 5 DURATION: 65.94337ms NOTE F# OCTAVE 6
NOTE ON CHANNEL 5 DURATION: 65.94337ms NOTE D  OCTAVE 6
NOTE ON CHANNEL 5 DURATION: 65.94337ms NOTE D  OCTAVE 5
NOTE OFF CHANNEL 5 DURATION: 66.02435ms NOTE D  OCTAVE 5
NOTE OFF CHANNEL 5 DURATION: 66.02435ms NOTE D  OCTAVE 6
NOTE ON CHANNEL 5 DURATION: 66.02787ms NOTE B  OCTAVE 4
NOTE ON CHANNEL 5 DURATION: 66.02787ms NOTE B  OCTAVE 5
NOTE OFF CHANNEL 5 DURATION: 66.101808ms NOTE B  OCTAVE 5
NOTE OFF CHANNEL 5 DURATION: 66.101808ms NOTE B  OCTAVE 4
NOTE ON CHANNEL 5 DURATION: 66.198631ms NOTE B  OCTAVE 5
NOTE ON CHANNEL 5 DURATION: 66.198631ms NOTE B  OCTAVE 4
NOTE OFF CHANNEL 5 DURATION: 66.283131ms NOTE B  OCTAVE 4
NOTE OFF CHANNEL 5 DURATION: 66.283131ms NOTE B  OCTAVE 5
NOTE ON CHANNEL 5 DURATION: 66.36763ms NOTE E  OCTAVE 6
NOTE ON CHANNEL 5 DURATION: 66.36763ms NOTE E  OCTAVE 5
NOTE OFF CHANNEL 5 DURATION: 66.439807ms NOTE E  OCTAVE 5
NOTE OFF CHANNEL 5 DURATION: 66.439807ms NOTE E  OCTAVE 6
NOTE ON CHANNEL 5 DURATION: 66.53663ms NOTE E  OCTAVE 5
NOTE ON CHANNEL 5 DURATION: 66.53663ms NOTE E  OCTAVE 6
NOTE OFF CHANNEL 5 DURATION: 66.62113ms NOTE E  OCTAVE 6
NOTE OFF CHANNEL 5 DURATION: 66.62113ms NOTE E  OCTAVE 5
NOTE ON CHANNEL 5 DURATION: 66.70563ms NOTE E  OCTAVE 6
NOTE ON CHANNEL 5 DURATION: 66.70563ms NOTE E  OCTAVE 5
NOTE OFF CHANNEL 5 DURATION: 66.79189ms NOTE E  OCTAVE 5
NOTE OFF CHANNEL 5 DURATION: 66.79189ms NOTE E  OCTAVE 6
NOTE ON CHANNEL 5 DURATION: 66.79189ms NOTE G# OCTAVE 6
NOTE ON CHANNEL 5 DURATION: 66.79189ms NOTE G# OCTAVE 5
NOTE OFF CHANNEL 5 DURATION: 66.858786ms NOTE G# OCTAVE 5
NOTE OFF CHANNEL 5 DURATION: 66.858786ms NOTE G# OCTAVE 6
NOTE ON CHANNEL 5 DURATION: 66.87639ms NOTE G# OCTAVE 5
NOTE ON CHANNEL 5 DURATION: 66.87639ms NOTE G# OCTAVE 6
NOTE OFF CHANNEL 5 DURATION: 66.948567ms NOTE G# OCTAVE 6
NOTE OFF CHANNEL 5 DURATION: 66.948567ms NOTE G# OCTAVE 5
NOTE ON CHANNEL 5 DURATION: 66.95913ms NOTE A  OCTAVE 6
NOTE ON CHANNEL 5 DURATION: 66.95913ms NOTE A  OCTAVE 5
NOTE OFF CHANNEL 5 DURATION: 67.034828ms NOTE A  OCTAVE 5
NOTE OFF CHANNEL 5 DURATION: 67.034828ms NOTE A  OCTAVE 6
NOTE ON CHANNEL 5 DURATION: 67.04539ms NOTE B  OCTAVE 6
NOTE ON CHANNEL 5 DURATION: 67.04539ms NOTE B  OCTAVE 5
NOTE OFF CHANNEL 5 DURATION: 67.12989ms NOTE B  OCTAVE 5
NOTE OFF CHANNEL 5 DURATION: 67.12989ms NOTE B  OCTAVE 6
NOTE ON CHANNEL 5 DURATION: 67.12989ms NOTE A  OCTAVE 5
NOTE ON CHANNEL 5 DURATION: 67.12989ms NOTE A  OCTAVE 6
NOTE OFF CHANNEL 5 DURATION: 67.195025ms NOTE A  OCTAVE 6
NOTE OFF CHANNEL 5 DURATION: 67.195025ms NOTE A  OCTAVE 5
NOTE ON CHANNEL 5 DURATION: 67.21439ms NOTE A  OCTAVE 6
NOTE ON CHANNEL 5 DURATION: 67.21439ms NOTE A  OCTAVE 5
NOTE OFF CHANNEL 5 DURATION: 67.286567ms NOTE A  OCTAVE 5
NOTE OFF CHANNEL 5 DURATION: 67.286567ms NOTE A  OCTAVE 6
NOTE ON CHANNEL 5 DURATION: 67.29889ms NOTE A  OCTAVE 6
NOTE ON CHANNEL 5 DURATION: 67.29889ms NOTE A  OCTAVE 5
NOTE OFF CHANNEL 5 DURATION: 67.364025ms NOTE A  OCTAVE 5
NOTE OFF CHANNEL 5 DURATION: 67.364025ms NOTE A  OCTAVE 6
NOTE ON CHANNEL 5 DURATION: 67.38515ms NOTE E  OCTAVE 5
NOTE ON CHANNEL 5 DURATION: 67.38515ms NOTE E  OCTAVE 6
NOTE OFF CHANNEL 5 DURATION: 67.455567ms NOTE E  OCTAVE 6
NOTE OFF CHANNEL 5 DURATION: 67.455567ms NOTE E  OCTAVE 5
NOTE ON CHANNEL 5 DURATION: 67.55415ms NOTE D  OCTAVE 6
NOTE ON CHANNEL 5 DURATION: 67.55591ms NOTE D  OCTAVE 5
NOTE OFF CHANNEL 5 DURATION: 67.619285ms NOTE D  OCTAVE 5
NOTE OFF CHANNEL 5 DURATION: 67.619285ms NOTE D  OCTAVE 6
NOTE ON CHANNEL 5 DURATION: 67.72315ms NOTE F# OCTAVE 6
NOTE ON CHANNEL 5 DURATION: 67.72315ms NOTE F# OCTAVE 5
NOTE OFF CHANNEL 5 DURATION: 67.797087ms NOTE F# OCTAVE 5
NOTE OFF CHANNEL 5 DURATION: 67.797087ms NOTE F# OCTAVE 6
NOTE ON CHANNEL 5 DURATION: 67.892149ms NOTE F# OCTAVE 5
NOTE ON CHANNEL 5 DURATION: 67.892149ms NOTE F# OCTAVE 6
NOTE OFF CHANNEL 5 DURATION: 67.966087ms NOTE F# OCTAVE 6
NOTE OFF CHANNEL 5 DURATION: 67.966087ms NOTE F# OCTAVE 5
NOTE ON CHANNEL 5 DURATION: 68.06291ms NOTE F# OCTAVE 6
NOTE ON CHANNEL 5 DURATION: 68.06291ms NOTE F# OCTAVE 5
NOTE OFF CHANNEL 5 DURATION: 68.133326ms NOTE F# OCTAVE 5
NOTE OFF CHANNEL 5 DURATION: 68.133326ms NOTE F# OCTAVE 6
NOTE ON CHANNEL 5 DURATION: 68.14741ms NOTE E  OCTAVE 6
NOTE ON CHANNEL 5 DURATION: 68.14741ms NOTE E  OCTAVE 5
NOTE OFF CHANNEL 5 DURATION: 68.221347ms NOTE E  OCTAVE 5
NOTE OFF CHANNEL 5 DURATION: 68.221347ms NOTE E  OCTAVE 6
NOTE ON CHANNEL 5 DURATION: 68.231909ms NOTE E  OCTAVE 5
NOTE ON CHANNEL 5 DURATION: 68.23367ms NOTE E  OCTAVE 6
NOTE OFF CHANNEL 5 DURATION: 68.307607ms NOTE E  OCTAVE 6
NOTE OFF CHANNEL 5 DURATION: 68.307607ms NOTE E  OCTAVE 5
NOTE ON CHANNEL 5 DURATION: 68.316409ms NOTE F# OCTAVE 6
NOTE ON CHANNEL 5 DURATION: 68.316409ms NOTE F# OCTAVE 5
NOTE OFF CHANNEL 5 DURATION: 68.383305ms NOTE F# OCTAVE 5
NOTE OFF CHANNEL 5 DURATION: 68.383305ms NOTE F# OCTAVE 6
NOTE ON CHANNEL 5 DURATION: 68.400909ms NOTE E  OCTAVE 6
NOTE ON CHANNEL 5 DURATION: 68.40267ms NOTE E  OCTAVE 5
NOTE OFF CHANNEL 5 DURATION: 68.476607ms NOTE E  OCTAVE 5
NOTE OFF CHANNEL 5 DURATION: 68.476607ms NOTE E  OCTAVE 6
NOTE ON CHANNEL 5 DURATION: 68.485409ms NOTE F# OCTAVE 5
NOTE ON CHANNEL 5 DURATION: 68.485409ms NOTE F# OCTAVE 6
NOTE OFF CHANNEL 5 DURATION: 68.554065ms NOTE F# OCTAVE 6
NOTE OFF CHANNEL 5 DURATION: 68.554065ms NOTE F# OCTAVE 5
NOTE ON CHANNEL 5 DURATION: 68.571669ms NOTE F# OCTAVE 6
NOTE ON CHANNEL 5 DURATION: 68.571669ms NOTE F# OCTAVE 5
NOTE OFF CHANNEL 5 DURATION: 68.643846ms NOTE F# OCTAVE 5
NOTE OFF CHANNEL 5 DURATION: 68.643846ms NOTE F# OCTAVE 6
NOTE ON CHANNEL 5 DURATION: 68.654409ms NOTE D  OCTAVE 6
NOTE ON CHANNEL 5 DURATION: 68.656169ms NOTE D  OCTAVE 5
NOTE OFF CHANNEL 5 DURATION: 68.728346ms NOTE D  OCTAVE 5
NOTE OFF CHANNEL 5 DURATION: 68.728346ms NOTE D  OCTAVE 6
NOTE ON CHANNEL 5 DURATION: 68.740669ms NOTE B  OCTAVE 4
NOTE ON CHANNEL 5 DURATION: 68.740669ms NOTE B  OCTAVE 5
NOTE OFF CHANNEL 5 DURATION: 68.802284ms NOTE B  OCTAVE 5
NOTE OFF CHANNEL 5 DURATION: 68.802284ms NOTE B  OCTAVE 4
NOTE ON CHANNEL 5 DURATION: 68.91143ms NOTE B  OCTAVE 5
NOTE ON CHANNEL 5 DURATION: 68.91143ms NOTE B  OCTAVE 4
NOTE OFF CHANNEL 5 DURATION: 68.985367ms NOTE B  OCTAVE 4
NOTE OFF CHANNEL 5 DURATION: 68.985367ms NOTE B  OCTAVE 5
NOTE ON CHANNEL 5 DURATION: 69.080429ms NOTE E  OCTAVE 6
NOTE ON CHANNEL 5 DURATION: 69.080429ms NOTE E  OCTAVE 5
NOTE OFF CHANNEL 5 DURATION: 69.159648ms NOTE E  OCTAVE 5
NOTE OFF CHANNEL 5 DURATION: 69.159648ms NOTE E  OCTAVE 6
NOTE ON CHANNEL 5 DURATION: 69.249429ms NOTE E  OCTAVE 5
NOTE ON CHANNEL 5 DURATION: 69.249429ms NOTE E  OCTAVE 6
NOTE OFF CHANNEL 5 DURATION: 69.333929ms NOTE E  OCTAVE 6
NOTE OFF CHANNEL 5 DURATION: 69.333929ms NOTE E  OCTAVE 5
NOTE ON CHANNEL 5 DURATION: 69.418429ms NOTE E  OCTAVE 6
NOTE ON CHANNEL 5 DURATION: 69.418429ms NOTE E  OCTAVE 5
NOTE OFF CHANNEL 5 DURATION: 69.499408ms NOTE E  OCTAVE 5
NOTE OFF CHANNEL 5 DURATION: 69.499408ms NOTE E  OCTAVE 6
NOTE ON CHANNEL 5 DURATION: 69.502929ms NOTE G# OCTAVE 6
NOTE ON CHANNEL 5 DURATION: 69.504689ms NOTE G# OCTAVE 5
NOTE OFF CHANNEL 5 DURATION: 69.575106ms NOTE G# OCTAVE 5
NOTE OFF CHANNEL 5 DURATION: 69.575106ms NOTE G# OCTAVE 6
NOTE ON CHANNEL 5 DURATION: 69.589189ms NOTE G# OCTAVE 5
NOTE ON CHANNEL 5 DURATION: 69.589189ms NOTE G# OCTAVE 6
NOTE OFF CHANNEL 5 DURATION: 69.657845ms NOTE G# OCTAVE 6
NOTE OFF CHANNEL 5 DURATION: 69.657845ms NOTE G# OCTAVE 5
NOTE ON CHANNEL 5 DURATION: 69.671929ms NOTE A  OCTAVE 6
NOTE ON CHANNEL 5 DURATION: 69.671929ms NOTE A  OCTAVE 5
NOTE OFF CHANNEL 5 DURATION: 69.740585ms NOTE A  OCTAVE 5
NOTE OFF CHANNEL 5 DURATION: 69.740585ms NOTE A  OCTAVE 6
NOTE ON CHANNEL 5 DURATION: 69.758189ms NOTE B  OCTAVE 6
NOTE ON CHANNEL 5 DURATION: 69.758189ms NOTE B  OCTAVE 5
NOTE OFF CHANNEL 5 DURATION: 69.828606ms NOTE B  OCTAVE 5
NOTE OFF CHANNEL 5 DURATION: 69.828606ms NOTE B  OCTAVE 6
NOTE ON CHANNEL 5 DURATION: 69.840928ms NOTE A  OCTAVE 5
NOTE ON CHANNEL 5 DURATION: 69.840928ms NOTE A  OCTAVE 6
NOTE OFF CHANNEL 5 DURATION: 69.902543ms NOTE A  OCTAVE 6
NOTE OFF CHANNEL 5 DURATION: 69.902543ms NOTE A  OCTAVE 5
NOTE ON CHANNEL 5 DURATION: 69.927189ms NOTE A  OCTAVE 6
NOTE ON CHANNEL 5 DURATION: 69.927189ms NOTE A  OCTAVE 5
NOTE OFF CHANNEL 5 DURATION: 69.994085ms NOTE A  OCTAVE 5
NOTE OFF CHANNEL 5 DURATION: 69.994085ms NOTE A  OCTAVE 6
NOTE ON CHANNEL 5 DURATION: 70.011689ms NOTE A  OCTAVE 6
NOTE ON CHANNEL 5 DURATION: 70.011689ms NOTE A  OCTAVE 5
NOTE OFF CHANNEL 5 DURATION: 70.06098ms NOTE A  OCTAVE 5
NOTE OFF CHANNEL 5 DURATION: 70.06098ms NOTE A  OCTAVE 6
NOTE ON CHANNEL 5 DURATION: 70.096189ms NOTE E  OCTAVE 5
NOTE ON CHANNEL 5 DURATION: 70.097949ms NOTE E  OCTAVE 6
NOTE OFF CHANNEL 5 DURATION: 70.152522ms NOTE E  OCTAVE 6
NOTE OFF CHANNEL 5 DURATION: 70.152522ms NOTE E  OCTAVE 5
NOTE ON CHANNEL 5 DURATION: 70.266949ms NOTE D  OCTAVE 6
NOTE ON CHANNEL 5 DURATION: 70.266949ms NOTE D  OCTAVE 5
NOTE OFF CHANNEL 5 DURATION: 70.31272ms NOTE D  OCTAVE 5
NOTE OFF CHANNEL 5 DURATION: 70.31272ms NOTE D  OCTAVE 6
NOTE ON CHANNEL 5 DURATION: 70.435949ms NOTE F# OCTAVE 6
NOTE ON CHANNEL 5 DURATION: 70.435949ms NOTE F# OCTAVE 5
NOTE OFF CHANNEL 5 DURATION: 70.494042ms NOTE F# OCTAVE 5
NOTE OFF CHANNEL 5 DURATION: 70.494042ms NOTE F# OCTAVE 6
NOTE ON CHANNEL 5 DURATION: 70.604948ms NOTE F# OCTAVE 5
NOTE ON CHANNEL 5 DURATION: 70.604948ms NOTE F# OCTAVE 6
NOTE OFF CHANNEL 5 DURATION: 70.673605ms NOTE F# OCTAVE 6
NOTE OFF CHANNEL 5 DURATION: 70.673605ms NOTE F# OCTAVE 5
NOTE ON CHANNEL 5 DURATION: 70.773948ms NOTE F# OCTAVE 6
NOTE ON CHANNEL 5 DURATION: 70.773948ms NOTE F# OCTAVE 5
NOTE OFF CHANNEL 5 DURATION: 70.846125ms NOTE F# OCTAVE 5
NOTE OFF CHANNEL 5 DURATION: 70.846125ms NOTE F# OCTAVE 6
NOTE ON CHANNEL 5 DURATION: 70.860208ms NOTE E  OCTAVE 6
NOTE ON CHANNEL 5 DURATION: 70.860208ms NOTE E  OCTAVE 5
NOTE OFF CHANNEL 5 DURATION: 70.925344ms NOTE E  OCTAVE 5
NOTE OFF CHANNEL 5 DURATION: 70.925344ms NOTE E  OCTAVE 6
NOTE ON CHANNEL 5 DURATION: 70.944708ms NOTE E  OCTAVE 5
NOTE ON CHANNEL 5 DURATION: 70.944708ms NOTE E  OCTAVE 6
NOTE OFF CHANNEL 5 DURATION: 71.027448ms NOTE E  OCTAVE 6
NOTE OFF CHANNEL 5 DURATION: 71.027448ms NOTE E  OCTAVE 5
NOTE ON CHANNEL 5 DURATION: 71.029208ms NOTE F# OCTAVE 6
NOTE ON CHANNEL 5 DURATION: 71.029208ms NOTE F# OCTAVE 5
NOTE OFF CHANNEL 5 DURATION: 71.101385ms NOTE F# OCTAVE 5
NOTE OFF CHANNEL 5 DURATION: 71.101385ms NOTE F# OCTAVE 6
NOTE ON CHANNEL 5 DURATION: 71.113708ms NOTE E  OCTAVE 6
NOTE ON CHANNEL 5 DURATION: 71.113708ms NOTE E  OCTAVE 5
NOTE OFF CHANNEL 5 DURATION: 71.189406ms NOTE E  OCTAVE 5
NOTE OFF CHANNEL 5 DURATION: 71.189406ms NOTE E  OCTAVE 6
NOTE ON CHANNEL 5 DURATION: 71.198208ms NOTE F# OCTAVE 5
NOTE ON CHANNEL 5 DURATION: 71.198208ms NOTE F# OCTAVE 6
NOTE OFF CHANNEL 5 DURATION: 71.258062ms NOTE F# OCTAVE 5
NOTE OFF CHANNEL 5 DURATION: 71.259823ms NOTE F# OCTAVE 6
NOTE ON CHANNEL 5 DURATION: 71.282708ms NOTE F# OCTAVE 6
NOTE ON CHANNEL 5 DURATION: 71.282708ms NOTE F# OCTAVE 5
NOTE OFF CHANNEL 5 DURATION: 71.367208ms NOTE F# OCTAVE 5
NOTE OFF CHANNEL 5 DURATION: 71.367208ms NOTE F# OCTAVE 6
NOTE ON CHANNEL 5 DURATION: 71.368968ms NOTE D  OCTAVE 6
NOTE ON CHANNEL 5 DURATION: 71.368968ms NOTE D  OCTAVE 5
NOTE OFF CHANNEL 5 DURATION: 71.449947ms NOTE D  OCTAVE 5
NOTE OFF CHANNEL 5 DURATION: 71.449947ms NOTE D  OCTAVE 6
NOTE ON CHANNEL 5 DURATION: 71.453468ms NOTE B  OCTAVE 4
NOTE ON CHANNEL 5 DURATION: 71.453468ms NOTE B  OCTAVE 5
NOTE OFF CHANNEL 5 DURATION: 71.525645ms NOTE B  OCTAVE 5
NOTE OFF CHANNEL 5 DURATION: 71.525645ms NOTE B  OCTAVE 4
NOTE ON CHANNEL 5 DURATION: 71.622468ms NOTE B  OCTAVE 5
NOTE ON CHANNEL 5 DURATION: 71.624228ms NOTE B  OCTAVE 4
NOTE OFF CHANNEL 5 DURATION: 71.708728ms NOTE B  OCTAVE 4
NOTE OFF CHANNEL 5 DURATION: 71.708728ms NOTE B  OCTAVE 5
NOTE ON CHANNEL 5 DURATION: 71.791468ms NOTE E  OCTAVE 6
NOTE ON CHANNEL 5 DURATION: 71.791468ms NOTE E  OCTAVE 5
NOTE OFF CHANNEL 5 DURATION: 71.865405ms NOTE E  OCTAVE 5
NOTE OFF CHANNEL 5 DURATION: 71.865405ms NOTE E  OCTAVE 6
NOTE ON CHANNEL 5 DURATION: 71.962228ms NOTE E  OCTAVE 5
NOTE ON CHANNEL 5 DURATION: 71.962228ms NOTE E  OCTAVE 6
NOTE OFF CHANNEL 5 DURATION: 72.044968ms NOTE E  OCTAVE 6
NOTE OFF CHANNEL 5 DURATION: 72.044968ms NOTE E  OCTAVE 5
NOTE ON CHANNEL 5 DURATION: 72.131228ms NOTE E  OCTAVE 6
NOTE ON CHANNEL 5 DURATION: 72.131228ms NOTE E  OCTAVE 5
NOTE OFF CHANNEL 5 DURATION: 72.215728ms NOTE E  OCTAVE 5
NOTE OFF CHANNEL 5 DURATION: 72.215728ms NOTE E  OCTAVE 6
NOTE ON CHANNEL 5 DURATION: 72.217488ms NOTE G# OCTAVE 6
NOTE ON CHANNEL 5 DURATION: 72.217488ms NOTE G# OCTAVE 5
NOTE OFF CHANNEL 5 DURATION: 72.282624ms NOTE G# OCTAVE 5
NOTE OFF CHANNEL 5 DURATION: 72.282624ms NOTE G# OCTAVE 6
NOTE ON CHANNEL 5 DURATION: 72.300228ms NOTE G# OCTAVE 5
NOTE ON CHANNEL 5 DURATION: 72.301988ms NOTE G# OCTAVE 6
NOTE OFF CHANNEL 5 DURATION: 72.374165ms NOTE G# OCTAVE 6
NOTE OFF CHANNEL 5 DURATION: 72.374165ms NOTE G# OCTAVE 5
NOTE ON CHANNEL 5 DURATION: 72.384728ms NOTE A  OCTAVE 6
NOTE ON CHANNEL 5 DURATION: 72.384728ms NOTE A  OCTAVE 5
NOTE OFF CHANNEL 5 DURATION: 72.460425ms NOTE A  OCTAVE 5
NOTE OFF CHANNEL 5 DURATION: 72.460425ms NOTE A  OCTAVE 6
NOTE ON CHANNEL 5 DURATION: 72.469227ms NOTE B  OCTAVE 6
NOTE ON CHANNEL 5 DURATION: 72.469227ms NOTE B  OCTAVE 5
NOTE OFF CHANNEL 5 DURATION: 72.553727ms NOTE B  OCTAVE 5
NOTE OFF CHANNEL 5 DURATION: 72.553727ms NOTE B  OCTAVE 6
NOTE ON CHANNEL 5 DURATION: 72.555488ms NOTE A  OCTAVE 5
NOTE ON CHANNEL 5 DURATION: 72.555488ms NOTE A  OCTAVE 6
NOTE OFF CHANNEL 5 DURATION: 72.622384ms NOTE A  OCTAVE 6
NOTE OFF CHANNEL 5 DURATION: 72.622384ms NOTE A  OCTAVE 5
NOTE ON CHANNEL 5 DURATION: 72.639988ms NOTE A  OCTAVE 6
NOTE ON CHANNEL 5 DURATION: 72.639988ms NOTE A  OCTAVE 5
NOTE OFF CHANNEL 5 DURATION: 72.710404ms NOTE A  OCTAVE 5
NOTE OFF CHANNEL 5 DURATION: 72.710404ms NOTE A  OCTAVE 6
NOTE ON CHANNEL 5 DURATION: 72.722727ms NOTE A  OCTAVE 6
NOTE ON CHANNEL 5 DURATION: 72.722727ms NOTE A  OCTAVE 5
NOTE OFF CHANNEL 5 DURATION: 72.791383ms NOTE A  OCTAVE 5
NOTE OFF CHANNEL 5 DURATION: 72.791383ms NOTE A  OCTAVE 6
NOTE ON CHANNEL 5 DURATION: 72.808987ms NOTE F# OCTAVE 5
NOTE ON CHANNEL 5 DURATION: 72.808987ms NOTE F# OCTAVE 6
NOTE OFF CHANNEL 5 DURATION: 72.879404ms NOTE F# OCTAVE 5
NOTE OFF CHANNEL 5 DURATION: 72.881164ms NOTE F# OCTAVE 6
NOTE ON CHANNEL 5 DURATION: 72.979748ms NOTE D  OCTAVE 6
NOTE ON CHANNEL 5 DURATION: 72.979748ms NOTE D  OCTAVE 5
NOTE OFF CHANNEL 5 DURATION: 73.044883ms NOTE D  OCTAVE 5
NOTE OFF CHANNEL 5 DURATION: 73.044883ms NOTE D  OCTAVE 6
NOTE ON CHANNEL 5 DURATION: 73.148747ms NOTE F# OCTAVE 6
NOTE ON CHANNEL 5 DURATION: 73.148747ms NOTE F# OCTAVE 5
NOTE OFF CHANNEL 5 DURATION: 73.220924ms NOTE F# OCTAVE 5
NOTE OFF CHANNEL 5 DURATION: 73.220924ms NOTE F# OCTAVE 6
NOTE ON CHANNEL 5 DURATION: 73.317747ms NOTE F# OCTAVE 5
NOTE ON CHANNEL 5 DURATION: 73.317747ms NOTE F# OCTAVE 6
NOTE OFF CHANNEL 5 DURATION: 73.391685ms NOTE F# OCTAVE 6
NOTE OFF CHANNEL 5 DURATION: 73.391685ms NOTE F# OCTAVE 5
NOTE ON CHANNEL 5 DURATION: 73.486747ms NOTE F# OCTAVE 6
NOTE ON CHANNEL 5 DURATION: 73.486747ms NOTE F# OCTAVE 5
NOTE OFF CHANNEL 5 DURATION: 73.557164ms NOTE F# OCTAVE 5
NOTE OFF CHANNEL 5 DURATION: 73.557164ms NOTE F# OCTAVE 6
NOTE ON CHANNEL 5 DURATION: 73.571247ms NOTE E  OCTAVE 6
NOTE ON CHANNEL 5 DURATION: 73.571247ms NOTE E  OCTAVE 5
NOTE OFF CHANNEL 5 DURATION: 73.646945ms NOTE E  OCTAVE 5
NOTE OFF CHANNEL 5 DURATION: 73.646945ms NOTE E  OCTAVE 6
NOTE ON CHANNEL 5 DURATION: 73.657507ms NOTE E  OCTAVE 5
NOTE ON CHANNEL 5 DURATION: 73.657507ms NOTE E  OCTAVE 6
NOTE OFF CHANNEL 5 DURATION: 73.731445ms NOTE E  OCTAVE 6
NOTE OFF CHANNEL 5 DURATION: 73.731445ms NOTE E  OCTAVE 5
NOTE ON CHANNEL 5 DURATION: 73.740247ms NOTE E  OCTAVE 5
NOTE ON CHANNEL 5 DURATION: 73.742007ms NOTE E  OCTAVE 6
NOTE OFF CHANNEL 5 DURATION: 73.808903ms NOTE E  OCTAVE 6
NOTE OFF CHANNEL 5 DURATION: 73.808903ms NOTE E  OCTAVE 5
TEMPOOOOOOOooo 168.99980283356336
NOTE ON CHANNEL 7 DURATION: 25.087668ms NOTE E  OCTAVE 4
NOTE ON CHANNEL 7 DURATION: 25.089429ms NOTE A  OCTAVE 3
NOTE OFF CHANNEL 7 DURATION: 25.758386ms NOTE A  OCTAVE 3
NOTE ON CHANNEL 7 DURATION: 25.765428ms NOTE G# OCTAVE 3
NOTE OFF CHANNEL 7 DURATION: 26.393896ms NOTE G# OCTAVE 3
NOTE OFF CHANNEL 7 DURATION: 26.393896ms NOTE E  OCTAVE 4
NOTE ON CHANNEL 7 DURATION: 26.400937ms NOTE C# OCTAVE 4
NOTE ON CHANNEL 7 DURATION: 26.400937ms NOTE F# OCTAVE 4
NOTE OFF CHANNEL 7 DURATION: 27.370926ms NOTE F# OCTAVE 4
NOTE OFF CHANNEL 7 DURATION: 27.793425ms NOTE C# OCTAVE 4
NOTE ON CHANNEL 7 DURATION: 27.800467ms NOTE E  OCTAVE 4
NOTE ON CHANNEL 7 DURATION: 27.800467ms NOTE A  OCTAVE 3
NOTE OFF CHANNEL 7 DURATION: 28.471185ms NOTE A  OCTAVE 3
NOTE ON CHANNEL 7 DURATION: 28.478227ms NOTE G# OCTAVE 3
NOTE OFF CHANNEL 7 DURATION: 29.104934ms NOTE G# OCTAVE 3
NOTE OFF CHANNEL 7 DURATION: 29.104934ms NOTE E  OCTAVE 4
NOTE ON CHANNEL 7 DURATION: 29.113736ms NOTE C# OCTAVE 4
NOTE ON CHANNEL 7 DURATION: 29.113736ms NOTE F# OCTAVE 4
NOTE OFF CHANNEL 7 DURATION: 30.081964ms NOTE F# OCTAVE 4
NOTE OFF CHANNEL 7 DURATION: 30.504464ms NOTE C# OCTAVE 4
NOTE ON CHANNEL 7 DURATION: 30.513266ms NOTE E  OCTAVE 4
NOTE ON CHANNEL 7 DURATION: 30.513266ms NOTE C# OCTAVE 4
NOTE OFF CHANNEL 7 DURATION: 31.852942ms NOTE C# OCTAVE 4
NOTE OFF CHANNEL 7 DURATION: 31.854702ms NOTE E  OCTAVE 4
NOTE ON CHANNEL 7 DURATION: 31.868785ms NOTE F# OCTAVE 4
NOTE OFF CHANNEL 7 DURATION: 33.210221ms NOTE F# OCTAVE 4
NOTE ON CHANNEL 7 DURATION: 33.226065ms NOTE E  OCTAVE 4
NOTE ON CHANNEL 7 DURATION: 33.227825ms NOTE B  OCTAVE 4
NOTE OFF CHANNEL 7 DURATION: 35.930062ms NOTE B  OCTAVE 4
NOTE OFF CHANNEL 7 DURATION: 35.930062ms NOTE E  OCTAVE 4
NOTE ON CHANNEL 7 DURATION: 44.07374ms NOTE E  OCTAVE 4
NOTE ON CHANNEL 7 DURATION: 44.0755ms NOTE A  OCTAVE 3
NOTE OFF CHANNEL 7 DURATION: 44.744458ms NOTE A  OCTAVE 3
NOTE ON CHANNEL 7 DURATION: 44.75326ms NOTE G# OCTAVE 3
NOTE OFF CHANNEL 7 DURATION: 45.379967ms NOTE G# OCTAVE 3
NOTE OFF CHANNEL 7 DURATION: 45.379967ms NOTE E  OCTAVE 4
NOTE ON CHANNEL 7 DURATION: 45.387009ms NOTE C# OCTAVE 4
NOTE ON CHANNEL 7 DURATION: 45.387009ms NOTE F# OCTAVE 4
NOTE OFF CHANNEL 7 DURATION: 46.355237ms NOTE F# OCTAVE 4
NOTE OFF CHANNEL 7 DURATION: 46.779497ms NOTE C# OCTAVE 4
NOTE ON CHANNEL 7 DURATION: 46.786539ms NOTE E  OCTAVE 4
NOTE ON CHANNEL 7 DURATION: 46.786539ms NOTE A  OCTAVE 3
NOTE OFF CHANNEL 7 DURATION: 47.457257ms NOTE A  OCTAVE 3
NOTE ON CHANNEL 7 DURATION: 47.464298ms NOTE G# OCTAVE 3
NOTE OFF CHANNEL 7 DURATION: 48.091006ms NOTE G# OCTAVE 3
NOTE OFF CHANNEL 7 DURATION: 48.091006ms NOTE E  OCTAVE 4
NOTE ON CHANNEL 7 DURATION: 48.099808ms NOTE C# OCTAVE 4
NOTE ON CHANNEL 7 DURATION: 48.099808ms NOTE F# OCTAVE 4
NOTE OFF CHANNEL 7 DURATION: 49.068036ms NOTE F# OCTAVE 4
NOTE OFF CHANNEL 7 DURATION: 49.490536ms NOTE C# OCTAVE 4
NOTE ON CHANNEL 7 DURATION: 49.499338ms NOTE E  OCTAVE 4
NOTE ON CHANNEL 7 DURATION: 49.499338ms NOTE C# OCTAVE 4
NOTE OFF CHANNEL 7 DURATION: 50.840774ms NOTE C# OCTAVE 4
NOTE OFF CHANNEL 7 DURATION: 50.840774ms NOTE E  OCTAVE 4
NOTE ON CHANNEL 7 DURATION: 50.854857ms NOTE F# OCTAVE 4
NOTE OFF CHANNEL 7 DURATION: 52.196293ms NOTE F# OCTAVE 4
NOTE ON CHANNEL 7 DURATION: 52.212137ms NOTE E  OCTAVE 4
NOTE ON CHANNEL 7 DURATION: 52.213897ms NOTE B  OCTAVE 4
NOTE OFF CHANNEL 7 DURATION: 54.916133ms NOTE B  OCTAVE 4
NOTE OFF CHANNEL 7 DURATION: 54.916133ms NOTE E  OCTAVE 4
NOTE ON CHANNEL 7 DURATION: 82.045883ms NOTE E  OCTAVE 4
NOTE ON CHANNEL 7 DURATION: 82.047643ms NOTE A  OCTAVE 3
NOTE OFF CHANNEL 7 DURATION: 82.718361ms NOTE A  OCTAVE 3
NOTE ON CHANNEL 7 DURATION: 82.727163ms NOTE G# OCTAVE 3
NOTE OFF CHANNEL 7 DURATION: 83.353871ms NOTE G# OCTAVE 3
NOTE OFF CHANNEL 7 DURATION: 83.353871ms NOTE E  OCTAVE 4
NOTE ON CHANNEL 7 DURATION: 83.362673ms NOTE C# OCTAVE 4
NOTE ON CHANNEL 7 DURATION: 83.362673ms NOTE F# OCTAVE 4
NOTE OFF CHANNEL 7 DURATION: 84.32738ms NOTE F# OCTAVE 4
NOTE OFF CHANNEL 7 DURATION: 84.753401ms NOTE C# OCTAVE 4
NOTE ON CHANNEL 7 DURATION: 84.760442ms NOTE E  OCTAVE 4
NOTE ON CHANNEL 7 DURATION: 84.762203ms NOTE A  OCTAVE 3
NOTE OFF CHANNEL 7 DURATION: 85.43116ms NOTE A  OCTAVE 3
NOTE ON CHANNEL 7 DURATION: 85.439962ms NOTE G# OCTAVE 3
NOTE OFF CHANNEL 7 DURATION: 86.06667ms NOTE G# OCTAVE 3
NOTE OFF CHANNEL 7 DURATION: 86.06667ms NOTE E  OCTAVE 4
NOTE ON CHANNEL 7 DURATION: 86.073712ms NOTE C# OCTAVE 4
NOTE ON CHANNEL 7 DURATION: 86.073712ms NOTE F# OCTAVE 4
NOTE OFF CHANNEL 7 DURATION: 87.040179ms NOTE F# OCTAVE 4
NOTE OFF CHANNEL 7 DURATION: 87.4662ms NOTE C# OCTAVE 4
NOTE ON CHANNEL 7 DURATION: 87.473241ms NOTE E  OCTAVE 4
NOTE ON CHANNEL 7 DURATION: 87.473241ms NOTE C# OCTAVE 4
NOTE OFF CHANNEL 7 DURATION: 88.814677ms NOTE C# OCTAVE 4
NOTE OFF CHANNEL 7 DURATION: 88.814677ms NOTE E  OCTAVE 4
NOTE ON CHANNEL 7 DURATION: 88.82876ms NOTE F# OCTAVE 4
NOTE OFF CHANNEL 7 DURATION: 90.170196ms NOTE F# OCTAVE 4
NOTE ON CHANNEL 7 DURATION: 90.18604ms NOTE E  OCTAVE 4
NOTE ON CHANNEL 7 DURATION: 90.187801ms NOTE B  OCTAVE 4
NOTE OFF CHANNEL 7 DURATION: 92.890037ms NOTE B  OCTAVE 4
NOTE OFF CHANNEL 7 DURATION: 92.890037ms NOTE E  OCTAVE 4
NOTE ON CHANNEL 7 DURATION: 92.898839ms NOTE A  OCTAVE 3
NOTE ON CHANNEL 7 DURATION: 92.898839ms NOTE E  OCTAVE 4
NOTE OFF CHANNEL 7 DURATION: 93.567797ms NOTE A  OCTAVE 3
NOTE ON CHANNEL 7 DURATION: 93.576599ms NOTE G# OCTAVE 3
NOTE OFF CHANNEL 7 DURATION: 94.203306ms NOTE G# OCTAVE 3
NOTE OFF CHANNEL 7 DURATION: 94.203306ms NOTE E  OCTAVE 4
NOTE ON CHANNEL 7 DURATION: 94.210348ms NOTE C# OCTAVE 4
NOTE ON CHANNEL 7 DURATION: 94.210348ms NOTE F# OCTAVE 4
NOTE OFF CHANNEL 7 DURATION: 95.176816ms NOTE F# OCTAVE 4
NOTE OFF CHANNEL 7 DURATION: 95.602836ms NOTE C# OCTAVE 4
NOTE ON CHANNEL 7 DURATION: 95.609878ms NOTE E  OCTAVE 4
NOTE ON CHANNEL 7 DURATION: 95.611638ms NOTE C# OCTAVE 4
NOTE OFF CHANNEL 7 DURATION: 96.951313ms NOTE C# OCTAVE 4
NOTE OFF CHANNEL 7 DURATION: 96.951313ms NOTE E  OCTAVE 4
NOTE ON CHANNEL 7 DURATION: 96.967157ms NOTE F# OCTAVE 4
NOTE OFF CHANNEL 7 DURATION: 98.306833ms NOTE F# OCTAVE 4
NOTE ON CHANNEL 7 DURATION: 98.322676ms NOTE E  OCTAVE 4
NOTE ON CHANNEL 7 DURATION: 98.322676ms NOTE B  OCTAVE 4
NOTE OFF CHANNEL 7 DURATION: 101.026673ms NOTE B  OCTAVE 4
NOTE OFF CHANNEL 7 DURATION: 101.026673ms NOTE E  OCTAVE 4
NOTE ON CHANNEL 7 DURATION: 101.035475ms NOTE E  OCTAVE 4
NOTE ON CHANNEL 7 DURATION: 101.035475ms NOTE A  OCTAVE 3
NOTE OFF CHANNEL 7 DURATION: 101.704433ms NOTE A  OCTAVE 3
NOTE ON CHANNEL 7 DURATION: 101.713235ms NOTE G# OCTAVE 3
NOTE OFF CHANNEL 7 DURATION: 102.339943ms NOTE G# OCTAVE 3
NOTE OFF CHANNEL 7 DURATION: 102.339943ms NOTE E  OCTAVE 4
NOTE ON CHANNEL 7 DURATION: 102.346984ms NOTE F# OCTAVE 4
NOTE ON CHANNEL 7 DURATION: 102.346984ms NOTE C# OCTAVE 4
NOTE OFF CHANNEL 7 DURATION: 103.315212ms NOTE F# OCTAVE 4
NOTE OFF CHANNEL 7 DURATION: 103.739472ms NOTE C# OCTAVE 4
NOTE ON CHANNEL 7 DURATION: 103.748274ms NOTE E  OCTAVE 4
NOTE ON CHANNEL 7 DURATION: 103.748274ms NOTE C# OCTAVE 4
NOTE OFF CHANNEL 7 DURATION: 105.08795ms NOTE C# OCTAVE 4
NOTE OFF CHANNEL 7 DURATION: 105.08795ms NOTE E  OCTAVE 4
NOTE ON CHANNEL 7 DURATION: 105.103794ms NOTE F# OCTAVE 4
NOTE OFF CHANNEL 7 DURATION: 106.445229ms NOTE F# OCTAVE 4
